SplineFontDB: 3.0
FontName: MerriweatherSans-ExtraBold
FullName: Merriweather Sans Extra Bold
FamilyName: Merriweather Sans
Weight: Heavy
Copyright: Copyright (c) 2013, Sorkin Type Co (www.sorkintype.com) with Reserved Font Name 'Merriweather'
Version: 1.002; ttfautohint (v0.93.8-669f) -l 8 -r 24 -G 200 -x 11 -w "gG" -W -c
ItalicAngle: 0
UnderlinePosition: -120
UnderlineWidth: 147
Ascent: 1638
Descent: 410
sfntRevision: 0x00010000
LayerCount: 2
Layer: 0 1 "Back"  1
Layer: 1 1 "Fore"  0
XUID: [1021 631 1661839179 3338430]
FSType: 0
OS2Version: 3
OS2_WeightWidthSlopeOnly: 0
OS2_UseTypoMetrics: 1
CreationTime: 1360958340
ModificationTime: 1360941077
PfmFamily: 17
TTFWeight: 800
TTFWidth: 5
LineGap: 0
VLineGap: 0
Panose: 2 0 5 3 6 0 0 2 0 4
OS2TypoAscent: 2000
OS2TypoAOffset: 0
OS2TypoDescent: -640
OS2TypoDOffset: 0
OS2TypoLinegap: 0
OS2WinAscent: 2000
OS2WinAOffset: 0
OS2WinDescent: 640
OS2WinDOffset: 0
HheadAscent: 2000
HheadAOffset: 0
HheadDescent: -640
HheadDOffset: 0
OS2SubXSize: -25254
OS2SubYSize: 32682
OS2SubXOff: 0
OS2SubYOff: 21180
OS2SupXSize: -25254
OS2SupYSize: 32682
OS2SupXOff: 0
OS2SupYOff: 6560
OS2StrikeYSize: 147
OS2StrikeYPos: 1579
OS2FamilyClass: 768
OS2Vendor: 'STC '
OS2CodePages: 20000093.00000000
OS2UnicodeRanges: a00000af.5000204a.00000000.00000000
Lookup: 1 0 0 "'aalt' Access All Alternates in Latin lookup 0"  {"'aalt' Access All Alternates in Latin lookup 0 subtable"  } ['aalt' ('DFLT' <'dflt' > 'latn' <'AZE ' 'CRT ' 'MOL ' 'ROM ' 'TRK ' 'dflt' > ) ]
Lookup: 3 0 0 "'aalt' Access All Alternates in Latin lookup 1"  {"'aalt' Access All Alternates in Latin lookup 1 subtable"  } ['aalt' ('DFLT' <'dflt' > 'latn' <'AZE ' 'CRT ' 'MOL ' 'ROM ' 'TRK ' 'dflt' > ) ]
Lookup: 1 0 0 "'locl' Localized Forms lookup 2"  {"'locl' Localized Forms lookup 2 subtable"  } ['locl' ('DFLT' <'AZE ' > ) ]
Lookup: 1 0 0 "'locl' Localized Forms lookup 3"  {"'locl' Localized Forms lookup 3 subtable"  } ['locl' ('DFLT' <'TRK ' > ) ]

StartChar: .notdef
Encoding: 65536 -1 0
Width: 1872
Flags: W
LayerCount: 2
Fore
SplineSet
228 1416 m 1,0,-1
 1644 1416 l 1,1,-1
 1644 0 l 1,2,-1
 228 0 l 1,3,-1
 228 1416 l 1,0,-1
586 219 m 1,4,-1
 933 587 l 1,5,-1
 1295 219 l 1,6,-1
 1417 341 l 1,7,-1
 1054 709 l 1,8,-1
 1417 1067 l 1,9,-1
 1289 1191 l 1,10,-1
 937 825 l 1,11,-1
 580 1193 l 1,12,-1
 457 1068 l 1,13,-1
 816 705 l 1,14,-1
 458 363 l 1,15,-1
 586 219 l 1,4,-1
EndSplineSet
EndChar

StartChar: numbersign
Encoding: 35 35 4
Width: 1677
Flags: W
LayerCount: 2
Fore
SplineSet
370 307 m 1,0,-1
 193 307 l 1,1,-1
 193 551 l 1,2,-1
 394 551 l 1,3,-1
 422 840 l 1,4,-1
 233 840 l 1,5,-1
 233 1073 l 1,6,-1
 444 1073 l 1,7,-1
 473 1373 l 1,8,-1
 770 1373 l 1,9,-1
 740 1073 l 1,10,-1
 1006 1073 l 1,11,-1
 1034 1373 l 1,12,-1
 1329 1373 l 1,13,-1
 1299 1073 l 1,14,-1
 1493 1073 l 1,15,-1
 1493 840 l 1,16,-1
 1277 840 l 1,17,-1
 1249 551 l 1,18,-1
 1449 551 l 1,19,-1
 1449 307 l 1,20,-1
 1225 307 l 1,21,-1
 1196 0 l 1,22,-1
 907 0 l 1,23,-1
 935 307 l 1,24,-1
 666 307 l 1,25,-1
 636 0 l 1,26,-1
 341 0 l 1,27,-1
 370 307 l 1,0,-1
958 551 m 1,28,-1
 984 840 l 1,29,-1
 718 840 l 1,30,-1
 690 551 l 1,31,-1
 958 551 l 1,28,-1
EndSplineSet
EndChar

StartChar: ampersand
Encoding: 38 38 5
Width: 1532
Flags: W
LayerCount: 2
Fore
SplineSet
60 409 m 0,0,1
 60 478 60 478 82.5 536.5 c 128,-1,2
 105 595 105 595 146 643 c 128,-1,3
 187 691 187 691 244.5 730.5 c 128,-1,4
 302 770 302 770 372 802 c 1,5,6
 345 840 345 840 320 880.5 c 128,-1,7
 295 921 295 921 276.5 964.5 c 128,-1,8
 258 1008 258 1008 247 1055.5 c 128,-1,9
 236 1103 236 1103 236 1155 c 0,10,11
 236 1248 236 1248 268.5 1320.5 c 128,-1,12
 301 1393 301 1393 361 1443.5 c 128,-1,13
 421 1494 421 1494 505.5 1520 c 128,-1,14
 590 1546 590 1546 695 1546 c 0,15,16
 796 1546 796 1546 877.5 1517.5 c 128,-1,17
 959 1489 959 1489 1016.5 1438.5 c 128,-1,18
 1074 1388 1074 1388 1105 1320 c 128,-1,19
 1136 1252 1136 1252 1136 1173 c 0,20,21
 1136 1082 1136 1082 1112.5 1012.5 c 128,-1,22
 1089 943 1089 943 1048 889 c 128,-1,23
 1007 835 1007 835 951.5 794 c 128,-1,24
 896 753 896 753 832 720 c 1,25,26
 857 688 857 688 888 649.5 c 128,-1,27
 919 611 919 611 952.5 571 c 128,-1,28
 986 531 986 531 1021.5 491 c 128,-1,29
 1057 451 1057 451 1090 417 c 1,30,31
 1106 438 1106 438 1117.5 462.5 c 128,-1,32
 1129 487 1129 487 1137 512.5 c 128,-1,33
 1145 538 1145 538 1149 563.5 c 128,-1,34
 1153 589 1153 589 1153 611 c 0,35,36
 1153 646 1153 646 1150.5 672 c 128,-1,37
 1148 698 1148 698 1144.5 717.5 c 128,-1,38
 1141 737 1141 737 1137.5 751 c 128,-1,39
 1134 765 1134 765 1133 776 c 1,40,-1
 1425 776 l 1,41,42
 1427 766 1427 766 1430 752.5 c 128,-1,43
 1433 739 1433 739 1435.5 719 c 128,-1,44
 1438 699 1438 699 1439.5 672.5 c 128,-1,45
 1441 646 1441 646 1441 610 c 0,46,47
 1441 481 1441 481 1407.5 390 c 128,-1,48
 1374 299 1374 299 1316 236 c 1,49,50
 1352 219 1352 219 1393.5 209.5 c 128,-1,51
 1435 200 1435 200 1490 200 c 1,52,-1
 1490 -1 l 1,53,54
 1464 -7 1464 -7 1424.5 -11.5 c 128,-1,55
 1385 -16 1385 -16 1335 -16 c 0,56,57
 1250 -16 1250 -16 1181.5 2.5 c 128,-1,58
 1113 21 1113 21 1056 51 c 1,59,60
 985 23 985 23 904 3.5 c 128,-1,61
 823 -16 823 -16 738 -16 c 0,62,63
 397 -16 397 -16 228.5 95 c 128,-1,64
 60 206 60 206 60 409 c 0,0,1
679 919 m 1,65,66
 754 961 754 961 797.5 1019.5 c 128,-1,67
 841 1078 841 1078 841 1166 c 0,68,69
 841 1186 841 1186 834.5 1210 c 128,-1,70
 828 1234 828 1234 812.5 1254.5 c 128,-1,71
 797 1275 797 1275 770 1288.5 c 128,-1,72
 743 1302 743 1302 701 1302 c 0,73,74
 666 1302 666 1302 639.5 1290 c 128,-1,75
 613 1278 613 1278 595 1258.5 c 128,-1,76
 577 1239 577 1239 567.5 1213.5 c 128,-1,77
 558 1188 558 1188 558 1160 c 0,78,79
 558 1127 558 1127 565 1100 c 128,-1,80
 572 1073 572 1073 587 1046 c 128,-1,81
 602 1019 602 1019 624.5 988.5 c 128,-1,82
 647 958 647 958 679 919 c 1,65,66
413 426 m 0,83,84
 413 382 413 382 428 346.5 c 128,-1,85
 443 311 443 311 476.5 286.5 c 128,-1,86
 510 262 510 262 564.5 248.5 c 128,-1,87
 619 235 619 235 697 235 c 0,88,89
 734 235 734 235 765 238 c 128,-1,90
 796 241 796 241 823 246 c 1,91,92
 785 287 785 287 745.5 331.5 c 128,-1,93
 706 376 706 376 668 421 c 128,-1,94
 630 466 630 466 594 510 c 128,-1,95
 558 554 558 554 527 594 c 1,96,97
 472 562 472 562 442.5 522.5 c 128,-1,98
 413 483 413 483 413 426 c 0,83,84
EndSplineSet
EndChar

StartChar: quotesingle
Encoding: 39 39 6
Width: 750
Flags: W
LayerCount: 2
Fore
SplineSet
198 1685 m 1,0,-1
 552 1685 l 1,1,-1
 510 966 l 1,2,-1
 241 966 l 1,3,-1
 198 1685 l 1,0,-1
EndSplineSet
EndChar

StartChar: parenleft
Encoding: 40 40 7
Width: 835
Flags: W
LayerCount: 2
Fore
SplineSet
571 -360 m 1,0,1
 544 -342 544 -342 498 -303.5 c 128,-1,2
 452 -265 452 -265 399.5 -204 c 128,-1,3
 347 -143 347 -143 293.5 -57 c 128,-1,4
 240 29 240 29 196.5 142.5 c 128,-1,5
 153 256 153 256 125.5 398 c 128,-1,6
 98 540 98 540 98 714 c 0,7,8
 98 869 98 869 124.5 1001.5 c 128,-1,9
 151 1134 151 1134 193.5 1245 c 128,-1,10
 236 1356 236 1356 289 1444 c 128,-1,11
 342 1532 342 1532 394.5 1597.5 c 128,-1,12
 447 1663 447 1663 493.5 1705.5 c 128,-1,13
 540 1748 540 1748 571 1767 c 1,14,-1
 760 1638 l 1,15,16
 736 1618 736 1618 700.5 1579 c 128,-1,17
 665 1540 665 1540 626 1481 c 128,-1,18
 587 1422 587 1422 547.5 1344 c 128,-1,19
 508 1266 508 1266 477 1169.5 c 128,-1,20
 446 1073 446 1073 426.5 957 c 128,-1,21
 407 841 407 841 407 707 c 0,22,23
 407 511 407 511 442.5 356.5 c 128,-1,24
 478 202 478 202 531.5 86 c 128,-1,25
 585 -30 585 -30 646.5 -108.5 c 128,-1,26
 708 -187 708 -187 760 -230 c 1,27,-1
 571 -360 l 1,28,-1
 571 -360 l 1,0,1
EndSplineSet
EndChar

StartChar: asterisk
Encoding: 42 42 9
Width: 1359
Flags: W
LayerCount: 2
Fore
SplineSet
123 993 m 1,0,-1
 388 1128 l 1,1,-1
 547 1172 l 1,2,3
 542 1174 542 1174 519 1180 c 128,-1,4
 496 1186 496 1186 468.5 1192.5 c 128,-1,5
 441 1199 441 1199 417 1204.5 c 128,-1,6
 393 1210 393 1210 386 1213 c 2,7,-1
 116 1341 l 1,8,-1
 237 1577 l 1,9,-1
 494 1407 l 1,10,-1
 613 1289 l 1,11,12
 612 1295 612 1295 605.5 1317.5 c 128,-1,13
 599 1340 599 1340 591.5 1367 c 128,-1,14
 584 1394 584 1394 577.5 1418 c 128,-1,15
 571 1442 571 1442 570 1450 c 2,16,-1
 539 1749 l 1,17,-1
 804 1749 l 1,18,-1
 785 1456 l 1,19,-1
 744 1291 l 1,20,21
 748 1294 748 1294 764.5 1312 c 128,-1,22
 781 1330 781 1330 800.5 1351 c 128,-1,23
 820 1372 820 1372 837.5 1390.5 c 128,-1,24
 855 1409 855 1409 861 1414 c 2,25,-1
 1112 1587 l 1,26,-1
 1236 1352 l 1,27,-1
 972 1222 l 1,28,-1
 811 1175 l 1,29,-1
 974 1133 l 1,30,-1
 1243 1011 l 1,31,-1
 1109 767 l 1,32,-1
 871 935 l 1,33,-1
 746 1053 l 1,34,35
 747 1048 747 1048 753.5 1025 c 128,-1,36
 760 1002 760 1002 767.5 975 c 128,-1,37
 775 948 775 948 782 924 c 128,-1,38
 789 900 789 900 790 893 c 2,39,-1
 819 593 l 1,40,-1
 555 592 l 1,41,-1
 576 891 l 1,42,-1
 616 1054 l 1,43,-1
 498 929 l 1,44,-1
 253 756 l 1,45,-1
 123 993 l 1,0,-1
EndSplineSet
EndChar

StartChar: plus
Encoding: 43 43 10
Width: 1393
Flags: W
LayerCount: 2
Fore
SplineSet
558 444 m 1,0,-1
 564 647 l 1,1,-1
 404 642 l 1,2,-1
 187 642 l 1,3,-1
 187 909 l 1,4,-1
 404 909 l 1,5,-1
 564 904 l 1,6,-1
 558 1105 l 1,7,-1
 558 1307 l 1,8,-1
 834 1307 l 1,9,-1
 834 1105 l 1,10,-1
 828 904 l 1,11,-1
 984 909 l 1,12,-1
 1206 909 l 1,13,-1
 1206 642 l 1,14,-1
 984 642 l 1,15,-1
 828 647 l 1,16,-1
 834 444 l 1,17,-1
 834 248 l 1,18,-1
 558 248 l 1,19,-1
 558 444 l 1,0,-1
EndSplineSet
EndChar

StartChar: comma
Encoding: 44 44 11
Width: 684
Flags: W
LayerCount: 2
Fore
SplineSet
143 176 m 1,0,-1
 403 316 l 1,1,2
 446 299 446 299 479.5 262.5 c 128,-1,3
 513 226 513 226 535.5 179.5 c 128,-1,4
 558 133 558 133 569.5 82.5 c 128,-1,5
 581 32 581 32 581 -12 c 0,6,7
 581 -97 581 -97 559 -177 c 128,-1,8
 537 -257 537 -257 498.5 -323.5 c 128,-1,9
 460 -390 460 -390 407 -439.5 c 128,-1,10
 354 -489 354 -489 291 -514 c 1,11,-1
 161 -412 l 1,12,-1
 161 -385 l 1,13,14
 176 -374 176 -374 192 -348.5 c 128,-1,15
 208 -323 208 -323 220.5 -288.5 c 128,-1,16
 233 -254 233 -254 241 -214.5 c 128,-1,17
 249 -175 249 -175 249 -136 c 0,18,19
 249 -99 249 -99 238.5 -62 c 128,-1,20
 228 -25 228 -25 212.5 5 c 128,-1,21
 197 35 197 35 178 53.5 c 128,-1,22
 159 72 159 72 143 72 c 1,23,-1
 143 176 l 1,0,-1
EndSplineSet
EndChar

StartChar: hyphen
Encoding: 45 45 12
Width: 1350
Flags: W
LayerCount: 2
Fore
SplineSet
246 903 m 1,0,-1
 1104 903 l 1,1,-1
 1104 628 l 1,2,-1
 246 628 l 1,3,-1
 246 903 l 1,0,-1
EndSplineSet
EndChar

StartChar: period
Encoding: 46 46 13
Width: 651
Flags: W
LayerCount: 2
Fore
SplineSet
113 187 m 256,0,1
 113 232 113 232 130 272.5 c 128,-1,2
 147 313 147 313 177 344.5 c 128,-1,3
 207 376 207 376 247.5 394.5 c 128,-1,4
 288 413 288 413 335 413 c 256,5,6
 382 413 382 413 419.5 397 c 128,-1,7
 457 381 457 381 483 353 c 128,-1,8
 509 325 509 325 523 287 c 128,-1,9
 537 249 537 249 537 204 c 256,10,11
 537 159 537 159 520.5 118 c 128,-1,12
 504 77 504 77 474.5 46 c 128,-1,13
 445 15 445 15 405 -3.5 c 128,-1,14
 365 -22 365 -22 318 -22 c 0,15,16
 273 -22 273 -22 235 -6 c 128,-1,17
 197 10 197 10 170 38 c 128,-1,18
 143 66 143 66 128 104 c 128,-1,19
 113 142 113 142 113 187 c 256,0,1
EndSplineSet
EndChar

StartChar: slash
Encoding: 47 47 14
Width: 854
Flags: W
LayerCount: 2
Fore
SplineSet
561 1599 m 1,0,-1
 849 1599 l 1,1,-1
 293 -363 l 1,2,-1
 5 -363 l 1,3,-1
 561 1599 l 1,0,-1
EndSplineSet
EndChar

StartChar: zero
Encoding: 48 48 15
Width: 1379
Flags: W
LayerCount: 2
Fore
SplineSet
87 642 m 0,0,1
 89 787 89 787 134.5 903.5 c 128,-1,2
 180 1020 180 1020 261.5 1102 c 128,-1,3
 343 1184 343 1184 456 1227.5 c 128,-1,4
 569 1271 569 1271 706 1271 c 0,5,6
 819 1271 819 1271 907 1247.5 c 128,-1,7
 995 1224 995 1224 1060 1181.5 c 128,-1,8
 1125 1139 1125 1139 1170 1079.5 c 128,-1,9
 1215 1020 1215 1020 1242 948.5 c 128,-1,10
 1269 877 1269 877 1281 795.5 c 128,-1,11
 1293 714 1293 714 1292 627 c 0,12,13
 1290 482 1290 482 1247 363.5 c 128,-1,14
 1204 245 1204 245 1124.5 160.5 c 128,-1,15
 1045 76 1045 76 932.5 30 c 128,-1,16
 820 -16 820 -16 681 -16 c 0,17,18
 569 -16 569 -16 481.5 9 c 128,-1,19
 394 34 394 34 328 78.5 c 128,-1,20
 262 123 262 123 215.5 184.5 c 128,-1,21
 169 246 169 246 140 319.5 c 128,-1,22
 111 393 111 393 98.5 474.5 c 128,-1,23
 86 556 86 556 87 642 c 0,0,1
689 232 m 0,24,25
 807 230 807 230 866 332.5 c 128,-1,26
 925 435 925 435 925 619 c 0,27,28
 925 700 925 700 911.5 773.5 c 128,-1,29
 898 847 898 847 869.5 902.5 c 128,-1,30
 841 958 841 958 797 990.5 c 128,-1,31
 753 1023 753 1023 693 1024 c 0,32,33
 634 1025 634 1025 589 999 c 128,-1,34
 544 973 544 973 514 924.5 c 128,-1,35
 484 876 484 876 468.5 807 c 128,-1,36
 453 738 453 738 453 651 c 0,37,38
 453 571 453 571 467 496 c 128,-1,39
 481 421 481 421 510 363 c 128,-1,40
 539 305 539 305 583.5 269 c 128,-1,41
 628 233 628 233 689 232 c 0,24,25
EndSplineSet
EndChar

StartChar: one
Encoding: 49 49 16
Width: 996
Flags: W
LayerCount: 2
Fore
SplineSet
352 883 m 1,0,1
 293 869 293 869 238.5 859 c 128,-1,2
 184 849 184 849 127 841 c 1,3,-1
 97 1061 l 1,4,5
 147 1073 147 1073 212.5 1098 c 128,-1,6
 278 1123 278 1123 343.5 1154.5 c 128,-1,7
 409 1186 409 1186 466 1218.5 c 128,-1,8
 523 1251 523 1251 555 1278 c 1,9,-1
 736 1249 l 1,10,-1
 733 0 l 1,11,-1
 352 0 l 1,12,-1
 352 883 l 1,0,1
EndSplineSet
Substitution2: "'sups' Superscript in Latin lookup 11 subtable" onesuperior
EndChar

StartChar: two
Encoding: 50 50 17
Width: 1357
Flags: W
LayerCount: 2
Fore
SplineSet
112 168 m 1,0,1
 168 196 168 196 237.5 237 c 128,-1,2
 307 278 307 278 379 328.5 c 128,-1,3
 451 379 451 379 519.5 437.5 c 128,-1,4
 588 496 588 496 641 558.5 c 128,-1,5
 694 621 694 621 726.5 685.5 c 128,-1,6
 759 750 759 750 759 814 c 0,7,8
 759 852 759 852 749.5 886.5 c 128,-1,9
 740 921 740 921 718.5 947 c 128,-1,10
 697 973 697 973 661 988.5 c 128,-1,11
 625 1004 625 1004 571 1004 c 0,12,13
 523 1004 523 1004 475.5 993.5 c 128,-1,14
 428 983 428 983 385 965.5 c 128,-1,15
 342 948 342 948 305.5 925.5 c 128,-1,16
 269 903 269 903 244 878 c 1,17,-1
 120 1089 l 1,18,19
 151 1121 151 1121 203 1156.5 c 128,-1,20
 255 1192 255 1192 323.5 1222 c 128,-1,21
 392 1252 392 1252 475 1272 c 128,-1,22
 558 1292 558 1292 652 1292 c 0,23,24
 794 1292 794 1292 891 1257.5 c 128,-1,25
 988 1223 988 1223 1047 1167 c 128,-1,26
 1106 1111 1106 1111 1131.5 1038.5 c 128,-1,27
 1157 966 1157 966 1157 890 c 0,28,29
 1157 797 1157 797 1123.5 713.5 c 128,-1,30
 1090 630 1090 630 1027 554.5 c 128,-1,31
 964 479 964 479 875 409 c 128,-1,32
 786 339 786 339 675 273 c 1,33,-1
 1229 309 l 1,34,-1
 1229 0 l 1,35,-1
 161 0 l 1,36,-1
 112 168 l 1,0,1
EndSplineSet
Substitution2: "'sups' Superscript in Latin lookup 11 subtable" twosuperior
EndChar

StartChar: three
Encoding: 51 51 18
Width: 1142
Flags: W
LayerCount: 2
Fore
SplineSet
94 -43 m 1,0,1
 149 -56 149 -56 207 -64.5 c 128,-1,2
 265 -73 265 -73 316 -73 c 0,3,4
 399 -73 399 -73 468.5 -56.5 c 128,-1,5
 538 -40 538 -40 587.5 -8 c 128,-1,6
 637 24 637 24 664.5 71 c 128,-1,7
 692 118 692 118 692 180 c 0,8,9
 692 226 692 226 679.5 265.5 c 128,-1,10
 667 305 667 305 638.5 334 c 128,-1,11
 610 363 610 363 563.5 379 c 128,-1,12
 517 395 517 395 449 392 c 1,13,-1
 313 359 l 1,14,-1
 264 586 l 1,15,16
 333 599 333 599 393.5 618 c 128,-1,17
 454 637 454 637 496 659 c 0,18,19
 565 697 565 697 596.5 745.5 c 128,-1,20
 628 794 628 794 630 851 c 1,21,22
 631 925 631 925 581 963.5 c 128,-1,23
 531 1002 531 1002 447 1002 c 0,24,25
 395 1002 395 1002 351 993 c 128,-1,26
 307 984 307 984 269.5 969.5 c 128,-1,27
 232 955 232 955 201 936.5 c 128,-1,28
 170 918 170 918 144 900 c 1,29,-1
 40 1128 l 1,30,31
 61 1151 61 1151 110.5 1178 c 128,-1,32
 160 1205 160 1205 226 1227.5 c 128,-1,33
 292 1250 292 1250 368.5 1265 c 128,-1,34
 445 1280 445 1280 520 1280 c 0,35,36
 635 1280 635 1280 723.5 1255.5 c 128,-1,37
 812 1231 812 1231 872 1184.5 c 128,-1,38
 932 1138 932 1138 963 1071 c 128,-1,39
 994 1004 994 1004 994 920 c 0,40,41
 994 850 994 850 976 792.5 c 128,-1,42
 958 735 958 735 925 687 c 128,-1,43
 892 639 892 639 846 599 c 128,-1,44
 800 559 800 559 743 525 c 1,45,46
 834 514 834 514 897.5 479.5 c 128,-1,47
 961 445 961 445 1000 397 c 128,-1,48
 1039 349 1039 349 1056.5 292 c 128,-1,49
 1074 235 1074 235 1074 178 c 0,50,51
 1074 66 1074 66 1027 -27.5 c 128,-1,52
 980 -121 980 -121 893 -188.5 c 128,-1,53
 806 -256 806 -256 683 -294 c 128,-1,54
 560 -332 560 -332 408 -333 c 0,55,56
 356 -333 356 -333 310 -328 c 128,-1,57
 264 -323 264 -323 225 -315.5 c 128,-1,58
 186 -308 186 -308 153.5 -299 c 128,-1,59
 121 -290 121 -290 95 -282 c 1,60,-1
 94 -43 l 1,61,-1
 94 -43 l 1,0,1
EndSplineSet
Substitution2: "'sups' Superscript in Latin lookup 11 subtable" threesuperior
EndChar

StartChar: four
Encoding: 52 52 19
Width: 1397
Flags: W
LayerCount: 2
Fore
SplineSet
613 1341 m 1,0,-1
 689 1341 l 1,1,-1
 978 1202 l 1,2,-1
 542 405 l 1,3,-1
 456 259 l 1,4,-1
 803 259 l 1,5,-1
 859 655 l 1,6,-1
 1154 659 l 1,7,-1
 1154 259 l 1,8,-1
 1366 259 l 1,9,-1
 1366 0 l 1,10,-1
 1154 0 l 1,11,-1
 1154 -376 l 1,12,-1
 803 -376 l 1,13,-1
 803 0 l 1,14,-1
 148 0 l 1,15,-1
 63 132 l 1,16,-1
 613 1341 l 1,0,-1
EndSplineSet
EndChar

StartChar: five
Encoding: 53 53 20
Width: 1257
Flags: W
LayerCount: 2
Fore
SplineSet
145 -99 m 1,0,1
 166 -101 166 -101 185.5 -101 c 128,-1,2
 205 -101 205 -101 225 -101 c 0,3,4
 355 -101 355 -101 455.5 -77.5 c 128,-1,5
 556 -54 556 -54 624 -11.5 c 128,-1,6
 692 31 692 31 727.5 90.5 c 128,-1,7
 763 150 763 150 763 222 c 0,8,9
 763 318 763 318 704.5 369 c 128,-1,10
 646 420 646 420 509 421 c 0,11,12
 445 421 445 421 373 404 c 128,-1,13
 301 387 301 387 221 358 c 1,14,-1
 157 392 l 1,15,-1
 220 1252 l 1,16,-1
 1098 1252 l 1,17,-1
 1070 954 l 1,18,-1
 482 954 l 1,19,-1
 448 642 l 1,20,21
 512 662 512 662 578.5 673 c 128,-1,22
 645 684 645 684 705 684 c 0,23,24
 810 684 810 684 892 654 c 128,-1,25
 974 624 974 624 1030.5 568 c 128,-1,26
 1087 512 1087 512 1116.5 431 c 128,-1,27
 1146 350 1146 350 1146 247 c 0,28,29
 1146 112 1146 112 1084 1 c 128,-1,30
 1022 -110 1022 -110 908.5 -189.5 c 128,-1,31
 795 -269 795 -269 634.5 -313 c 128,-1,32
 474 -357 474 -357 277 -357 c 0,33,34
 263 -357 263 -357 246 -356.5 c 128,-1,35
 229 -356 229 -356 211 -354.5 c 128,-1,36
 193 -353 193 -353 175.5 -350.5 c 128,-1,37
 158 -348 158 -348 144 -344 c 1,38,-1
 145 -99 l 1,39,-1
 145 -99 l 1,0,1
EndSplineSet
EndChar

StartChar: six
Encoding: 54 54 21
Width: 1396
Flags: W
LayerCount: 2
Fore
SplineSet
91 619 m 0,0,1
 91 771 91 771 132 903 c 128,-1,2
 173 1035 173 1035 241.5 1145.5 c 128,-1,3
 310 1256 310 1256 400.5 1344.5 c 128,-1,4
 491 1433 491 1433 590 1497 c 128,-1,5
 689 1561 689 1561 790.5 1599.5 c 128,-1,6
 892 1638 892 1638 983 1650 c 1,7,-1
 1066 1434 l 1,8,9
 971 1410 971 1410 890.5 1366 c 128,-1,10
 810 1322 810 1322 745 1264.5 c 128,-1,11
 680 1207 680 1207 630.5 1137.5 c 128,-1,12
 581 1068 581 1068 547.5 993 c 128,-1,13
 514 918 514 918 496.5 840 c 128,-1,14
 479 762 479 762 478 687 c 0,15,16
 477 588 477 588 490 504.5 c 128,-1,17
 503 421 503 421 531.5 360.5 c 128,-1,18
 560 300 560 300 606 266.5 c 128,-1,19
 652 233 652 233 717 233 c 0,20,21
 830 233 830 233 886 302.5 c 128,-1,22
 942 372 942 372 942 496 c 0,23,24
 942 571 942 571 929 621.5 c 128,-1,25
 916 672 916 672 893 702.5 c 128,-1,26
 870 733 870 733 839 746.5 c 128,-1,27
 808 760 808 760 772 760 c 0,28,29
 719 760 719 760 685 750 c 128,-1,30
 651 740 651 740 630 730 c 1,31,-1
 563 922 l 1,32,33
 574 937 574 937 600 957 c 128,-1,34
 626 977 626 977 665 994.5 c 128,-1,35
 704 1012 704 1012 756 1024 c 128,-1,36
 808 1036 808 1036 871 1036 c 0,37,38
 971 1036 971 1036 1051.5 1001 c 128,-1,39
 1132 966 1132 966 1188 903 c 128,-1,40
 1244 840 1244 840 1274 752.5 c 128,-1,41
 1304 665 1304 665 1304 560 c 0,42,43
 1304 443 1304 443 1266 338.5 c 128,-1,44
 1228 234 1228 234 1150.5 155.5 c 128,-1,45
 1073 77 1073 77 956 30.5 c 128,-1,46
 839 -16 839 -16 681 -16 c 0,47,48
 547 -16 547 -16 438 31.5 c 128,-1,49
 329 79 329 79 252 164 c 128,-1,50
 175 249 175 249 133 365.5 c 128,-1,51
 91 482 91 482 91 619 c 0,0,1
EndSplineSet
EndChar

StartChar: seven
Encoding: 55 55 22
Width: 1278
Flags: W
LayerCount: 2
Fore
SplineSet
232 -334 m 1,0,1
 286 -224 286 -224 341 -107 c 128,-1,2
 396 10 396 10 449 126.5 c 128,-1,3
 502 243 502 243 552.5 356.5 c 128,-1,4
 603 470 603 470 648 574.5 c 128,-1,5
 693 679 693 679 732 770.5 c 128,-1,6
 771 862 771 862 802 935 c 1,7,-1
 95 935 l 1,8,-1
 95 1271 l 1,9,-1
 1130 1271 l 1,10,-1
 1210 1155 l 1,11,-1
 598 -431 l 1,12,-1
 232 -334 l 1,13,-1
 232 -334 l 1,0,1
EndSplineSet
EndChar

StartChar: eight
Encoding: 56 56 23
Width: 1341
Flags: W
LayerCount: 2
Fore
SplineSet
91 392 m 0,0,1
 91 445 91 445 105.5 497 c 128,-1,2
 120 549 120 549 152 597.5 c 128,-1,3
 184 646 184 646 236 690 c 128,-1,4
 288 734 288 734 362 771 c 1,5,6
 315 804 315 804 274.5 842.5 c 128,-1,7
 234 881 234 881 204 928.5 c 128,-1,8
 174 976 174 976 157 1033.5 c 128,-1,9
 140 1091 140 1091 140 1161 c 0,10,11
 140 1245 140 1245 174 1318.5 c 128,-1,12
 208 1392 208 1392 274.5 1446.5 c 128,-1,13
 341 1501 341 1501 440 1533 c 128,-1,14
 539 1565 539 1565 668 1565 c 0,15,16
 795 1565 795 1565 893 1538 c 128,-1,17
 991 1511 991 1511 1057.5 1462.5 c 128,-1,18
 1124 1414 1124 1414 1158.5 1347.5 c 128,-1,19
 1193 1281 1193 1281 1193 1203 c 0,20,21
 1193 1150 1193 1150 1179 1096 c 128,-1,22
 1165 1042 1165 1042 1134.5 992 c 128,-1,23
 1104 942 1104 942 1056.5 898.5 c 128,-1,24
 1009 855 1009 855 942 823 c 1,25,26
 1005 788 1005 788 1062 748 c 128,-1,27
 1119 708 1119 708 1162.5 660 c 128,-1,28
 1206 612 1206 612 1232 553.5 c 128,-1,29
 1258 495 1258 495 1259 423 c 0,30,31
 1260 318 1260 318 1217 236.5 c 128,-1,32
 1174 155 1174 155 1097 99 c 128,-1,33
 1020 43 1020 43 914.5 13.5 c 128,-1,34
 809 -16 809 -16 686 -16 c 0,35,36
 548 -16 548 -16 438 12 c 128,-1,37
 328 40 328 40 250.5 93 c 128,-1,38
 173 146 173 146 132 221.5 c 128,-1,39
 91 297 91 297 91 392 c 0,0,1
721 939 m 1,40,41
 803 979 803 979 840 1044.5 c 128,-1,42
 877 1110 877 1110 875 1188 c 0,43,44
 875 1222 875 1222 861.5 1250.5 c 128,-1,45
 848 1279 848 1279 822.5 1299.5 c 128,-1,46
 797 1320 797 1320 759 1331.5 c 128,-1,47
 721 1343 721 1343 673 1343 c 0,48,49
 628 1343 628 1343 592.5 1331 c 128,-1,50
 557 1319 557 1319 531.5 1298.5 c 128,-1,51
 506 1278 506 1278 492.5 1251.5 c 128,-1,52
 479 1225 479 1225 479 1195 c 0,53,54
 479 1154 479 1154 498 1119 c 128,-1,55
 517 1084 517 1084 549.5 1053 c 128,-1,56
 582 1022 582 1022 626 994 c 128,-1,57
 670 966 670 966 721 939 c 1,40,41
434 411 m 0,58,59
 434 373 434 373 448 339 c 128,-1,60
 462 305 462 305 492 279 c 128,-1,61
 522 253 522 253 569 237.5 c 128,-1,62
 616 222 616 222 682 222 c 0,63,64
 725 222 725 222 762.5 233 c 128,-1,65
 800 244 800 244 828.5 265 c 128,-1,66
 857 286 857 286 873.5 316 c 128,-1,67
 890 346 890 346 890 384 c 0,68,69
 890 428 890 428 865 463.5 c 128,-1,70
 840 499 840 499 798 529.5 c 128,-1,71
 756 560 756 560 701 588 c 128,-1,72
 646 616 646 616 586 646 c 1,73,74
 517 606 517 606 475.5 550.5 c 128,-1,75
 434 495 434 495 434 411 c 0,58,59
EndSplineSet
EndChar

StartChar: nine
Encoding: 57 57 24
Width: 1396
Flags: W
LayerCount: 2
Fore
SplineSet
315 -200 m 1,0,1
 413 -176 413 -176 495 -130.5 c 128,-1,2
 577 -85 577 -85 643.5 -24.5 c 128,-1,3
 710 36 710 36 760.5 108.5 c 128,-1,4
 811 181 811 181 845.5 258 c 128,-1,5
 880 335 880 335 897 414 c 128,-1,6
 914 493 914 493 915 567 c 0,7,8
 916 669 916 669 903 752.5 c 128,-1,9
 890 836 890 836 861 895.5 c 128,-1,10
 832 955 832 955 786.5 987.5 c 128,-1,11
 741 1020 741 1020 677 1020 c 0,12,13
 568 1020 568 1020 510 954 c 128,-1,14
 452 888 452 888 452 770 c 0,15,16
 452 695 452 695 465 641.5 c 128,-1,17
 478 588 478 588 501.5 554 c 128,-1,18
 525 520 525 520 557.5 504 c 128,-1,19
 590 488 590 488 629 488 c 0,20,21
 686 488 686 488 716.5 497 c 128,-1,22
 747 506 747 506 770 516 c 1,23,-1
 835 327 l 1,24,25
 824 311 824 311 799 291 c 128,-1,26
 774 271 774 271 735.5 253.5 c 128,-1,27
 697 236 697 236 644.5 224 c 128,-1,28
 592 212 592 212 527 212 c 0,29,30
 426 212 426 212 345 248 c 128,-1,31
 264 284 264 284 208 348.5 c 128,-1,32
 152 413 152 413 122 502.5 c 128,-1,33
 92 592 92 592 92 698 c 0,34,35
 92 818 92 818 131 923 c 128,-1,36
 170 1028 170 1028 248 1105 c 128,-1,37
 326 1182 326 1182 442.5 1226.5 c 128,-1,38
 559 1271 559 1271 714 1271 c 0,39,40
 849 1271 849 1271 957.5 1223 c 128,-1,41
 1066 1175 1066 1175 1142.5 1090.5 c 128,-1,42
 1219 1006 1219 1006 1260.5 889.5 c 128,-1,43
 1302 773 1302 773 1302 636 c 0,44,45
 1302 482 1302 482 1260.5 347.5 c 128,-1,46
 1219 213 1219 213 1149.5 100.5 c 128,-1,47
 1080 -12 1080 -12 989 -102 c 128,-1,48
 898 -192 898 -192 798 -257.5 c 128,-1,49
 698 -323 698 -323 595.5 -362.5 c 128,-1,50
 493 -402 493 -402 402 -414 c 1,51,-1
 315 -200 l 1,52,-1
 315 -200 l 1,0,1
EndSplineSet
EndChar

StartChar: less
Encoding: 60 60 27
Width: 1368
Flags: W
LayerCount: 2
Fore
SplineSet
205 853 m 1,0,-1
 1150 1353 l 1,1,-1
 1150 1035 l 1,2,-1
 630 773 l 1,3,-1
 1150 543 l 1,4,-1
 1150 215 l 1,5,-1
 205 699 l 1,6,-1
 205 853 l 1,0,-1
EndSplineSet
EndChar

StartChar: equal
Encoding: 61 61 28
Width: 1421
Flags: W
LayerCount: 2
Fore
SplineSet
249 1153 m 1,0,-1
 1173 1153 l 1,1,-1
 1173 906 l 1,2,-1
 249 906 l 1,3,-1
 249 1153 l 1,0,-1
249 645 m 1,4,-1
 1173 645 l 1,5,-1
 1173 397 l 1,6,-1
 249 397 l 1,7,-1
 249 645 l 1,4,-1
EndSplineSet
EndChar

StartChar: question
Encoding: 63 63 30
Width: 1047
Flags: W
LayerCount: 2
Fore
SplineSet
324 532 m 1,0,1
 311 552 311 552 298 576.5 c 128,-1,2
 285 601 285 601 274.5 632 c 128,-1,3
 264 663 264 663 257 700.5 c 128,-1,4
 250 738 250 738 250 785 c 0,5,6
 250 844 250 844 265.5 890 c 128,-1,7
 281 936 281 936 306.5 973 c 128,-1,8
 332 1010 332 1010 365 1040 c 128,-1,9
 398 1070 398 1070 432.5 1097.5 c 128,-1,10
 467 1125 467 1125 500 1152.5 c 128,-1,11
 533 1180 533 1180 559 1211.5 c 128,-1,12
 585 1243 585 1243 601 1280.5 c 128,-1,13
 617 1318 617 1318 617 1366 c 1,14,15
 618 1410 618 1410 602 1446.5 c 128,-1,16
 586 1483 586 1483 552 1509.5 c 128,-1,17
 518 1536 518 1536 464 1550.5 c 128,-1,18
 410 1565 410 1565 334 1565 c 0,19,20
 284 1565 284 1565 246.5 1559.5 c 128,-1,21
 209 1554 209 1554 181.5 1547 c 128,-1,22
 154 1540 154 1540 135 1532.5 c 128,-1,23
 116 1525 116 1525 103 1521 c 1,24,-1
 103 1785 l 1,25,26
 121 1797 121 1797 155.5 1808.5 c 128,-1,27
 190 1820 190 1820 233.5 1828 c 128,-1,28
 277 1836 277 1836 326 1841 c 128,-1,29
 375 1846 375 1846 423 1846 c 0,30,31
 579 1846 579 1846 691 1811 c 128,-1,32
 803 1776 803 1776 873 1714 c 128,-1,33
 943 1652 943 1652 973 1567.5 c 128,-1,34
 1003 1483 1003 1483 996 1383 c 1,35,36
 993 1312 993 1312 973 1258 c 128,-1,37
 953 1204 953 1204 922 1161 c 128,-1,38
 891 1118 891 1118 852.5 1084 c 128,-1,39
 814 1050 814 1050 774 1019 c 128,-1,40
 734 988 734 988 696.5 958 c 128,-1,41
 659 928 659 928 629 892.5 c 128,-1,42
 599 857 599 857 581 813.5 c 128,-1,43
 563 770 563 770 562 714 c 0,44,45
 562 691 562 691 564 670.5 c 128,-1,46
 566 650 566 650 570 629 c 128,-1,47
 574 608 574 608 579.5 584.5 c 128,-1,48
 585 561 585 561 593 532 c 1,49,-1
 324 532 l 1,0,1
283 176 m 0,50,51
 282 219 282 219 298.5 257.5 c 128,-1,52
 315 296 315 296 344.5 325 c 128,-1,53
 374 354 374 354 413 371.5 c 128,-1,54
 452 389 452 389 496 389 c 0,55,56
 541 389 541 389 577 374 c 128,-1,57
 613 359 613 359 638.5 333 c 128,-1,58
 664 307 664 307 678 271 c 128,-1,59
 692 235 692 235 692 192 c 0,60,61
 692 150 692 150 675.5 111 c 128,-1,62
 659 72 659 72 630.5 42.5 c 128,-1,63
 602 13 602 13 563.5 -4.5 c 128,-1,64
 525 -22 525 -22 480 -22 c 0,65,66
 437 -22 437 -22 401 -7 c 128,-1,67
 365 8 365 8 338.5 34.5 c 128,-1,68
 312 61 312 61 297.5 97.5 c 128,-1,69
 283 134 283 134 283 176 c 0,50,51
EndSplineSet
EndChar

StartChar: at
Encoding: 64 64 31
Width: 2218
Flags: W
LayerCount: 2
Fore
SplineSet
125 430 m 0,0,1
 125 597 125 597 165.5 744.5 c 128,-1,2
 206 892 206 892 279 1015.5 c 128,-1,3
 352 1139 352 1139 454 1237 c 128,-1,4
 556 1335 556 1335 679.5 1403 c 128,-1,5
 803 1471 803 1471 943.5 1507 c 128,-1,6
 1084 1543 1084 1543 1234 1543 c 0,7,8
 1412 1543 1412 1543 1564 1494.5 c 128,-1,9
 1716 1446 1716 1446 1827.5 1352 c 128,-1,10
 1939 1258 1939 1258 2002.5 1118.5 c 128,-1,11
 2066 979 2066 979 2066 798 c 0,12,13
 2066 661 2066 661 2041 548 c 128,-1,14
 2016 435 2016 435 1972.5 346 c 128,-1,15
 1929 257 1929 257 1870.5 191 c 128,-1,16
 1812 125 1812 125 1743.5 81.5 c 128,-1,17
 1675 38 1675 38 1601 16.5 c 128,-1,18
 1527 -5 1527 -5 1453 -5 c 0,19,20
 1353 -5 1353 -5 1301 38 c 128,-1,21
 1249 81 1249 81 1242 183 c 0,22,23
 1241 196 1241 196 1240.5 211.5 c 128,-1,24
 1240 227 1240 227 1241 245 c 1,25,26
 1210 194 1210 194 1172.5 148.5 c 128,-1,27
 1135 103 1135 103 1091 69 c 128,-1,28
 1047 35 1047 35 995.5 15 c 128,-1,29
 944 -5 944 -5 885 -5 c 0,30,31
 830 -5 830 -5 775.5 23 c 128,-1,32
 721 51 721 51 677.5 106.5 c 128,-1,33
 634 162 634 162 608 246 c 128,-1,34
 582 330 582 330 585 443 c 0,35,36
 587 511 587 511 603 585 c 128,-1,37
 619 659 619 659 651.5 730 c 128,-1,38
 684 801 684 801 733 864.5 c 128,-1,39
 782 928 782 928 849.5 976 c 128,-1,40
 917 1024 917 1024 1003 1052 c 128,-1,41
 1089 1080 1089 1080 1195 1080 c 0,42,43
 1225 1080 1225 1080 1256.5 1076.5 c 128,-1,44
 1288 1073 1288 1073 1318 1066 c 128,-1,45
 1348 1059 1348 1059 1375.5 1048.5 c 128,-1,46
 1403 1038 1403 1038 1424 1025 c 1,47,-1
 1620 1056 l 1,48,49
 1608 1002 1608 1002 1592 922.5 c 128,-1,50
 1576 843 1576 843 1558.5 755 c 128,-1,51
 1541 667 1541 667 1523.5 579.5 c 128,-1,52
 1506 492 1506 492 1491 423 c 1,53,54
 1479 363 1479 363 1475.5 321 c 128,-1,55
 1472 279 1472 279 1477 253.5 c 128,-1,56
 1482 228 1482 228 1494.5 216.5 c 128,-1,57
 1507 205 1507 205 1527 205 c 0,58,59
 1581 205 1581 205 1638 242 c 128,-1,60
 1695 279 1695 279 1741 351 c 128,-1,61
 1787 423 1787 423 1816.5 528.5 c 128,-1,62
 1846 634 1846 634 1846 771 c 0,63,64
 1846 885 1846 885 1820.5 972.5 c 128,-1,65
 1795 1060 1795 1060 1751 1125 c 128,-1,66
 1707 1190 1707 1190 1647 1233.5 c 128,-1,67
 1587 1277 1587 1277 1518.5 1303.5 c 128,-1,68
 1450 1330 1450 1330 1375.5 1341.5 c 128,-1,69
 1301 1353 1301 1353 1227 1353 c 0,70,71
 1112 1353 1112 1353 1002.5 1325.5 c 128,-1,72
 893 1298 893 1298 795.5 1244 c 128,-1,73
 698 1190 698 1190 616 1111 c 128,-1,74
 534 1032 534 1032 474.5 929.5 c 128,-1,75
 415 827 415 827 382 701.5 c 128,-1,76
 349 576 349 576 349 429 c 0,77,78
 349 295 349 295 377 190.5 c 128,-1,79
 405 86 405 86 454.5 8 c 128,-1,80
 504 -70 504 -70 570.5 -123.5 c 128,-1,81
 637 -177 637 -177 713.5 -210.5 c 128,-1,82
 790 -244 790 -244 874 -258.5 c 128,-1,83
 958 -273 958 -273 1041 -273 c 0,84,85
 1140 -273 1140 -273 1214 -261.5 c 128,-1,86
 1288 -250 1288 -250 1343.5 -232.5 c 128,-1,87
 1399 -215 1399 -215 1439 -194.5 c 128,-1,88
 1479 -174 1479 -174 1511 -156 c 1,89,-1
 1556 -321 l 1,90,91
 1520 -345 1520 -345 1471.5 -370.5 c 128,-1,92
 1423 -396 1423 -396 1358 -416 c 128,-1,93
 1293 -436 1293 -436 1210 -449 c 128,-1,94
 1127 -462 1127 -462 1021 -462 c 0,95,96
 901 -462 901 -462 787.5 -439 c 128,-1,97
 674 -416 674 -416 574.5 -368.5 c 128,-1,98
 475 -321 475 -321 392.5 -248.5 c 128,-1,99
 310 -176 310 -176 250.5 -77 c 128,-1,100
 191 22 191 22 158 148.5 c 128,-1,101
 125 275 125 275 125 430 c 0,0,1
863 461 m 1,102,103
 861 354 861 354 888.5 302 c 128,-1,104
 916 250 916 250 961 250 c 0,105,106
 994 250 994 250 1030.5 276 c 128,-1,107
 1067 302 1067 302 1102.5 345.5 c 128,-1,108
 1138 389 1138 389 1170.5 446.5 c 128,-1,109
 1203 504 1203 504 1229.5 566.5 c 128,-1,110
 1256 629 1256 629 1275 693 c 128,-1,111
 1294 757 1294 757 1301 815 c 1,112,113
 1282 837 1282 837 1245.5 850 c 128,-1,114
 1209 863 1209 863 1158 863 c 0,115,116
 1097 863 1097 863 1043.5 828.5 c 128,-1,117
 990 794 990 794 950 737.5 c 128,-1,118
 910 681 910 681 886.5 608.5 c 128,-1,119
 863 536 863 536 863 461 c 1,102,103
EndSplineSet
EndChar

StartChar: A
Encoding: 65 65 32
Width: 1443
Flags: W
LayerCount: 2
Fore
SplineSet
518 1538 m 1,0,-1
 924 1538 l 1,1,-1
 1470 0 l 1,2,-1
 1067 0 l 1,3,-1
 981 282 l 1,4,-1
 462 282 l 1,5,-1
 380 0 l 1,6,-1
 -27 0 l 1,7,-1
 518 1538 l 1,0,-1
898 551 m 1,8,-1
 760 1005 l 1,9,-1
 717 1171 l 1,10,-1
 672 1005 l 1,11,-1
 540 551 l 1,12,-1
 898 551 l 1,8,-1
EndSplineSet
EndChar

StartChar: B
Encoding: 66 66 33
Width: 1407
Flags: W
LayerCount: 2
Fore
SplineSet
150 1523 m 1,0,-1
 332 1522 l 2,1,2
 371 1522 371 1522 411 1524.5 c 128,-1,3
 451 1527 451 1527 494.5 1529.5 c 128,-1,4
 538 1532 538 1532 587.5 1534.5 c 128,-1,5
 637 1537 637 1537 695 1537 c 0,6,7
 849 1537 849 1537 958 1511.5 c 128,-1,8
 1067 1486 1067 1486 1136.5 1438 c 128,-1,9
 1206 1390 1206 1390 1238.5 1319.5 c 128,-1,10
 1271 1249 1271 1249 1271 1159 c 0,11,12
 1271 1103 1271 1103 1257.5 1047 c 128,-1,13
 1244 991 1244 991 1215 942 c 128,-1,14
 1186 893 1186 893 1140 856.5 c 128,-1,15
 1094 820 1094 820 1029 804 c 1,16,17
 1098 799 1098 799 1158 770.5 c 128,-1,18
 1218 742 1218 742 1263 696 c 128,-1,19
 1308 650 1308 650 1333.5 589.5 c 128,-1,20
 1359 529 1359 529 1359 461 c 0,21,22
 1359 357 1359 357 1328.5 269.5 c 128,-1,23
 1298 182 1298 182 1225.5 119 c 128,-1,24
 1153 56 1153 56 1031.5 21 c 128,-1,25
 910 -14 910 -14 727 -14 c 0,26,27
 674 -14 674 -14 618.5 -12.5 c 128,-1,28
 563 -11 563 -11 511.5 -9 c 128,-1,29
 460 -7 460 -7 415 -4.5 c 128,-1,30
 370 -2 370 -2 339 0 c 1,31,-1
 150 0 l 1,32,-1
 150 1523 l 1,0,-1
524 902 m 1,33,34
 536 899 536 899 554.5 897.5 c 128,-1,35
 573 896 573 896 592.5 895.5 c 128,-1,36
 612 895 612 895 631 894.5 c 128,-1,37
 650 894 650 894 662 894 c 0,38,39
 714 894 714 894 758.5 905.5 c 128,-1,40
 803 917 803 917 836 942.5 c 128,-1,41
 869 968 869 968 887.5 1009.5 c 128,-1,42
 906 1051 906 1051 906 1111 c 0,43,44
 906 1205 906 1205 839 1244 c 128,-1,45
 772 1283 772 1283 644 1283 c 0,46,47
 634 1283 634 1283 616.5 1282.5 c 128,-1,48
 599 1282 599 1282 580.5 1280.5 c 128,-1,49
 562 1279 562 1279 546 1276.5 c 128,-1,50
 530 1274 530 1274 524 1270 c 1,51,-1
 524 902 l 1,33,34
524 255 m 1,52,53
 533 248 533 248 552.5 243.5 c 128,-1,54
 572 239 572 239 595.5 236.5 c 128,-1,55
 619 234 619 234 644 233 c 128,-1,56
 669 232 669 232 691 232 c 0,57,58
 761 232 761 232 812.5 244.5 c 128,-1,59
 864 257 864 257 898 284 c 128,-1,60
 932 311 932 311 949 353.5 c 128,-1,61
 966 396 966 396 966 457 c 0,62,63
 966 507 966 507 950.5 545.5 c 128,-1,64
 935 584 935 584 901.5 609.5 c 128,-1,65
 868 635 868 635 814.5 648 c 128,-1,66
 761 661 761 661 685 661 c 0,67,68
 667 661 667 661 643 660.5 c 128,-1,69
 619 660 619 660 595.5 659 c 128,-1,70
 572 658 572 658 552.5 656.5 c 128,-1,71
 533 655 533 655 524 653 c 1,72,-1
 524 255 l 1,52,53
EndSplineSet
EndChar

StartChar: C
Encoding: 67 67 34
Width: 1325
Flags: W
LayerCount: 2
Fore
SplineSet
83 758 m 0,0,1
 83 951 83 951 141.5 1097 c 128,-1,2
 200 1243 200 1243 303 1341 c 128,-1,3
 406 1439 406 1439 546 1488.5 c 128,-1,4
 686 1538 686 1538 849 1538 c 0,5,6
 928 1538 928 1538 989.5 1531 c 128,-1,7
 1051 1524 1051 1524 1099.5 1514.5 c 128,-1,8
 1148 1505 1148 1505 1186.5 1494.5 c 128,-1,9
 1225 1484 1225 1484 1260 1477 c 1,10,-1
 1206 1151 l 1,11,12
 1189 1162 1189 1162 1164 1177 c 128,-1,13
 1139 1192 1139 1192 1101 1206 c 128,-1,14
 1063 1220 1063 1220 1011 1229.5 c 128,-1,15
 959 1239 959 1239 889 1239 c 0,16,17
 800 1239 800 1239 724 1210 c 128,-1,18
 648 1181 648 1181 592 1123.5 c 128,-1,19
 536 1066 536 1066 504 980.5 c 128,-1,20
 472 895 472 895 472 781 c 256,21,22
 472 667 472 667 499.5 574 c 128,-1,23
 527 481 527 481 581.5 414.5 c 128,-1,24
 636 348 636 348 717 311.5 c 128,-1,25
 798 275 798 275 906 275 c 0,26,27
 955 275 955 275 1006 284.5 c 128,-1,28
 1057 294 1057 294 1102 308 c 128,-1,29
 1147 322 1147 322 1183 339.5 c 128,-1,30
 1219 357 1219 357 1239 372 c 1,31,-1
 1239 64 l 1,32,33
 1207 51 1207 51 1169.5 37 c 128,-1,34
 1132 23 1132 23 1086.5 11 c 128,-1,35
 1041 -1 1041 -1 986 -8.5 c 128,-1,36
 931 -16 931 -16 864 -16 c 0,37,38
 676 -16 676 -16 530.5 39 c 128,-1,39
 385 94 385 94 285.5 195 c 128,-1,40
 186 296 186 296 134.5 439 c 128,-1,41
 83 582 83 582 83 758 c 0,0,1
EndSplineSet
EndChar

StartChar: D
Encoding: 68 68 35
Width: 1514
Flags: W
LayerCount: 2
Fore
SplineSet
150 1522 m 1,0,-1
 327 1522 l 2,1,2
 356 1522 356 1522 391.5 1524.5 c 128,-1,3
 427 1527 427 1527 472 1530 c 128,-1,4
 517 1533 517 1533 574 1535.5 c 128,-1,5
 631 1538 631 1538 703 1538 c 0,6,7
 896 1538 896 1538 1036.5 1488.5 c 128,-1,8
 1177 1439 1177 1439 1268.5 1344 c 128,-1,9
 1360 1249 1360 1249 1404 1111.5 c 128,-1,10
 1448 974 1448 974 1448 799 c 0,11,12
 1448 604 1448 604 1396 452 c 128,-1,13
 1344 300 1344 300 1245.5 195.5 c 128,-1,14
 1147 91 1147 91 1004 37 c 128,-1,15
 861 -17 861 -17 679 -16 c 0,16,17
 615 -16 615 -16 563.5 -13.5 c 128,-1,18
 512 -11 512 -11 470 -8 c 128,-1,19
 428 -5 428 -5 393.5 -2.5 c 128,-1,20
 359 0 359 0 330 0 c 2,21,-1
 150 0 l 1,22,-1
 150 1522 l 1,0,-1
529 283 m 1,23,24
 559 275 559 275 605.5 271.5 c 128,-1,25
 652 268 652 268 703 268 c 0,26,27
 784 269 784 269 849 297.5 c 128,-1,28
 914 326 914 326 959 386.5 c 128,-1,29
 1004 447 1004 447 1028.5 541 c 128,-1,30
 1053 635 1053 635 1053 766 c 0,31,32
 1053 904 1053 904 1031 998.5 c 128,-1,33
 1009 1093 1009 1093 964 1151 c 128,-1,34
 919 1209 919 1209 849.5 1234 c 128,-1,35
 780 1259 780 1259 685 1259 c 0,36,37
 665 1259 665 1259 643.5 1258 c 128,-1,38
 622 1257 622 1257 601 1255 c 128,-1,39
 580 1253 580 1253 561.5 1251 c 128,-1,40
 543 1249 543 1249 529 1247 c 1,41,-1
 529 283 l 1,23,24
EndSplineSet
EndChar

StartChar: E
Encoding: 69 69 36
Width: 1226
Flags: W
LayerCount: 2
Fore
SplineSet
150 1522 m 1,0,-1
 1104 1522 l 1,1,-1
 1104 1232 l 1,2,-1
 528 1232 l 1,3,-1
 528 916 l 1,4,-1
 969 916 l 1,5,-1
 969 637 l 1,6,-1
 528 637 l 1,7,-1
 528 300 l 1,8,-1
 1165 300 l 1,9,-1
 1165 0 l 1,10,-1
 150 0 l 1,11,-1
 150 1522 l 1,0,-1
EndSplineSet
EndChar

StartChar: F
Encoding: 70 70 37
Width: 1125
Flags: W
LayerCount: 2
Fore
SplineSet
150 1522 m 1,0,-1
 1097 1522 l 1,1,-1
 1097 1232 l 1,2,-1
 534 1232 l 1,3,-1
 534 876 l 1,4,-1
 955 876 l 1,5,-1
 955 597 l 1,6,-1
 534 597 l 1,7,-1
 534 0 l 1,8,-1
 150 0 l 1,9,-1
 150 1522 l 1,0,-1
EndSplineSet
EndChar

StartChar: G
Encoding: 71 71 38
Width: 1464
Flags: W
LayerCount: 2
Fore
SplineSet
83 753 m 0,0,1
 83 963 83 963 143.5 1112 c 128,-1,2
 204 1261 204 1261 309.5 1355.5 c 128,-1,3
 415 1450 415 1450 557.5 1494 c 128,-1,4
 700 1538 700 1538 864 1538 c 0,5,6
 947 1538 947 1538 1008.5 1532 c 128,-1,7
 1070 1526 1070 1526 1119 1517 c 128,-1,8
 1168 1508 1168 1508 1209.5 1497.5 c 128,-1,9
 1251 1487 1251 1487 1295 1478 c 1,10,-1
 1285 1161 l 1,11,12
 1254 1177 1254 1177 1215 1191.5 c 128,-1,13
 1176 1206 1176 1206 1126.5 1217 c 128,-1,14
 1077 1228 1077 1228 1015 1234.5 c 128,-1,15
 953 1241 953 1241 877 1241 c 0,16,17
 779 1241 779 1241 702.5 1209.5 c 128,-1,18
 626 1178 626 1178 574 1118.5 c 128,-1,19
 522 1059 522 1059 495 973.5 c 128,-1,20
 468 888 468 888 468 780 c 0,21,22
 468 670 468 670 490 576.5 c 128,-1,23
 512 483 512 483 556 415 c 128,-1,24
 600 347 600 347 665 309 c 128,-1,25
 730 271 730 271 816 271 c 0,26,27
 896 271 896 271 945.5 279.5 c 128,-1,28
 995 288 995 288 1033 304 c 1,29,-1
 1033 589 l 1,30,-1
 811 599 l 1,31,-1
 811 850 l 1,32,-1
 1376 850 l 1,33,-1
 1376 87 l 1,34,35
 1341 85 1341 85 1297 68.5 c 128,-1,36
 1253 52 1253 52 1189.5 33.5 c 128,-1,37
 1126 15 1126 15 1037 -0.5 c 128,-1,38
 948 -16 948 -16 823 -16 c 0,39,40
 653 -16 653 -16 516 36 c 128,-1,41
 379 88 379 88 283 187 c 128,-1,42
 187 286 187 286 135 429 c 128,-1,43
 83 572 83 572 83 753 c 0,0,1
EndSplineSet
EndChar

StartChar: H
Encoding: 72 72 39
Width: 1572
Flags: W
LayerCount: 2
Fore
SplineSet
150 1522 m 1,0,-1
 529 1522 l 1,1,-1
 529 903 l 1,2,-1
 1043 903 l 1,3,-1
 1043 1522 l 1,4,-1
 1422 1522 l 1,5,-1
 1422 0 l 1,6,-1
 1043 0 l 1,7,-1
 1043 633 l 1,8,-1
 529 633 l 1,9,-1
 529 0 l 1,10,-1
 150 0 l 1,11,-1
 150 1522 l 1,0,-1
EndSplineSet
EndChar

StartChar: I
Encoding: 73 73 40
Width: 700
Flags: W
LayerCount: 2
Fore
SplineSet
160 1522 m 1,0,-1
 540 1522 l 1,1,-1
 540 0 l 1,2,-1
 160 0 l 1,3,-1
 160 1522 l 1,0,-1
EndSplineSet
EndChar

StartChar: J
Encoding: 74 74 41
Width: 763
Flags: W
LayerCount: 2
Fore
SplineSet
-57 -143 m 1,0,1
 -20 -128 -20 -128 16 -108 c 128,-1,2
 52 -88 52 -88 83.5 -58 c 128,-1,3
 115 -28 115 -28 140.5 13.5 c 128,-1,4
 166 55 166 55 182 111 c 0,5,6
 193 151 193 151 199.5 198.5 c 128,-1,7
 206 246 206 246 209 305 c 128,-1,8
 212 364 212 364 213 438.5 c 128,-1,9
 214 513 214 513 214 608 c 2,10,-1
 214 1522 l 1,11,-1
 594 1522 l 1,12,-1
 594 613 l 2,13,14
 594 538 594 538 595 468 c 128,-1,15
 596 398 596 398 595.5 333 c 128,-1,16
 595 268 595 268 590.5 208 c 128,-1,17
 586 148 586 148 575 94 c 0,18,19
 561 20 561 20 526.5 -40.5 c 128,-1,20
 492 -101 492 -101 445 -149 c 128,-1,21
 398 -197 398 -197 342.5 -232 c 128,-1,22
 287 -267 287 -267 231 -290 c 128,-1,23
 175 -313 175 -313 121.5 -323.5 c 128,-1,24
 68 -334 68 -334 25 -332 c 1,25,-1
 -57 -143 l 1,26,-1
 -57 -143 l 1,0,1
EndSplineSet
EndChar

StartChar: K
Encoding: 75 75 42
Width: 1417
Flags: W
LayerCount: 2
Fore
SplineSet
150 1522 m 1,0,-1
 528 1522 l 1,1,-1
 528 871 l 1,2,-1
 1013 1522 l 1,3,-1
 1411 1522 l 1,4,-1
 911 861 l 1,5,6
 938 823 938 823 973 769 c 128,-1,7
 1008 715 1008 715 1047.5 651.5 c 128,-1,8
 1087 588 1087 588 1129.5 517.5 c 128,-1,9
 1172 447 1172 447 1214 376.5 c 128,-1,10
 1256 306 1256 306 1296 237.5 c 128,-1,11
 1336 169 1336 169 1371 110 c 2,12,-1
 1436 0 l 1,13,-1
 1019 0 l 1,14,15
 1006 20 1006 20 992.5 45 c 128,-1,16
 979 70 979 70 955 117 c 0,17,18
 888 245 888 245 819 357.5 c 128,-1,19
 750 470 750 470 679 574 c 1,20,-1
 528 394 l 1,21,-1
 528 0 l 1,22,-1
 150 0 l 1,23,-1
 150 1522 l 1,0,-1
EndSplineSet
EndChar

StartChar: L
Encoding: 76 76 43
Width: 1074
Flags: W
LayerCount: 2
Fore
SplineSet
150 1522 m 1,0,-1
 538 1522 l 1,1,-1
 538 280 l 1,2,-1
 1037 280 l 1,3,-1
 1037 0 l 1,4,-1
 150 0 l 1,5,-1
 150 1522 l 1,0,-1
EndSplineSet
EndChar

StartChar: M
Encoding: 77 77 44
Width: 1998
Flags: W
LayerCount: 2
Fore
SplineSet
249 1522 m 1,0,-1
 762 1522 l 1,1,-1
 908 938 l 1,2,-1
 1000 451 l 1,3,-1
 1098 938 l 1,4,-1
 1244 1522 l 1,5,-1
 1740 1522 l 1,6,-1
 1925 0 l 1,7,-1
 1565 0 l 1,8,-1
 1506 733 l 1,9,-1
 1473 1181 l 1,10,-1
 1378 733 l 1,11,-1
 1163 -15 l 1,12,-1
 838 -15 l 1,13,-1
 622 733 l 1,14,-1
 525 1181 l 1,15,-1
 492 733 l 1,16,-1
 443 0 l 1,17,-1
 77 -1 l 1,18,-1
 249 1522 l 1,0,-1
EndSplineSet
EndChar

StartChar: N
Encoding: 78 78 45
Width: 1590
Flags: W
LayerCount: 2
Fore
SplineSet
150 1522 m 1,0,-1
 513 1522 l 1,1,-1
 1031 681 l 1,2,-1
 1136 462 l 1,3,-1
 1093 843 l 1,4,-1
 1093 1522 l 1,5,-1
 1440 1522 l 1,6,-1
 1440 0 l 1,7,-1
 1057 0 l 1,8,-1
 557 820 l 1,9,-1
 449 1044 l 1,10,-1
 497 666 l 1,11,-1
 497 0 l 1,12,-1
 150 0 l 1,13,-1
 150 1522 l 1,0,-1
EndSplineSet
EndChar

StartChar: O
Encoding: 79 79 46
Width: 1582
Flags: W
LayerCount: 2
Fore
SplineSet
83 769 m 0,0,1
 87 971 87 971 142.5 1115 c 128,-1,2
 198 1259 198 1259 294.5 1351.5 c 128,-1,3
 391 1444 391 1444 524 1488.5 c 128,-1,4
 657 1533 657 1533 815 1538 c 1,5,6
 976 1542 976 1542 1104.5 1489.5 c 128,-1,7
 1233 1437 1233 1437 1321.5 1335.5 c 128,-1,8
 1410 1234 1410 1234 1456 1089 c 128,-1,9
 1502 944 1502 944 1499 763 c 0,10,11
 1495 561 1495 561 1441.5 415.5 c 128,-1,12
 1388 270 1388 270 1294 175 c 128,-1,13
 1200 80 1200 80 1070.5 33.5 c 128,-1,14
 941 -13 941 -13 785 -16 c 0,15,16
 617 -19 617 -19 485 35.5 c 128,-1,17
 353 90 353 90 262.5 192.5 c 128,-1,18
 172 295 172 295 126 441.5 c 128,-1,19
 80 588 80 588 83 769 c 0,0,1
792 265 m 0,20,21
 866 265 866 265 925.5 293 c 128,-1,22
 985 321 985 321 1026.5 381.5 c 128,-1,23
 1068 442 1068 442 1090.5 539 c 128,-1,24
 1113 636 1113 636 1113 774 c 0,25,26
 1113 881 1113 881 1094.5 968.5 c 128,-1,27
 1076 1056 1076 1056 1038 1118.5 c 128,-1,28
 1000 1181 1000 1181 942.5 1215 c 128,-1,29
 885 1249 885 1249 808 1249 c 0,30,31
 738 1249 738 1249 676.5 1225 c 128,-1,32
 615 1201 615 1201 569 1144 c 128,-1,33
 523 1087 523 1087 496.5 993 c 128,-1,34
 470 899 470 899 470 758 c 0,35,36
 470 649 470 649 489.5 558.5 c 128,-1,37
 509 468 509 468 549 402.5 c 128,-1,38
 589 337 589 337 649.5 301 c 128,-1,39
 710 265 710 265 792 265 c 0,20,21
EndSplineSet
EndChar

StartChar: P
Encoding: 80 80 47
Width: 1338
Flags: W
LayerCount: 2
Fore
SplineSet
150 1522 m 1,0,-1
 293 1522 l 2,1,2
 400 1522 400 1522 505 1530 c 128,-1,3
 610 1538 610 1538 723 1538 c 0,4,5
 860 1538 860 1538 968.5 1509.5 c 128,-1,6
 1077 1481 1077 1481 1152.5 1417.5 c 128,-1,7
 1228 1354 1228 1354 1268 1252 c 128,-1,8
 1308 1150 1308 1150 1308 1002 c 0,9,10
 1308 867 1308 867 1267.5 762.5 c 128,-1,11
 1227 658 1227 658 1148 587 c 128,-1,12
 1069 516 1069 516 952 479 c 128,-1,13
 835 442 835 442 682 442 c 0,14,15
 622 442 622 442 587.5 442.5 c 128,-1,16
 553 443 553 443 529 444 c 1,17,-1
 529 0 l 1,18,-1
 150 0 l 1,19,-1
 150 1522 l 1,0,-1
529 719 m 1,20,21
 561 715 561 715 598.5 713 c 128,-1,22
 636 711 636 711 682 711 c 0,23,24
 736 711 736 711 783 726.5 c 128,-1,25
 830 742 830 742 865 776.5 c 128,-1,26
 900 811 900 811 920 867 c 128,-1,27
 940 923 940 923 940 1004 c 0,28,29
 940 1067 940 1067 924 1117.5 c 128,-1,30
 908 1168 908 1168 875 1203.5 c 128,-1,31
 842 1239 842 1239 792 1257 c 128,-1,32
 742 1275 742 1275 675 1273 c 0,33,34
 639 1272 639 1272 600 1269.5 c 128,-1,35
 561 1267 561 1267 529 1261 c 1,36,-1
 529 719 l 1,20,21
EndSplineSet
EndChar

StartChar: Q
Encoding: 81 81 48
Width: 1582
Flags: W
LayerCount: 2
Fore
SplineSet
722 -15 m 1,0,1
 568 -8 568 -8 448 51 c 128,-1,2
 328 110 328 110 245.5 212 c 128,-1,3
 163 314 163 314 121.5 455.5 c 128,-1,4
 80 597 80 597 83 769 c 0,5,6
 87 971 87 971 142.5 1115 c 128,-1,7
 198 1259 198 1259 294.5 1351.5 c 128,-1,8
 391 1444 391 1444 524 1488.5 c 128,-1,9
 657 1533 657 1533 815 1538 c 1,10,11
 976 1542 976 1542 1104.5 1489.5 c 128,-1,12
 1233 1437 1233 1437 1321.5 1335.5 c 128,-1,13
 1410 1234 1410 1234 1456 1089 c 128,-1,14
 1502 944 1502 944 1499 763 c 0,15,16
 1496 602 1496 602 1461 477 c 128,-1,17
 1426 352 1426 352 1363.5 260 c 128,-1,18
 1301 168 1301 168 1214 108 c 128,-1,19
 1127 48 1127 48 1020 17 c 1,20,21
 1068 -33 1068 -33 1145.5 -52 c 128,-1,22
 1223 -71 1223 -71 1313 -71 c 0,23,24
 1335 -71 1335 -71 1366.5 -68.5 c 128,-1,25
 1398 -66 1398 -66 1430 -61.5 c 128,-1,26
 1462 -57 1462 -57 1490.5 -51.5 c 128,-1,27
 1519 -46 1519 -46 1535 -40 c 1,28,-1
 1535 -304 l 1,29,30
 1520 -313 1520 -313 1492 -321 c 128,-1,31
 1464 -329 1464 -329 1429.5 -335.5 c 128,-1,32
 1395 -342 1395 -342 1356.5 -346 c 128,-1,33
 1318 -350 1318 -350 1282 -350 c 0,34,35
 1187 -350 1187 -350 1101.5 -334.5 c 128,-1,36
 1016 -319 1016 -319 944 -281 c 128,-1,37
 872 -243 872 -243 815.5 -178 c 128,-1,38
 759 -113 759 -113 722 -15 c 1,0,1
792 265 m 0,39,40
 866 265 866 265 925.5 293 c 128,-1,41
 985 321 985 321 1026.5 381.5 c 128,-1,42
 1068 442 1068 442 1090.5 539 c 128,-1,43
 1113 636 1113 636 1113 774 c 0,44,45
 1113 881 1113 881 1094.5 968.5 c 128,-1,46
 1076 1056 1076 1056 1038 1118.5 c 128,-1,47
 1000 1181 1000 1181 942.5 1215 c 128,-1,48
 885 1249 885 1249 808 1249 c 0,49,50
 738 1249 738 1249 676.5 1225 c 128,-1,51
 615 1201 615 1201 569 1144 c 128,-1,52
 523 1087 523 1087 496.5 993 c 128,-1,53
 470 899 470 899 470 758 c 0,54,55
 470 649 470 649 489.5 558.5 c 128,-1,56
 509 468 509 468 549 402.5 c 128,-1,57
 589 337 589 337 649.5 301 c 128,-1,58
 710 265 710 265 792 265 c 0,39,40
EndSplineSet
EndChar

StartChar: R
Encoding: 82 82 49
Width: 1404
Flags: W
LayerCount: 2
Fore
SplineSet
150 1522 m 1,0,-1
 325 1522 l 2,1,2
 358 1522 358 1522 395.5 1524.5 c 128,-1,3
 433 1527 433 1527 481.5 1530 c 128,-1,4
 530 1533 530 1533 592 1535.5 c 128,-1,5
 654 1538 654 1538 736 1538 c 0,6,7
 804 1538 804 1538 872 1528.5 c 128,-1,8
 940 1519 940 1519 1003 1497 c 128,-1,9
 1066 1475 1066 1475 1120.5 1439 c 128,-1,10
 1175 1403 1175 1403 1215.5 1349 c 128,-1,11
 1256 1295 1256 1295 1279 1222 c 128,-1,12
 1302 1149 1302 1149 1302 1054 c 0,13,14
 1302 963 1302 963 1282.5 891.5 c 128,-1,15
 1263 820 1263 820 1227.5 766 c 128,-1,16
 1192 712 1192 712 1142 673.5 c 128,-1,17
 1092 635 1092 635 1031 611 c 1,18,19
 1084 581 1084 581 1123.5 525.5 c 128,-1,20
 1163 470 1163 470 1197.5 401.5 c 128,-1,21
 1232 333 1232 333 1265.5 257 c 128,-1,22
 1299 181 1299 181 1340 110 c 2,23,-1
 1403 0 l 1,24,-1
 988 0 l 1,25,26
 982 8 982 8 976.5 16.5 c 128,-1,27
 971 25 971 25 965 37 c 128,-1,28
 959 49 959 49 951.5 66 c 128,-1,29
 944 83 944 83 933 108 c 0,30,31
 912 154 912 154 893.5 204 c 128,-1,32
 875 254 875 254 857 302 c 128,-1,33
 839 350 839 350 820 394 c 128,-1,34
 801 438 801 438 779 471 c 128,-1,35
 757 504 757 504 731 523.5 c 128,-1,36
 705 543 705 543 673 544 c 1,37,38
 644 543 644 543 609 542.5 c 128,-1,39
 574 542 574 542 529 542 c 1,40,-1
 529 0 l 1,41,-1
 150 0 l 1,42,-1
 150 1522 l 1,0,-1
529 807 m 1,43,44
 544 805 544 805 566.5 803.5 c 128,-1,45
 589 802 589 802 614 801.5 c 128,-1,46
 639 801 639 801 663.5 800.5 c 128,-1,47
 688 800 688 800 707 800 c 0,48,49
 767 800 767 800 809.5 821.5 c 128,-1,50
 852 843 852 843 880 877.5 c 128,-1,51
 908 912 908 912 921 957.5 c 128,-1,52
 934 1003 934 1003 934 1051 c 0,53,54
 934 1094 934 1094 923.5 1133.5 c 128,-1,55
 913 1173 913 1173 885 1203 c 128,-1,56
 857 1233 857 1233 808 1250.5 c 128,-1,57
 759 1268 759 1268 683 1268 c 0,58,59
 641 1268 641 1268 602.5 1264 c 128,-1,60
 564 1260 564 1260 529 1250 c 1,61,-1
 529 807 l 1,43,44
EndSplineSet
EndChar

StartChar: S
Encoding: 83 83 50
Width: 1173
Flags: W
LayerCount: 2
Fore
SplineSet
145 368 m 1,0,1
 171 353 171 353 214 336 c 128,-1,2
 257 319 257 319 308.5 305 c 128,-1,3
 360 291 360 291 416 282 c 128,-1,4
 472 273 472 273 523 273 c 0,5,6
 628 273 628 273 689 304 c 128,-1,7
 750 335 750 335 750 405 c 0,8,9
 750 445 750 445 727.5 476 c 128,-1,10
 705 507 705 507 662 535 c 128,-1,11
 619 563 619 563 557 592 c 128,-1,12
 495 621 495 621 416 659 c 1,13,14
 328 700 328 700 266.5 751.5 c 128,-1,15
 205 803 205 803 166 862 c 128,-1,16
 127 921 127 921 109 987 c 128,-1,17
 91 1053 91 1053 91 1124 c 0,18,19
 91 1229 91 1229 133 1306.5 c 128,-1,20
 175 1384 175 1384 247.5 1435.5 c 128,-1,21
 320 1487 320 1487 418.5 1512.5 c 128,-1,22
 517 1538 517 1538 630 1538 c 0,23,24
 721 1538 721 1538 791.5 1529 c 128,-1,25
 862 1520 862 1520 914.5 1506.5 c 128,-1,26
 967 1493 967 1493 1002.5 1478 c 128,-1,27
 1038 1463 1038 1463 1059 1451 c 1,28,-1
 1002 1164 l 1,29,30
 979 1182 979 1182 944.5 1198 c 128,-1,31
 910 1214 910 1214 868.5 1226.5 c 128,-1,32
 827 1239 827 1239 779.5 1246 c 128,-1,33
 732 1253 732 1253 683 1253 c 0,34,35
 637 1253 637 1253 599 1245 c 128,-1,36
 561 1237 561 1237 533.5 1220.5 c 128,-1,37
 506 1204 506 1204 491 1180 c 128,-1,38
 476 1156 476 1156 476 1124 c 0,39,40
 476 1090 476 1090 489 1063 c 128,-1,41
 502 1036 502 1036 531 1011 c 128,-1,42
 560 986 560 986 608 960 c 128,-1,43
 656 934 656 934 726 903 c 0,44,45
 921 817 921 817 1024.5 704 c 128,-1,46
 1128 591 1128 591 1128 443 c 0,47,48
 1128 330 1128 330 1091.5 244 c 128,-1,49
 1055 158 1055 158 984.5 100.5 c 128,-1,50
 914 43 914 43 811 13.5 c 128,-1,51
 708 -16 708 -16 576 -16 c 0,52,53
 492 -16 492 -16 415 -6.5 c 128,-1,54
 338 3 338 3 274.5 17 c 128,-1,55
 211 31 211 31 165.5 47 c 128,-1,56
 120 63 120 63 99 77 c 1,57,-1
 145 368 l 1,0,1
EndSplineSet
EndChar

StartChar: T
Encoding: 84 84 51
Width: 1266
Flags: W
LayerCount: 2
Fore
SplineSet
441 1233 m 1,0,-1
 32 1233 l 1,1,-1
 32 1522 l 1,2,-1
 1229 1522 l 1,3,-1
 1229 1233 l 1,4,-1
 821 1233 l 1,5,-1
 821 0 l 1,6,-1
 441 0 l 1,7,-1
 441 1233 l 1,0,-1
EndSplineSet
EndChar

StartChar: U
Encoding: 85 85 52
Width: 1492
Flags: W
LayerCount: 2
Fore
SplineSet
113 1522 m 1,0,-1
 488 1522 l 1,1,-1
 485 686 l 2,2,3
 484 564 484 564 502 486.5 c 128,-1,4
 520 409 520 409 554.5 365 c 128,-1,5
 589 321 589 321 639 304 c 128,-1,6
 689 287 689 287 752 287 c 0,7,8
 814 287 814 287 862.5 305.5 c 128,-1,9
 911 324 911 324 944 369.5 c 128,-1,10
 977 415 977 415 994 492 c 128,-1,11
 1011 569 1011 569 1011 686 c 2,12,-1
 1011 1522 l 1,13,-1
 1382 1522 l 1,14,-1
 1382 644 l 2,15,16
 1382 488 1382 488 1342 365.5 c 128,-1,17
 1302 243 1302 243 1222 158.5 c 128,-1,18
 1142 74 1142 74 1021.5 29 c 128,-1,19
 901 -16 901 -16 740 -16 c 0,20,21
 564 -16 564 -16 443.5 31.5 c 128,-1,22
 323 79 323 79 248.5 166.5 c 128,-1,23
 174 254 174 254 142 377 c 128,-1,24
 110 500 110 500 110 651 c 2,25,-1
 113 1522 l 1,0,-1
EndSplineSet
EndChar

StartChar: V
Encoding: 86 86 53
Width: 1369
Flags: W
LayerCount: 2
Fore
SplineSet
-38 1522 m 1,0,-1
 362 1522 l 1,1,-1
 596 811 l 1,2,-1
 687 473 l 1,3,-1
 781 811 l 1,4,-1
 1007 1522 l 1,5,-1
 1407 1522 l 1,6,-1
 843 -1 l 1,7,-1
 525 -1 l 1,8,-1
 -38 1522 l 1,0,-1
EndSplineSet
EndChar

StartChar: W
Encoding: 87 87 54
Width: 1951
Flags: W
LayerCount: 2
Fore
SplineSet
-29 1522 m 1,0,-1
 364 1522 l 1,1,-1
 501 877 l 1,2,-1
 570 419 l 1,3,-1
 649 877 l 1,4,-1
 822 1522 l 1,5,-1
 1156 1522 l 1,6,-1
 1325 878 l 1,7,-1
 1414 421 l 1,8,-1
 1475 877 l 1,9,-1
 1607 1522 l 1,10,-1
 1981 1522 l 1,11,-1
 1592 -16 l 1,12,-1
 1209 -16 l 1,13,-1
 1027 713 l 1,14,-1
 976 997 l 1,15,-1
 922 712 l 1,16,-1
 721 -16 l 1,17,-1
 373 -16 l 1,18,-1
 -29 1522 l 1,0,-1
EndSplineSet
EndChar

StartChar: X
Encoding: 88 88 55
Width: 1338
Flags: W
LayerCount: 2
Fore
SplineSet
438 781 m 1,0,-1
 -3 1522 l 1,1,-1
 408 1523 l 1,2,-1
 687 1031 l 1,3,-1
 944 1522 l 1,4,-1
 1339 1522 l 1,5,-1
 898 756 l 1,6,-1
 1352 0 l 1,7,-1
 935 0 l 1,8,-1
 654 514 l 1,9,-1
 378 0 l 1,10,-1
 -11 0 l 1,11,-1
 438 781 l 1,0,-1
EndSplineSet
EndChar

StartChar: Y
Encoding: 89 89 56
Width: 1306
Flags: W
LayerCount: 2
Fore
SplineSet
467 538 m 1,0,-1
 -35 1522 l 1,1,-1
 382 1522 l 1,2,-1
 608 1019 l 1,3,-1
 663 866 l 1,4,-1
 718 1019 l 1,5,-1
 952 1522 l 1,6,-1
 1342 1522 l 1,7,-1
 846 535 l 1,8,-1
 846 0 l 1,9,-1
 467 0 l 1,10,-1
 467 538 l 1,0,-1
EndSplineSet
EndChar

StartChar: Z
Encoding: 90 90 57
Width: 1266
Flags: W
LayerCount: 2
Fore
SplineSet
42 84 m 1,0,-1
 659 1164 l 1,1,-1
 722 1250 l 1,2,-1
 121 1250 l 1,3,-1
 121 1522 l 1,4,-1
 1178 1522 l 1,5,-1
 1218 1441 l 1,6,-1
 614 383 l 1,7,-1
 540 280 l 1,8,-1
 1169 280 l 1,9,-1
 1169 0 l 1,10,-1
 84 0 l 1,11,-1
 42 84 l 1,0,-1
EndSplineSet
EndChar

StartChar: bracketleft
Encoding: 91 91 58
Width: 805
Flags: W
LayerCount: 2
Fore
SplineSet
126 1486 m 2,0,1
 126 1560 126 1560 135.5 1610 c 128,-1,2
 145 1660 145 1660 168.5 1691 c 128,-1,3
 192 1722 192 1722 230.5 1735 c 128,-1,4
 269 1748 269 1748 326 1748 c 0,5,6
 387 1748 387 1748 437 1745.5 c 128,-1,7
 487 1743 487 1743 531 1739.5 c 128,-1,8
 575 1736 575 1736 614.5 1732 c 128,-1,9
 654 1728 654 1728 695 1724 c 1,10,-1
 695 1544 l 1,11,-1
 443 1544 l 1,12,-1
 443 -13 l 1,13,-1
 695 -14 l 1,14,-1
 695 -185 l 1,15,16
 654 -190 654 -190 614.5 -195 c 128,-1,17
 575 -200 575 -200 531 -204 c 128,-1,18
 487 -208 487 -208 437 -210.5 c 128,-1,19
 387 -213 387 -213 326 -213 c 0,20,21
 268 -213 268 -213 229.5 -197 c 128,-1,22
 191 -181 191 -181 168 -147 c 128,-1,23
 145 -113 145 -113 135.5 -60 c 128,-1,24
 126 -7 126 -7 126 67 c 2,25,-1
 126 1486 l 2,0,1
EndSplineSet
EndChar

StartChar: asciicircum
Encoding: 94 94 61
Width: 1363
Flags: W
LayerCount: 2
Fore
SplineSet
562 1531 m 1,0,-1
 801 1531 l 1,1,-1
 1237 490 l 1,2,-1
 915 490 l 1,3,-1
 681 1083 l 1,4,-1
 452 490 l 1,5,-1
 127 490 l 1,6,-1
 562 1531 l 1,0,-1
EndSplineSet
EndChar

StartChar: underscore
Encoding: 95 95 62
Width: 1692
Flags: W
LayerCount: 2
Fore
SplineSet
1732 -234 m 1,0,-1
 1732 -408 l 1,1,-1
 -40 -408 l 1,2,-1
 -40 -234 l 1,3,-1
 1732 -234 l 1,0,-1
EndSplineSet
EndChar

StartChar: grave
Encoding: 96 96 63
Width: 691
Flags: W
LayerCount: 2
Fore
SplineSet
478 1225 m 1,0,1
 455 1236 455 1236 420 1260 c 128,-1,2
 385 1284 385 1284 344.5 1316.5 c 128,-1,3
 304 1349 304 1349 261.5 1388.5 c 128,-1,4
 219 1428 219 1428 180 1470 c 128,-1,5
 141 1512 141 1512 109.5 1554.5 c 128,-1,6
 78 1597 78 1597 61 1636 c 1,7,-1
 302 1823 l 1,8,9
 335 1771 335 1771 378 1708.5 c 128,-1,10
 421 1646 421 1646 467.5 1585.5 c 128,-1,11
 514 1525 514 1525 560 1471 c 128,-1,12
 606 1417 606 1417 645 1381 c 1,13,-1
 478 1225 l 1,14,-1
 478 1225 l 1,0,1
EndSplineSet
EndChar

StartChar: a
Encoding: 97 97 64
Width: 1188
Flags: W
LayerCount: 2
Fore
SplineSet
55 331 m 0,0,1
 55 434 55 434 110 510.5 c 128,-1,2
 165 587 165 587 262 630 c 1,3,4
 313 651 313 651 369 665 c 128,-1,5
 425 679 425 679 482.5 686.5 c 128,-1,6
 540 694 540 694 596.5 697 c 128,-1,7
 653 700 653 700 706 700 c 1,8,-1
 706 756 l 2,9,10
 706 791 706 791 696.5 816 c 128,-1,11
 687 841 687 841 664.5 857.5 c 128,-1,12
 642 874 642 874 605 882 c 128,-1,13
 568 890 568 890 512 890 c 0,14,15
 465 890 465 890 416.5 881.5 c 128,-1,16
 368 873 368 873 324.5 860.5 c 128,-1,17
 281 848 281 848 246.5 834 c 128,-1,18
 212 820 212 820 194 809 c 1,19,-1
 112 1035 l 1,20,21
 128 1046 128 1046 173 1067 c 128,-1,22
 218 1088 218 1088 284 1108.5 c 128,-1,23
 350 1129 350 1129 433.5 1144.5 c 128,-1,24
 517 1160 517 1160 611 1160 c 0,25,26
 731 1160 731 1160 817.5 1139.5 c 128,-1,27
 904 1119 904 1119 960.5 1068 c 128,-1,28
 1017 1017 1017 1017 1044 931 c 128,-1,29
 1071 845 1071 845 1071 714 c 2,30,-1
 1071 -16 l 1,31,-1
 844 -16 l 2,32,33
 815 -16 815 -16 793.5 -13.5 c 128,-1,34
 772 -11 772 -11 757 -1 c 128,-1,35
 742 9 742 9 734.5 30 c 128,-1,36
 727 51 727 51 727 88 c 2,37,-1
 727 96 l 1,38,39
 704 75 704 75 669.5 55 c 128,-1,40
 635 35 635 35 593.5 19 c 128,-1,41
 552 3 552 3 505 -6.5 c 128,-1,42
 458 -16 458 -16 410 -16 c 0,43,44
 331 -16 331 -16 266 6.5 c 128,-1,45
 201 29 201 29 154 73 c 128,-1,46
 107 117 107 117 81 181.5 c 128,-1,47
 55 246 55 246 55 331 c 0,0,1
415 353 m 0,48,49
 415 316 415 316 427 290 c 128,-1,50
 439 264 439 264 459.5 247.5 c 128,-1,51
 480 231 480 231 506 223 c 128,-1,52
 532 215 532 215 559 215 c 0,53,54
 581 215 581 215 604.5 219.5 c 128,-1,55
 628 224 628 224 648 231.5 c 128,-1,56
 668 239 668 239 683.5 248 c 128,-1,57
 699 257 699 257 706 266 c 1,58,-1
 706 520 l 1,59,60
 683 520 683 520 656.5 517.5 c 128,-1,61
 630 515 630 515 603.5 510.5 c 128,-1,62
 577 506 577 506 554 500 c 128,-1,63
 531 494 531 494 516 487 c 0,64,65
 498 479 498 479 480 469 c 128,-1,66
 462 459 462 459 447.5 443 c 128,-1,67
 433 427 433 427 424 405 c 128,-1,68
 415 383 415 383 415 353 c 0,48,49
EndSplineSet
Substitution2: "Single Substitution lookup 16 subtable" ordfeminine
Substitution2: "'aalt' Access All Alternates in Latin lookup 0 subtable" ordfeminine
EndChar

StartChar: b
Encoding: 98 98 65
Width: 1314
Flags: W
LayerCount: 2
Fore
SplineSet
122 1661 m 1,0,-1
 488 1661 l 1,1,-1
 488 1247 l 1,2,-1
 480 1040 l 1,3,4
 501 1059 501 1059 530 1079.5 c 128,-1,5
 559 1100 559 1100 598 1117 c 128,-1,6
 637 1134 637 1134 687.5 1145 c 128,-1,7
 738 1156 738 1156 801 1156 c 0,8,9
 892 1156 892 1156 974.5 1123 c 128,-1,10
 1057 1090 1057 1090 1119 1022.5 c 128,-1,11
 1181 955 1181 955 1218 853 c 128,-1,12
 1255 751 1255 751 1255 612 c 0,13,14
 1255 468 1255 468 1212 350.5 c 128,-1,15
 1169 233 1169 233 1089.5 150.5 c 128,-1,16
 1010 68 1010 68 898.5 23 c 128,-1,17
 787 -22 787 -22 650 -22 c 0,18,19
 561 -22 561 -22 472 -12 c 128,-1,20
 383 -2 383 -2 308.5 12 c 128,-1,21
 234 26 234 26 183.5 40.5 c 128,-1,22
 133 55 133 55 122 64 c 1,23,-1
 122 1661 l 1,0,-1
488 259 m 1,24,25
 505 241 505 241 544.5 232.5 c 128,-1,26
 584 224 584 224 645 224 c 0,27,28
 693 224 693 224 734.5 248.5 c 128,-1,29
 776 273 776 273 806.5 319.5 c 128,-1,30
 837 366 837 366 854.5 434 c 128,-1,31
 872 502 872 502 872 590 c 0,32,33
 872 676 872 676 858 733 c 128,-1,34
 844 790 844 790 818 823.5 c 128,-1,35
 792 857 792 857 756 871 c 128,-1,36
 720 885 720 885 677 885 c 0,37,38
 617 885 617 885 566.5 865.5 c 128,-1,39
 516 846 516 846 488 824 c 1,40,-1
 488 259 l 1,24,25
EndSplineSet
EndChar

StartChar: c
Encoding: 99 99 66
Width: 992
Flags: W
LayerCount: 2
Fore
SplineSet
58 559 m 0,0,1
 58 684 58 684 92.5 793 c 128,-1,2
 127 902 127 902 198 982.5 c 128,-1,3
 269 1063 269 1063 378.5 1109.5 c 128,-1,4
 488 1156 488 1156 637 1156 c 0,5,6
 694 1156 694 1156 745 1151 c 128,-1,7
 796 1146 796 1146 836.5 1137.5 c 128,-1,8
 877 1129 877 1129 906 1119 c 128,-1,9
 935 1109 935 1109 949 1099 c 1,10,-1
 908 825 l 1,11,12
 874 844 874 844 821 857.5 c 128,-1,13
 768 871 768 871 684 871 c 0,14,15
 639 871 639 871 594 857 c 128,-1,16
 549 843 549 843 512.5 809.5 c 128,-1,17
 476 776 476 776 452 721.5 c 128,-1,18
 428 667 428 667 427 586 c 0,19,20
 425 497 425 497 445 436 c 128,-1,21
 465 375 465 375 500 337 c 128,-1,22
 535 299 535 299 583 282 c 128,-1,23
 631 265 631 265 686 265 c 0,24,25
 760 265 760 265 822 277 c 128,-1,26
 884 289 884 289 920 306 c 1,27,-1
 965 100 l 1,28,29
 941 76 941 76 903 54.5 c 128,-1,30
 865 33 865 33 818 17.5 c 128,-1,31
 771 2 771 2 717 -7 c 128,-1,32
 663 -16 663 -16 608 -16 c 0,33,34
 467 -16 467 -16 363.5 27.5 c 128,-1,35
 260 71 260 71 192 148 c 128,-1,36
 124 225 124 225 91 330.5 c 128,-1,37
 58 436 58 436 58 559 c 0,0,1
EndSplineSet
EndChar

StartChar: d
Encoding: 100 100 67
Width: 1313
Flags: W
LayerCount: 2
Fore
SplineSet
513 -16 m 0,0,1
 422 -16 422 -16 339.5 17 c 128,-1,2
 257 50 257 50 194.5 117.5 c 128,-1,3
 132 185 132 185 95 287 c 128,-1,4
 58 389 58 389 58 528 c 0,5,6
 58 672 58 672 100 788.5 c 128,-1,7
 142 905 142 905 219 986.5 c 128,-1,8
 296 1068 296 1068 403.5 1112 c 128,-1,9
 511 1156 511 1156 642 1156 c 0,10,11
 702 1156 702 1156 748.5 1147.5 c 128,-1,12
 795 1139 795 1139 828 1128 c 1,13,-1
 825 1247 l 1,14,-1
 825 1661 l 1,15,-1
 1191 1661 l 1,16,-1
 1191 -16 l 1,17,-1
 913 -16 l 2,18,19
 856 -16 856 -16 856 39 c 2,20,-1
 856 119 l 1,21,22
 837 100 837 100 808 76.5 c 128,-1,23
 779 53 779 53 737 32.5 c 128,-1,24
 695 12 695 12 640 -2 c 128,-1,25
 585 -16 585 -16 513 -16 c 0,0,1
636 258 m 0,26,27
 663 258 663 258 690 262.5 c 128,-1,28
 717 267 717 267 742 274 c 128,-1,29
 767 281 767 281 788.5 290.5 c 128,-1,30
 810 300 810 300 825 310 c 1,31,-1
 825 872 l 1,32,33
 801 889 801 889 760 896.5 c 128,-1,34
 719 904 719 904 668 904 c 0,35,36
 618 904 618 904 577 881 c 128,-1,37
 536 858 536 858 506 812.5 c 128,-1,38
 476 767 476 767 459.5 700.5 c 128,-1,39
 443 634 443 634 442 547 c 0,40,41
 442 466 442 466 455.5 410.5 c 128,-1,42
 469 355 469 355 494 321 c 128,-1,43
 519 287 519 287 555 272.5 c 128,-1,44
 591 258 591 258 636 258 c 0,26,27
EndSplineSet
EndChar

StartChar: e
Encoding: 101 101 68
Width: 1166
Flags: W
LayerCount: 2
Fore
SplineSet
64 575 m 0,0,1
 64 699 64 699 102 805.5 c 128,-1,2
 140 912 140 912 212 990 c 128,-1,3
 284 1068 284 1068 389 1112 c 128,-1,4
 494 1156 494 1156 629 1156 c 0,5,6
 719 1156 719 1156 804 1135 c 128,-1,7
 889 1114 889 1114 955 1061.5 c 128,-1,8
 1021 1009 1021 1009 1061 919.5 c 128,-1,9
 1101 830 1101 830 1102 694 c 0,10,11
 1102 631 1102 631 1099 578 c 128,-1,12
 1096 525 1096 525 1091 488 c 1,13,-1
 427 488 l 1,14,15
 434 423 434 423 456.5 377 c 128,-1,16
 479 331 479 331 515 302 c 128,-1,17
 551 273 551 273 600 259.5 c 128,-1,18
 649 246 649 246 711 246 c 0,19,20
 751 246 751 246 795.5 251 c 128,-1,21
 840 256 840 256 881.5 264 c 128,-1,22
 923 272 923 272 957.5 283 c 128,-1,23
 992 294 992 294 1013 305 c 1,24,-1
 1069 106 l 1,25,26
 1041 83 1041 83 996 61 c 128,-1,27
 951 39 951 39 893.5 22 c 128,-1,28
 836 5 836 5 768 -5.5 c 128,-1,29
 700 -16 700 -16 625 -16 c 0,30,31
 489 -16 489 -16 384.5 24.5 c 128,-1,32
 280 65 280 65 208.5 141 c 128,-1,33
 137 217 137 217 100.5 326.5 c 128,-1,34
 64 436 64 436 64 575 c 0,0,1
767 668 m 1,35,36
 774 792 774 792 740.5 850 c 128,-1,37
 707 908 707 908 621 908 c 0,38,39
 580 908 580 908 547.5 895.5 c 128,-1,40
 515 883 515 883 490.5 855 c 128,-1,41
 466 827 466 827 450.5 781 c 128,-1,42
 435 735 435 735 428 668 c 1,43,-1
 767 668 l 1,35,36
EndSplineSet
EndChar

StartChar: f
Encoding: 102 102 69
Width: 848
Flags: W
LayerCount: 2
Fore
SplineSet
202 896 m 1,0,-1
 53 896 l 1,1,-1
 53 1112 l 1,2,-1
 202 1140 l 1,3,-1
 202 1256 l 2,4,5
 202 1379 202 1379 241.5 1461.5 c 128,-1,6
 281 1544 281 1544 344 1593.5 c 128,-1,7
 407 1643 407 1643 485.5 1663.5 c 128,-1,8
 564 1684 564 1684 642 1684 c 0,9,10
 727 1684 727 1684 783.5 1675 c 128,-1,11
 840 1666 840 1666 860 1661 c 1,12,-1
 860 1410 l 1,13,14
 840 1420 840 1420 803.5 1427.5 c 128,-1,15
 767 1435 767 1435 713 1435 c 0,16,17
 648 1435 648 1435 607.5 1389.5 c 128,-1,18
 567 1344 567 1344 567 1244 c 2,19,-1
 567 1140 l 1,20,-1
 816 1140 l 1,21,-1
 816 896 l 1,22,-1
 567 896 l 1,23,-1
 567 0 l 1,24,-1
 202 0 l 1,25,-1
 202 896 l 1,0,-1
EndSplineSet
EndChar

StartChar: g
Encoding: 103 103 70
Width: 1284
Flags: W
LayerCount: 2
Fore
SplineSet
56 -170 m 0,0,1
 56 -95 56 -95 97.5 -39.5 c 128,-1,2
 139 16 139 16 219 50 c 1,3,4
 173 75 173 75 151 119.5 c 128,-1,5
 129 164 129 164 129 226 c 0,6,7
 129 257 129 257 139.5 290 c 128,-1,8
 150 323 150 323 171 354.5 c 128,-1,9
 192 386 192 386 224 414.5 c 128,-1,10
 256 443 256 443 299 466 c 1,11,12
 192 511 192 511 137.5 590.5 c 128,-1,13
 83 670 83 670 83 781 c 0,14,15
 83 969 83 969 213.5 1062 c 128,-1,16
 344 1155 344 1155 598 1156 c 0,17,18
 825 1156 825 1156 959 1075 c 1,19,20
 988 1101 988 1101 1038 1121 c 128,-1,21
 1088 1141 1088 1141 1151 1141 c 2,22,-1
 1284 1141 l 1,23,-1
 1284 891 l 1,24,-1
 1102 891 l 1,25,26
 1116 841 1116 841 1116 787 c 0,27,28
 1116 701 1116 701 1083.5 632 c 128,-1,29
 1051 563 1051 563 986.5 515 c 128,-1,30
 922 467 922 467 824.5 441 c 128,-1,31
 727 415 727 415 597 415 c 0,32,33
 534 415 534 415 479 421 c 1,34,35
 462 405 462 405 454.5 384 c 128,-1,36
 447 363 447 363 447 345 c 0,37,38
 447 304 447 304 479.5 284.5 c 128,-1,39
 512 265 512 265 585 265 c 2,40,-1
 813 265 l 2,41,42
 941 265 941 265 1024.5 237 c 128,-1,43
 1108 209 1108 209 1157 162.5 c 128,-1,44
 1206 116 1206 116 1225.5 54 c 128,-1,45
 1245 -8 1245 -8 1245 -75 c 0,46,47
 1245 -149 1245 -149 1220.5 -210.5 c 128,-1,48
 1196 -272 1196 -272 1153 -321 c 128,-1,49
 1110 -370 1110 -370 1051 -407 c 128,-1,50
 992 -444 992 -444 922 -468.5 c 128,-1,51
 852 -493 852 -493 774.5 -505 c 128,-1,52
 697 -517 697 -517 618 -516 c 0,53,54
 480 -515 480 -515 374.5 -489.5 c 128,-1,55
 269 -464 269 -464 198.5 -419 c 128,-1,56
 128 -374 128 -374 92 -310.5 c 128,-1,57
 56 -247 56 -247 56 -170 c 0,0,1
601 625 m 0,58,59
 640 625 640 625 672.5 633 c 128,-1,60
 705 641 705 641 728.5 659 c 128,-1,61
 752 677 752 677 765 707 c 128,-1,62
 778 737 778 737 778 781 c 0,63,64
 778 945 778 945 605 945 c 0,65,66
 566 945 566 945 533 937 c 128,-1,67
 500 929 500 929 476.5 910.5 c 128,-1,68
 453 892 453 892 440 860.5 c 128,-1,69
 427 829 427 829 427 782 c 0,70,71
 427 709 427 709 470 667 c 128,-1,72
 513 625 513 625 601 625 c 0,58,59
397 -105 m 0,73,74
 397 -143 397 -143 408 -179 c 128,-1,75
 419 -215 419 -215 446.5 -243 c 128,-1,76
 474 -271 474 -271 520.5 -288.5 c 128,-1,77
 567 -306 567 -306 638 -306 c 0,78,79
 689 -306 689 -306 735.5 -298 c 128,-1,80
 782 -290 782 -290 817 -271.5 c 128,-1,81
 852 -253 852 -253 872.5 -222 c 128,-1,82
 893 -191 893 -191 893 -145 c 0,83,84
 893 -111 893 -111 885.5 -86 c 128,-1,85
 878 -61 878 -61 854.5 -44 c 128,-1,86
 831 -27 831 -27 788 -18.5 c 128,-1,87
 745 -10 745 -10 674 -10 c 2,88,-1
 448 -10 l 2,89,90
 442 -10 442 -10 436.5 -9.5 c 128,-1,91
 431 -9 431 -9 425 -8 c 1,92,93
 413 -25 413 -25 405 -48 c 128,-1,94
 397 -71 397 -71 397 -105 c 0,73,74
EndSplineSet
EndChar

StartChar: h
Encoding: 104 104 71
Width: 1314
Flags: W
LayerCount: 2
Fore
SplineSet
125 1661 m 1,0,-1
 490 1661 l 1,1,-1
 490 1233 l 1,2,-1
 473 1021 l 1,3,4
 502 1045 502 1045 541 1069 c 128,-1,5
 580 1093 580 1093 624 1112.5 c 128,-1,6
 668 1132 668 1132 715.5 1144 c 128,-1,7
 763 1156 763 1156 809 1158 c 0,8,9
 902 1161 902 1161 973.5 1138.5 c 128,-1,10
 1045 1116 1045 1116 1093.5 1063.5 c 128,-1,11
 1142 1011 1142 1011 1167 925.5 c 128,-1,12
 1192 840 1192 840 1192 715 c 2,13,-1
 1192 0 l 1,14,-1
 826 0 l 1,15,-1
 826 637 l 2,16,17
 826 703 826 703 817.5 745.5 c 128,-1,18
 809 788 809 788 791 812.5 c 128,-1,19
 773 837 773 837 745.5 846.5 c 128,-1,20
 718 856 718 856 681 855 c 0,21,22
 664 855 664 855 640 851 c 128,-1,23
 616 847 616 847 589.5 837.5 c 128,-1,24
 563 828 563 828 537 813.5 c 128,-1,25
 511 799 511 799 490 778 c 1,26,-1
 490 0 l 1,27,-1
 125 0 l 1,28,-1
 125 1661 l 1,0,-1
EndSplineSet
EndChar

StartChar: dotlessi
Encoding: 305 305 73
Width: 634
Flags: W
LayerCount: 2
Fore
SplineSet
134 1139 m 1,0,-1
 500 1139 l 1,1,-1
 500 0 l 1,2,-1
 134 0 l 1,3,-1
 134 1139 l 1,0,-1
EndSplineSet
EndChar

StartChar: dotaccent
Encoding: 729 729 74
Width: 522
Flags: W
LayerCount: 2
Fore
SplineSet
254 1282 m 0,0,1
 210 1282 210 1282 172.5 1296 c 128,-1,2
 135 1310 135 1310 108 1335.5 c 128,-1,3
 81 1361 81 1361 65.5 1395.5 c 128,-1,4
 50 1430 50 1430 50 1472 c 256,5,6
 50 1514 50 1514 68 1550.5 c 128,-1,7
 86 1587 86 1587 116 1615 c 128,-1,8
 146 1643 146 1643 186 1659 c 128,-1,9
 226 1675 226 1675 270 1675 c 0,10,11
 315 1675 315 1675 352.5 1661.5 c 128,-1,12
 390 1648 390 1648 416.5 1623 c 128,-1,13
 443 1598 443 1598 457.5 1563.5 c 128,-1,14
 472 1529 472 1529 472 1487 c 256,15,16
 472 1445 472 1445 454.5 1408 c 128,-1,17
 437 1371 437 1371 407.5 1343 c 128,-1,18
 378 1315 378 1315 338.5 1298.5 c 128,-1,19
 299 1282 299 1282 254 1282 c 0,0,1
EndSplineSet
EndChar

StartChar: dotlessj
Encoding: 567 567 76
Width: 614
Flags: W
LayerCount: 2
Fore
SplineSet
136 1139 m 1,0,-1
 501 1139 l 1,1,-1
 501 82 l 2,2,3
 501 -85 501 -85 471 -197.5 c 128,-1,4
 441 -310 441 -310 384.5 -379 c 128,-1,5
 328 -448 328 -448 247.5 -477.5 c 128,-1,6
 167 -507 167 -507 66 -507 c 0,7,8
 41 -507 41 -507 12 -505.5 c 128,-1,9
 -17 -504 -17 -504 -44.5 -501 c 128,-1,10
 -72 -498 -72 -498 -94.5 -494.5 c 128,-1,11
 -117 -491 -117 -491 -129 -487 c 1,12,-1
 -129 -251 l 1,13,14
 -123 -254 -123 -254 -109 -258 c 128,-1,15
 -95 -262 -95 -262 -77.5 -265.5 c 128,-1,16
 -60 -269 -60 -269 -42.5 -271 c 128,-1,17
 -25 -273 -25 -273 -12 -273 c 0,18,19
 69 -273 69 -273 102.5 -207.5 c 128,-1,20
 136 -142 136 -142 136 2 c 2,21,-1
 136 1139 l 1,0,-1
EndSplineSet
EndChar

StartChar: k
Encoding: 107 107 77
Width: 1235
Flags: W
LayerCount: 2
Fore
SplineSet
123 1661 m 1,0,-1
 488 1661 l 1,1,-1
 488 1027 l 1,2,-1
 477 732 l 1,3,-1
 824 1140 l 1,4,-1
 1235 1140 l 1,5,-1
 834 704 l 1,6,-1
 1263 0 l 1,7,-1
 859 0 l 1,8,-1
 592 442 l 1,9,-1
 486 326 l 1,10,-1
 488 192 l 1,11,-1
 488 0 l 1,12,-1
 123 0 l 1,13,-1
 123 1661 l 1,0,-1
EndSplineSet
EndChar

StartChar: l
Encoding: 108 108 78
Width: 636
Flags: W
LayerCount: 2
Fore
SplineSet
135 1661 m 1,0,-1
 501 1661 l 1,1,-1
 501 0 l 1,2,-1
 135 0 l 1,3,-1
 135 1661 l 1,0,-1
EndSplineSet
EndChar

StartChar: m
Encoding: 109 109 79
Width: 1996
Flags: W
LayerCount: 2
Fore
SplineSet
125 1139 m 1,0,-1
 459 1139 l 1,1,-1
 468 1018 l 1,2,3
 495 1040 495 1040 536 1064 c 128,-1,4
 577 1088 577 1088 625 1108.5 c 128,-1,5
 673 1129 673 1129 725.5 1143 c 128,-1,6
 778 1157 778 1157 829 1159 c 0,7,8
 932 1163 932 1163 1003.5 1133 c 128,-1,9
 1075 1103 1075 1103 1119 1031 c 1,10,11
 1143 1049 1143 1049 1182.5 1071 c 128,-1,12
 1222 1093 1222 1093 1273 1112.5 c 128,-1,13
 1324 1132 1324 1132 1384 1145.5 c 128,-1,14
 1444 1159 1444 1159 1508 1159 c 0,15,16
 1593 1159 1593 1159 1661 1137 c 128,-1,17
 1729 1115 1729 1115 1776.5 1064 c 128,-1,18
 1824 1013 1824 1013 1849.5 928.5 c 128,-1,19
 1875 844 1875 844 1875 719 c 2,20,-1
 1875 0 l 1,21,-1
 1509 0 l 1,22,-1
 1509 626 l 2,23,24
 1509 689 1509 689 1503 734.5 c 128,-1,25
 1497 780 1497 780 1481.5 808.5 c 128,-1,26
 1466 837 1466 837 1439 850.5 c 128,-1,27
 1412 864 1412 864 1370 863 c 0,28,29
 1343 863 1343 863 1316.5 856 c 128,-1,30
 1290 849 1290 849 1265 838 c 128,-1,31
 1240 827 1240 827 1219 813 c 128,-1,32
 1198 799 1198 799 1182 786 c 1,33,34
 1183 768 1183 768 1183.5 750 c 128,-1,35
 1184 732 1184 732 1184 712 c 2,36,-1
 1184 0 l 1,37,-1
 820 0 l 1,38,-1
 820 624 l 2,39,40
 820 694 820 694 813 740 c 128,-1,41
 806 786 806 786 790 813.5 c 128,-1,42
 774 841 774 841 747.5 852 c 128,-1,43
 721 863 721 863 682 863 c 0,44,45
 664 863 664 863 640 858.5 c 128,-1,46
 616 854 616 854 590 844 c 128,-1,47
 564 834 564 834 538 818.5 c 128,-1,48
 512 803 512 803 491 781 c 1,49,-1
 491 0 l 1,50,-1
 125 0 l 1,51,-1
 125 1139 l 1,0,-1
EndSplineSet
EndChar

StartChar: n
Encoding: 110 110 80
Width: 1310
Flags: W
LayerCount: 2
Fore
SplineSet
125 1139 m 1,0,-1
 459 1139 l 1,1,-1
 468 1018 l 1,2,3
 497 1042 497 1042 537.5 1066 c 128,-1,4
 578 1090 578 1090 625 1110 c 128,-1,5
 672 1130 672 1130 724 1143 c 128,-1,6
 776 1156 776 1156 827 1158 c 0,7,8
 915 1161 915 1161 982.5 1140 c 128,-1,9
 1050 1119 1050 1119 1096 1067 c 128,-1,10
 1142 1015 1142 1015 1165 929 c 128,-1,11
 1188 843 1188 843 1188 718 c 2,12,-1
 1188 0 l 1,13,-1
 822 0 l 1,14,-1
 822 644 l 2,15,16
 822 707 822 707 815 749.5 c 128,-1,17
 808 792 808 792 792 817.5 c 128,-1,18
 776 843 776 843 749 853.5 c 128,-1,19
 722 864 722 864 683 863 c 0,20,21
 662 863 662 863 636.5 858 c 128,-1,22
 611 853 611 853 585.5 843.5 c 128,-1,23
 560 834 560 834 535.5 819.5 c 128,-1,24
 511 805 511 805 491 786 c 1,25,-1
 491 0 l 1,26,-1
 125 0 l 1,27,-1
 125 1139 l 1,0,-1
EndSplineSet
EndChar

StartChar: o
Encoding: 111 111 81
Width: 1276
Flags: W
LayerCount: 2
Fore
SplineSet
59 594 m 0,0,1
 62 731 62 731 106.5 836 c 128,-1,2
 151 941 151 941 229 1012 c 128,-1,3
 307 1083 307 1083 414 1119.5 c 128,-1,4
 521 1156 521 1156 649 1156 c 0,5,6
 808 1156 808 1156 917 1106.5 c 128,-1,7
 1026 1057 1026 1057 1093.5 973 c 128,-1,8
 1161 889 1161 889 1190 778.5 c 128,-1,9
 1219 668 1219 668 1217 546 c 0,10,11
 1215 409 1215 409 1170.5 304 c 128,-1,12
 1126 199 1126 199 1048 128 c 128,-1,13
 970 57 970 57 862.5 20.5 c 128,-1,14
 755 -16 755 -16 628 -16 c 0,15,16
 469 -16 469 -16 360 33.5 c 128,-1,17
 251 83 251 83 183.5 167 c 128,-1,18
 116 251 116 251 86.5 361.5 c 128,-1,19
 57 472 57 472 59 594 c 0,0,1
636 235 m 256,20,21
 691 235 691 235 729.5 256.5 c 128,-1,22
 768 278 768 278 792 319.5 c 128,-1,23
 816 361 816 361 826.5 422.5 c 128,-1,24
 837 484 837 484 837 564 c 0,25,26
 837 628 837 628 827 688.5 c 128,-1,27
 817 749 817 749 794.5 796.5 c 128,-1,28
 772 844 772 844 734.5 873.5 c 128,-1,29
 697 903 697 903 642 903 c 0,30,31
 586 903 586 903 547.5 881 c 128,-1,32
 509 859 509 859 485 818 c 128,-1,33
 461 777 461 777 450.5 717 c 128,-1,34
 440 657 440 657 440 582 c 0,35,36
 440 517 440 517 450 454.5 c 128,-1,37
 460 392 460 392 483 343.5 c 128,-1,38
 506 295 506 295 543.5 265 c 128,-1,39
 581 235 581 235 636 235 c 256,20,21
EndSplineSet
Substitution2: "Single Substitution lookup 16 subtable" ordmasculine
Substitution2: "'aalt' Access All Alternates in Latin lookup 0 subtable" ordmasculine
EndChar

StartChar: p
Encoding: 112 112 82
Width: 1314
Flags: W
LayerCount: 2
Fore
SplineSet
488 -139 m 1,0,-1
 488 -506 l 1,1,-1
 122 -506 l 1,2,-1
 122 1140 l 1,3,-1
 467 1140 l 1,4,-1
 467 1028 l 1,5,6
 486 1047 486 1047 515.5 1069.5 c 128,-1,7
 545 1092 545 1092 585.5 1111.5 c 128,-1,8
 626 1131 626 1131 679.5 1143.5 c 128,-1,9
 733 1156 733 1156 801 1156 c 0,10,11
 892 1156 892 1156 974.5 1123 c 128,-1,12
 1057 1090 1057 1090 1120 1022.5 c 128,-1,13
 1183 955 1183 955 1220 853 c 128,-1,14
 1257 751 1257 751 1257 612 c 0,15,16
 1257 468 1257 468 1214.5 351.5 c 128,-1,17
 1172 235 1172 235 1095 153.5 c 128,-1,18
 1018 72 1018 72 910.5 28 c 128,-1,19
 803 -16 803 -16 672 -16 c 0,20,21
 611 -16 611 -16 564 -7.5 c 128,-1,22
 517 1 517 1 484 12 c 1,23,-1
 488 -139 l 1,0,-1
488 272 m 1,24,25
 511 250 511 250 552.5 240.5 c 128,-1,26
 594 231 594 231 646 231 c 0,27,28
 695 231 695 231 736.5 254.5 c 128,-1,29
 778 278 778 278 808 323.5 c 128,-1,30
 838 369 838 369 855 436 c 128,-1,31
 872 503 872 503 872 590 c 0,32,33
 872 673 872 673 858.5 729.5 c 128,-1,34
 845 786 845 786 820 820.5 c 128,-1,35
 795 855 795 855 759 870 c 128,-1,36
 723 885 723 885 678 885 c 0,37,38
 650 885 650 885 622.5 880 c 128,-1,39
 595 875 595 875 570 866.5 c 128,-1,40
 545 858 545 858 524 847 c 128,-1,41
 503 836 503 836 488 824 c 1,42,-1
 488 272 l 1,24,25
EndSplineSet
EndChar

StartChar: q
Encoding: 113 113 83
Width: 1313
Flags: W
LayerCount: 2
Fore
SplineSet
513 -16 m 0,0,1
 422 -16 422 -16 339.5 17 c 128,-1,2
 257 50 257 50 194 117.5 c 128,-1,3
 131 185 131 185 94 287 c 128,-1,4
 57 389 57 389 57 528 c 0,5,6
 57 672 57 672 99.5 788.5 c 128,-1,7
 142 905 142 905 219 986.5 c 128,-1,8
 296 1068 296 1068 403.5 1112 c 128,-1,9
 511 1156 511 1156 642 1156 c 0,10,11
 683 1156 683 1156 723.5 1151.5 c 128,-1,12
 764 1147 764 1147 801 1140 c 128,-1,13
 838 1133 838 1133 870 1123.5 c 128,-1,14
 902 1114 902 1114 928 1104 c 1,15,-1
 1191 1140 l 1,16,-1
 1191 -506 l 1,17,-1
 825 -506 l 1,18,-1
 825 -139 l 1,19,-1
 830 96 l 1,20,21
 809 77 809 77 780 57.5 c 128,-1,22
 751 38 751 38 712 21.5 c 128,-1,23
 673 5 673 5 623.5 -5.5 c 128,-1,24
 574 -16 574 -16 513 -16 c 0,0,1
636 251 m 0,25,26
 663 251 663 251 690.5 256 c 128,-1,27
 718 261 718 261 742.5 269.5 c 128,-1,28
 767 278 767 278 788.5 288.5 c 128,-1,29
 810 299 810 299 825 311 c 1,30,-1
 825 863 l 1,31,32
 802 884 802 884 760.5 893.5 c 128,-1,33
 719 903 719 903 668 903 c 0,34,35
 618 903 618 903 577 880 c 128,-1,36
 536 857 536 857 506 812 c 128,-1,37
 476 767 476 767 459.5 700.5 c 128,-1,38
 443 634 443 634 442 547 c 0,39,40
 442 463 442 463 455.5 406.5 c 128,-1,41
 469 350 469 350 494 315.5 c 128,-1,42
 519 281 519 281 555 266 c 128,-1,43
 591 251 591 251 636 251 c 0,25,26
EndSplineSet
EndChar

StartChar: r
Encoding: 114 114 84
Width: 896
Flags: W
LayerCount: 2
Fore
SplineSet
123 1139 m 1,0,-1
 443 1139 l 1,1,-1
 458 959 l 1,2,3
 477 1001 477 1001 511 1037.5 c 128,-1,4
 545 1074 545 1074 589 1101 c 128,-1,5
 633 1128 633 1128 686 1143 c 128,-1,6
 739 1158 739 1158 797 1158 c 0,7,8
 820 1158 820 1158 840.5 1155 c 128,-1,9
 861 1152 861 1152 874 1144 c 1,10,-1
 874 784 l 1,11,12
 859 793 859 793 830.5 802.5 c 128,-1,13
 802 812 802 812 749 812 c 0,14,15
 699 812 699 812 658.5 801.5 c 128,-1,16
 618 791 618 791 586 775 c 128,-1,17
 554 759 554 759 530 740 c 128,-1,18
 506 721 506 721 488 704 c 1,19,-1
 488 0 l 1,20,-1
 123 0 l 1,21,-1
 123 1139 l 1,0,-1
EndSplineSet
EndChar

StartChar: s
Encoding: 115 115 85
Width: 1001
Flags: W
LayerCount: 2
Fore
SplineSet
100 332 m 1,0,1
 113 322 113 322 147 304.5 c 128,-1,2
 181 287 181 287 228.5 270.5 c 128,-1,3
 276 254 276 254 333 242 c 128,-1,4
 390 230 390 230 449 230 c 0,5,6
 523 229 523 229 560.5 246 c 128,-1,7
 598 263 598 263 598 306 c 0,8,9
 598 331 598 331 576.5 351 c 128,-1,10
 555 371 555 371 518.5 390 c 128,-1,11
 482 409 482 409 434 429 c 128,-1,12
 386 449 386 449 333 475 c 0,13,14
 270 505 270 505 221.5 540.5 c 128,-1,15
 173 576 173 576 140 619 c 128,-1,16
 107 662 107 662 90.5 713.5 c 128,-1,17
 74 765 74 765 74 827 c 0,18,19
 74 910 74 910 110.5 971.5 c 128,-1,20
 147 1033 147 1033 210 1074 c 128,-1,21
 273 1115 273 1115 358 1135.5 c 128,-1,22
 443 1156 443 1156 539 1156 c 0,23,24
 611 1156 611 1156 668.5 1149 c 128,-1,25
 726 1142 726 1142 770 1132 c 128,-1,26
 814 1122 814 1122 845 1109.5 c 128,-1,27
 876 1097 876 1097 895 1087 c 1,28,-1
 863 825 l 1,29,30
 847 838 847 838 820 852.5 c 128,-1,31
 793 867 793 867 758.5 879 c 128,-1,32
 724 891 724 891 683.5 898.5 c 128,-1,33
 643 906 643 906 600 906 c 0,34,35
 506 906 506 906 468.5 887.5 c 128,-1,36
 431 869 431 869 430 829 c 0,37,38
 430 805 430 805 447.5 785.5 c 128,-1,39
 465 766 465 766 496.5 749 c 128,-1,40
 528 732 528 732 569.5 715.5 c 128,-1,41
 611 699 611 699 659 680 c 0,42,43
 726 652 726 652 781 618 c 128,-1,44
 836 584 836 584 875 542 c 128,-1,45
 914 500 914 500 935.5 449.5 c 128,-1,46
 957 399 957 399 957 337 c 0,47,48
 957 245 957 245 924.5 178.5 c 128,-1,49
 892 112 892 112 831.5 68.5 c 128,-1,50
 771 25 771 25 685 4 c 128,-1,51
 599 -17 599 -17 492 -17 c 0,52,53
 426 -17 426 -17 361.5 -8.5 c 128,-1,54
 297 0 297 0 240 13.5 c 128,-1,55
 183 27 183 27 138.5 43.5 c 128,-1,56
 94 60 94 60 69 76 c 1,57,-1
 100 332 l 1,0,1
EndSplineSet
EndChar

StartChar: t
Encoding: 116 116 86
Width: 883
Flags: W
LayerCount: 2
Fore
SplineSet
168 896 m 1,0,-1
 36 896 l 1,1,-1
 36 1093 l 1,2,3
 73 1104 73 1104 104 1114 c 128,-1,4
 135 1124 135 1124 159.5 1137 c 128,-1,5
 184 1150 184 1150 202 1166.5 c 128,-1,6
 220 1183 220 1183 231 1207 c 0,7,8
 240 1225 240 1225 249.5 1248.5 c 128,-1,9
 259 1272 259 1272 269.5 1298 c 128,-1,10
 280 1324 280 1324 290.5 1350 c 128,-1,11
 301 1376 301 1376 311 1400 c 1,12,-1
 534 1400 l 1,13,-1
 534 1140 l 1,14,-1
 830 1140 l 1,15,-1
 830 896 l 1,16,-1
 534 896 l 1,17,-1
 534 488 l 2,18,19
 534 408 534 408 540 361.5 c 128,-1,20
 546 315 546 315 561 291.5 c 128,-1,21
 576 268 576 268 601 262 c 128,-1,22
 626 256 626 256 664 256 c 0,23,24
 683 256 683 256 707 260 c 128,-1,25
 731 264 731 264 754.5 270 c 128,-1,26
 778 276 778 276 799 284.5 c 128,-1,27
 820 293 820 293 832 302 c 1,28,-1
 875 100 l 1,29,30
 855 80 855 80 819.5 59.5 c 128,-1,31
 784 39 784 39 737.5 22 c 128,-1,32
 691 5 691 5 636.5 -5.5 c 128,-1,33
 582 -16 582 -16 524 -16 c 0,34,35
 417 -16 417 -16 348.5 7 c 128,-1,36
 280 30 280 30 239.5 75.5 c 128,-1,37
 199 121 199 121 183.5 190.5 c 128,-1,38
 168 260 168 260 168 353 c 2,39,-1
 168 896 l 1,0,-1
EndSplineSet
EndChar

StartChar: u
Encoding: 117 117 87
Width: 1297
Flags: W
LayerCount: 2
Fore
SplineSet
122 1140 m 1,0,-1
 488 1140 l 1,1,-1
 488 478 l 2,2,3
 488 411 488 411 497.5 368.5 c 128,-1,4
 507 326 507 326 525.5 302 c 128,-1,5
 544 278 544 278 572.5 269 c 128,-1,6
 601 260 601 260 640 260 c 0,7,8
 666 260 666 260 691.5 265.5 c 128,-1,9
 717 271 717 271 738.5 279 c 128,-1,10
 760 287 760 287 777.5 297 c 128,-1,11
 795 307 795 307 805 316 c 1,12,-1
 804 1140 l 1,13,-1
 1170 1140 l 1,14,-1
 1170 -16 l 1,15,-1
 908 -16 l 2,16,17
 873 -16 873 -16 855.5 -5.5 c 128,-1,18
 838 5 838 5 838 42 c 2,19,-1
 838 90 l 1,20,21
 808 67 808 67 767.5 47.5 c 128,-1,22
 727 28 727 28 682.5 14 c 128,-1,23
 638 0 638 0 592.5 -8 c 128,-1,24
 547 -16 547 -16 507 -16 c 0,25,26
 382 -16 382 -16 306.5 20.5 c 128,-1,27
 231 57 231 57 190 122.5 c 128,-1,28
 149 188 149 188 135.5 277.5 c 128,-1,29
 122 367 122 367 122 474 c 2,30,-1
 122 1140 l 1,0,-1
EndSplineSet
EndChar

StartChar: v
Encoding: 118 118 88
Width: 1145
Flags: W
LayerCount: 2
Fore
SplineSet
-30 1139 m 1,0,-1
 365 1139 l 1,1,-1
 514 637 l 1,2,-1
 581 356 l 1,3,-1
 645 637 l 1,4,-1
 790 1139 l 1,5,-1
 1175 1139 l 1,6,-1
 747 -16 l 1,7,-1
 399 -16 l 1,8,-1
 -30 1139 l 1,0,-1
EndSplineSet
EndChar

StartChar: w
Encoding: 119 119 89
Width: 1740
Flags: W
LayerCount: 2
Fore
SplineSet
-29 1139 m 1,0,-1
 330 1139 l 1,1,-1
 449 674 l 1,2,-1
 510 407 l 1,3,-1
 578 674 l 1,4,-1
 710 1139 l 1,5,-1
 1057 1139 l 1,6,-1
 1186 674 l 1,7,-1
 1251 399 l 1,8,-1
 1313 674 l 1,9,-1
 1424 1139 l 1,10,-1
 1769 1139 l 1,11,-1
 1403 -16 l 1,12,-1
 1073 -16 l 1,13,-1
 928 489 l 1,14,-1
 872 733 l 1,15,-1
 810 489 l 1,16,-1
 661 -16 l 1,17,-1
 329 -16 l 1,18,-1
 -29 1139 l 1,0,-1
EndSplineSet
EndChar

StartChar: x
Encoding: 120 120 90
Width: 1178
Flags: W
LayerCount: 2
Fore
SplineSet
382 575 m 1,0,-1
 -18 1140 l 1,1,-1
 395 1140 l 1,2,-1
 556 888 l 1,3,-1
 601 813 l 1,4,-1
 640 888 l 1,5,-1
 794 1140 l 1,6,-1
 1201 1140 l 1,7,-1
 797 582 l 1,8,-1
 1209 0 l 1,9,-1
 793 0 l 1,10,-1
 615 284 l 1,11,-1
 585 333 l 1,12,-1
 560 283 l 1,13,-1
 399 0 l 1,14,-1
 -20 0 l 1,15,-1
 382 575 l 1,0,-1
EndSplineSet
EndChar

StartChar: y
Encoding: 121 121 91
Width: 1160
Flags: W
LayerCount: 2
Fore
SplineSet
122 -204 m 1,0,1
 130 -207 130 -207 142.5 -209 c 128,-1,2
 155 -211 155 -211 169 -213 c 128,-1,3
 183 -215 183 -215 197.5 -216 c 128,-1,4
 212 -217 212 -217 224 -217 c 0,5,6
 242 -217 242 -217 278 -214.5 c 128,-1,7
 314 -212 314 -212 354.5 -192 c 128,-1,8
 395 -172 395 -172 434.5 -127.5 c 128,-1,9
 474 -83 474 -83 499 0 c 1,10,-1
 390 0 l 1,11,-1
 -27 1140 l 1,12,-1
 370 1140 l 1,13,-1
 522 631 l 1,14,-1
 600 348 l 1,15,-1
 668 631 l 1,16,-1
 798 1140 l 1,17,-1
 1192 1140 l 1,18,19
 1156 1031 1156 1031 1115 908 c 128,-1,20
 1074 785 1074 785 1033 662 c 128,-1,21
 992 539 992 539 954 423.5 c 128,-1,22
 916 308 916 308 885 214.5 c 128,-1,23
 854 121 854 121 832.5 56.5 c 128,-1,24
 811 -8 811 -8 804 -29 c 0,25,26
 769 -130 769 -130 729.5 -205 c 128,-1,27
 690 -280 690 -280 645.5 -333.5 c 128,-1,28
 601 -387 601 -387 552.5 -421.5 c 128,-1,29
 504 -456 504 -456 451 -476 c 1,30,31
 433 -484 433 -484 409 -489.5 c 128,-1,32
 385 -495 385 -495 359 -499 c 128,-1,33
 333 -503 333 -503 307.5 -505 c 128,-1,34
 282 -507 282 -507 261 -507 c 0,35,36
 250 -507 250 -507 228.5 -506 c 128,-1,37
 207 -505 207 -505 185 -503 c 128,-1,38
 163 -501 163 -501 144.5 -498.5 c 128,-1,39
 126 -496 126 -496 122 -493 c 1,40,-1
 122 -204 l 1,41,-1
 122 -204 l 1,0,1
EndSplineSet
EndChar

StartChar: z
Encoding: 122 122 92
Width: 1065
Flags: W
LayerCount: 2
Fore
SplineSet
31 83 m 1,0,-1
 494 801 l 1,1,-1
 550 884 l 1,2,-1
 94 884 l 1,3,-1
 100 1140 l 1,4,-1
 1000 1140 l 1,5,-1
 1035 1045 l 1,6,-1
 588 346 l 1,7,-1
 527 262 l 1,8,-1
 1010 262 l 1,9,-1
 1010 0 l 1,10,-1
 73 0 l 1,11,-1
 31 83 l 1,0,-1
EndSplineSet
EndChar

StartChar: braceleft
Encoding: 123 123 93
Width: 969
Flags: W
LayerCount: 2
Fore
SplineSet
306 531 m 2,0,1
 306 562 306 562 280 587 c 128,-1,2
 254 612 254 612 215 631 c 128,-1,3
 176 650 176 650 131 661.5 c 128,-1,4
 86 673 86 673 48 677 c 1,5,-1
 48 878 l 1,6,7
 86 882 86 882 131 892 c 128,-1,8
 176 902 176 902 215 919 c 128,-1,9
 254 936 254 936 280 959.5 c 128,-1,10
 306 983 306 983 306 1015 c 2,11,-1
 306 1486 l 2,12,13
 306 1560 306 1560 320.5 1612 c 128,-1,14
 335 1664 335 1664 364.5 1697 c 128,-1,15
 394 1730 394 1730 437.5 1745.5 c 128,-1,16
 481 1761 481 1761 539 1761 c 0,17,18
 580 1761 580 1761 623.5 1759 c 128,-1,19
 667 1757 667 1757 710 1753.5 c 128,-1,20
 753 1750 753 1750 792.5 1745.5 c 128,-1,21
 832 1741 832 1741 864 1737 c 1,22,-1
 864 1551 l 1,23,-1
 615 1551 l 1,24,-1
 615 1008 l 2,25,26
 615 973 615 973 605 946 c 128,-1,27
 595 919 595 919 578 898 c 0,28,29
 563 878 563 878 538.5 860.5 c 128,-1,30
 514 843 514 843 485 827.5 c 128,-1,31
 456 812 456 812 424.5 799 c 128,-1,32
 393 786 393 786 363 776 c 1,33,34
 392 766 392 766 423 753.5 c 128,-1,35
 454 741 454 741 482.5 726.5 c 128,-1,36
 511 712 511 712 535.5 695 c 128,-1,37
 560 678 560 678 577 659 c 0,38,39
 615 616 615 616 615 549 c 2,40,-1
 615 -12 l 1,41,-1
 864 -12 l 1,42,-1
 864 -185 l 1,43,44
 832 -194 832 -194 792.5 -200.5 c 128,-1,45
 753 -207 753 -207 710 -211.5 c 128,-1,46
 667 -216 667 -216 623.5 -218 c 128,-1,47
 580 -220 580 -220 539 -220 c 0,48,49
 423 -220 423 -220 364.5 -154 c 128,-1,50
 306 -88 306 -88 306 60 c 2,51,-1
 306 531 l 2,0,1
EndSplineSet
EndChar

StartChar: bar
Encoding: 124 124 94
Width: 855
Flags: W
LayerCount: 2
Fore
SplineSet
285 1780 m 1,0,-1
 570 1780 l 1,1,-1
 570 -186 l 1,2,-1
 285 -186 l 1,3,-1
 285 1780 l 1,0,-1
EndSplineSet
EndChar

StartChar: asciitilde
Encoding: 126 126 96
Width: 1438
Flags: W
LayerCount: 2
Fore
SplineSet
188 834 m 1,0,1
 196 862 196 862 225.5 901.5 c 128,-1,2
 255 941 255 941 300 978 c 128,-1,3
 345 1015 345 1015 404 1041 c 128,-1,4
 463 1067 463 1067 531 1067 c 0,5,6
 584 1067 584 1067 623.5 1055.5 c 128,-1,7
 663 1044 663 1044 695 1026.5 c 128,-1,8
 727 1009 727 1009 753.5 989 c 128,-1,9
 780 969 780 969 806.5 951.5 c 128,-1,10
 833 934 833 934 862 922.5 c 128,-1,11
 891 911 891 911 927 911 c 0,12,13
 964 911 964 911 993.5 921 c 128,-1,14
 1023 931 1023 931 1047 946.5 c 128,-1,15
 1071 962 1071 962 1090 980.5 c 128,-1,16
 1109 999 1109 999 1125 1015 c 1,17,-1
 1250 856 l 1,18,19
 1242 824 1242 824 1213 785.5 c 128,-1,20
 1184 747 1184 747 1139.5 713.5 c 128,-1,21
 1095 680 1095 680 1036.5 657 c 128,-1,22
 978 634 978 634 911 634 c 0,23,24
 859 634 859 634 821 645.5 c 128,-1,25
 783 657 783 657 753.5 675 c 128,-1,26
 724 693 724 693 699.5 713 c 128,-1,27
 675 733 675 733 649.5 751 c 128,-1,28
 624 769 624 769 594.5 780.5 c 128,-1,29
 565 792 565 792 526 792 c 0,30,31
 490 792 490 792 461 782 c 128,-1,32
 432 772 432 772 408.5 756.5 c 128,-1,33
 385 741 385 741 365.5 722.5 c 128,-1,34
 346 704 346 704 330 688 c 1,35,-1
 188 834 l 1,0,1
EndSplineSet
EndChar

StartChar: exclam
Encoding: 33 33 98
Width: 651
Flags: W
LayerCount: 2
Fore
SplineSet
127 1780 m 1,0,-1
 529 1780 l 1,1,-1
 489 586 l 1,2,-1
 179 586 l 1,3,-1
 127 1780 l 1,0,-1
113 187 m 256,4,5
 113 232 113 232 130 272.5 c 128,-1,6
 147 313 147 313 177 344.5 c 128,-1,7
 207 376 207 376 247.5 394.5 c 128,-1,8
 288 413 288 413 335 413 c 256,9,10
 382 413 382 413 419.5 397 c 128,-1,11
 457 381 457 381 483 353 c 128,-1,12
 509 325 509 325 523 287 c 128,-1,13
 537 249 537 249 537 204 c 256,14,15
 537 159 537 159 520.5 118 c 128,-1,16
 504 77 504 77 474.5 46 c 128,-1,17
 445 15 445 15 404.5 -3.5 c 128,-1,18
 364 -22 364 -22 317 -22 c 0,19,20
 272 -22 272 -22 234.5 -6 c 128,-1,21
 197 10 197 10 170 38 c 128,-1,22
 143 66 143 66 128 104 c 128,-1,23
 113 142 113 142 113 187 c 256,4,5
EndSplineSet
EndChar

StartChar: sterling
Encoding: 163 163 99
Width: 1554
Flags: W
LayerCount: 2
Fore
SplineSet
89 124 m 0,0,1
 89 167 89 167 112.5 201 c 128,-1,2
 136 235 136 235 174 258.5 c 128,-1,3
 212 282 212 282 259.5 295 c 128,-1,4
 307 308 307 308 355 310 c 1,5,6
 366 320 366 320 373 348 c 128,-1,7
 380 376 380 376 383.5 411 c 128,-1,8
 387 446 387 446 388.5 483 c 128,-1,9
 390 520 390 520 390 549 c 2,10,-1
 390 692 l 1,11,-1
 215 692 l 1,12,-1
 215 892 l 1,13,-1
 390 892 l 1,14,-1
 390 1027 l 2,15,16
 390 1138 390 1138 426.5 1232 c 128,-1,17
 463 1326 463 1326 534 1394 c 128,-1,18
 605 1462 605 1462 711 1500 c 128,-1,19
 817 1538 817 1538 955 1538 c 0,20,21
 1027 1538 1027 1538 1086 1528.5 c 128,-1,22
 1145 1519 1145 1519 1193 1504 c 128,-1,23
 1241 1489 1241 1489 1277.5 1471 c 128,-1,24
 1314 1453 1314 1453 1341 1436 c 1,25,-1
 1197 1175 l 1,26,27
 1182 1187 1182 1187 1159.5 1201.5 c 128,-1,28
 1137 1216 1137 1216 1108.5 1228 c 128,-1,29
 1080 1240 1080 1240 1047 1248 c 128,-1,30
 1014 1256 1014 1256 978 1256 c 0,31,32
 931 1256 931 1256 891 1248 c 128,-1,33
 851 1240 851 1240 822 1210.5 c 128,-1,34
 793 1181 793 1181 776 1124.5 c 128,-1,35
 759 1068 759 1068 759 971 c 2,36,-1
 759 892 l 1,37,-1
 1052 892 l 1,38,-1
 1052 692 l 1,39,-1
 759 692 l 1,40,-1
 759 571 l 2,41,42
 759 462 759 462 733.5 387.5 c 128,-1,43
 708 313 708 313 659 271 c 1,44,45
 694 263 694 263 727 254 c 128,-1,46
 760 245 760 245 794 237 c 128,-1,47
 828 229 828 229 865 224 c 128,-1,48
 902 219 902 219 946 219 c 0,49,50
 1055 219 1055 219 1103.5 259 c 128,-1,51
 1152 299 1152 299 1152 365 c 0,52,53
 1152 389 1152 389 1145.5 410.5 c 128,-1,54
 1139 432 1139 432 1129.5 449 c 128,-1,55
 1120 466 1120 466 1108 478.5 c 128,-1,56
 1096 491 1096 491 1085 498 c 1,57,-1
 1338 627 l 1,58,59
 1355 618 1355 618 1381.5 598 c 128,-1,60
 1408 578 1408 578 1432.5 545.5 c 128,-1,61
 1457 513 1457 513 1475 465.5 c 128,-1,62
 1493 418 1493 418 1493 353 c 0,63,64
 1493 272 1493 272 1465 204 c 128,-1,65
 1437 136 1437 136 1378.5 87.5 c 128,-1,66
 1320 39 1320 39 1230.5 11.5 c 128,-1,67
 1141 -16 1141 -16 1018 -16 c 0,68,69
 906 -16 906 -16 821.5 0 c 128,-1,70
 737 16 737 16 672 35 c 128,-1,71
 607 54 607 54 556 70 c 128,-1,72
 505 86 505 86 460 87 c 1,73,74
 445 71 445 71 421 54.5 c 128,-1,75
 397 38 397 38 368.5 24 c 128,-1,76
 340 10 340 10 308.5 1 c 128,-1,77
 277 -8 277 -8 247 -8 c 0,78,79
 221 -8 221 -8 193 -1.5 c 128,-1,80
 165 5 165 5 142 20.5 c 128,-1,81
 119 36 119 36 104 61 c 128,-1,82
 89 86 89 86 89 124 c 0,0,1
EndSplineSet
EndChar

StartChar: brokenbar
Encoding: 166 166 100
Width: 855
Flags: W
LayerCount: 2
Fore
SplineSet
285 1780 m 1,0,-1
 570 1780 l 1,1,-1
 570 972 l 1,2,-1
 285 972 l 1,3,-1
 285 1780 l 1,0,-1
285 607 m 1,4,-1
 570 607 l 1,5,-1
 570 -186 l 1,6,-1
 285 -186 l 1,7,-1
 285 607 l 1,4,-1
EndSplineSet
EndChar

StartChar: dieresis
Encoding: 168 168 101
Width: 1022
Flags: W
LayerCount: 2
Fore
SplineSet
761 1284 m 0,0,1
 719 1284 719 1284 684.5 1298 c 128,-1,2
 650 1312 650 1312 625.5 1337 c 128,-1,3
 601 1362 601 1362 587.5 1396.5 c 128,-1,4
 574 1431 574 1431 574 1472 c 256,5,6
 574 1513 574 1513 590 1550 c 128,-1,7
 606 1587 606 1587 634 1614.5 c 128,-1,8
 662 1642 662 1642 699 1658 c 128,-1,9
 736 1674 736 1674 778 1674 c 0,10,11
 821 1674 821 1674 855.5 1660 c 128,-1,12
 890 1646 890 1646 913.5 1621.5 c 128,-1,13
 937 1597 937 1597 949.5 1562.5 c 128,-1,14
 962 1528 962 1528 962 1487 c 256,15,16
 962 1446 962 1446 946.5 1409 c 128,-1,17
 931 1372 931 1372 904 1344 c 128,-1,18
 877 1316 877 1316 840.5 1300 c 128,-1,19
 804 1284 804 1284 761 1284 c 0,0,1
246 1284 m 0,20,21
 204 1284 204 1284 169.5 1298 c 128,-1,22
 135 1312 135 1312 111 1337 c 128,-1,23
 87 1362 87 1362 73.5 1396.5 c 128,-1,24
 60 1431 60 1431 60 1472 c 256,25,26
 60 1513 60 1513 76 1550 c 128,-1,27
 92 1587 92 1587 119.5 1614.5 c 128,-1,28
 147 1642 147 1642 184.5 1658 c 128,-1,29
 222 1674 222 1674 264 1674 c 0,30,31
 307 1674 307 1674 341 1660 c 128,-1,32
 375 1646 375 1646 399 1621.5 c 128,-1,33
 423 1597 423 1597 435.5 1562.5 c 128,-1,34
 448 1528 448 1528 448 1487 c 256,35,36
 448 1446 448 1446 432.5 1409 c 128,-1,37
 417 1372 417 1372 390 1344 c 128,-1,38
 363 1316 363 1316 326 1300 c 128,-1,39
 289 1284 289 1284 246 1284 c 0,20,21
EndSplineSet
EndChar

StartChar: copyright
Encoding: 169 169 102
Width: 2083
Flags: W
LayerCount: 2
Fore
SplineSet
1041 243 m 256,0,1
 920 243 920 243 808 274.5 c 128,-1,2
 696 306 696 306 599.5 363 c 128,-1,3
 503 420 503 420 424 500.5 c 128,-1,4
 345 581 345 581 288.5 678.5 c 128,-1,5
 232 776 232 776 201.5 888.5 c 128,-1,6
 171 1001 171 1001 171 1123 c 0,7,8
 171 1244 171 1244 201.5 1356.5 c 128,-1,9
 232 1469 232 1469 288.5 1566 c 128,-1,10
 345 1663 345 1663 424 1742.5 c 128,-1,11
 503 1822 503 1822 599.5 1879 c 128,-1,12
 696 1936 696 1936 807.5 1967 c 128,-1,13
 919 1998 919 1998 1041 1998 c 0,14,15
 1162 1998 1162 1998 1274 1967 c 128,-1,16
 1386 1936 1386 1936 1483 1879 c 128,-1,17
 1580 1822 1580 1822 1659 1742.5 c 128,-1,18
 1738 1663 1738 1663 1794 1566 c 128,-1,19
 1850 1469 1850 1469 1881 1356.5 c 128,-1,20
 1912 1244 1912 1244 1912 1123 c 0,21,22
 1912 1001 1912 1001 1881 888.5 c 128,-1,23
 1850 776 1850 776 1794 678.5 c 128,-1,24
 1738 581 1738 581 1659 500.5 c 128,-1,25
 1580 420 1580 420 1483 363 c 128,-1,26
 1386 306 1386 306 1274 274.5 c 128,-1,27
 1162 243 1162 243 1041 243 c 256,0,1
1041 372 m 256,28,29
 1146 372 1146 372 1240.5 399 c 128,-1,30
 1335 426 1335 426 1416 475 c 128,-1,31
 1497 524 1497 524 1562 592.5 c 128,-1,32
 1627 661 1627 661 1673 744.5 c 128,-1,33
 1719 828 1719 828 1744 923.5 c 128,-1,34
 1769 1019 1769 1019 1769 1123 c 0,35,36
 1769 1226 1769 1226 1744 1322 c 128,-1,37
 1719 1418 1719 1418 1673 1501 c 128,-1,38
 1627 1584 1627 1584 1562 1652.5 c 128,-1,39
 1497 1721 1497 1721 1416 1769.5 c 128,-1,40
 1335 1818 1335 1818 1240.5 1845 c 128,-1,41
 1146 1872 1146 1872 1041 1872 c 256,42,43
 936 1872 936 1872 841.5 1845 c 128,-1,44
 747 1818 747 1818 666 1769.5 c 128,-1,45
 585 1721 585 1721 520 1652.5 c 128,-1,46
 455 1584 455 1584 409 1501 c 128,-1,47
 363 1418 363 1418 338 1322 c 128,-1,48
 313 1226 313 1226 313 1123 c 256,49,50
 313 1020 313 1020 338 924 c 128,-1,51
 363 828 363 828 409 744.5 c 128,-1,52
 455 661 455 661 520 592.5 c 128,-1,53
 585 524 585 524 666 475 c 128,-1,54
 747 426 747 426 841.5 399 c 128,-1,55
 936 372 936 372 1041 372 c 256,28,29
1046 631 m 0,56,57
 943 631 943 631 860 670 c 128,-1,58
 777 709 777 709 718 775 c 128,-1,59
 659 841 659 841 627 928.5 c 128,-1,60
 595 1016 595 1016 595 1113 c 0,61,62
 594 1219 594 1219 626 1311 c 128,-1,63
 658 1403 658 1403 720.5 1470.5 c 128,-1,64
 783 1538 783 1538 875.5 1576.5 c 128,-1,65
 968 1615 968 1615 1090 1615 c 0,66,67
 1132 1615 1132 1615 1171.5 1610 c 128,-1,68
 1211 1605 1211 1605 1244 1597 c 128,-1,69
 1277 1589 1277 1589 1303 1579.5 c 128,-1,70
 1329 1570 1329 1570 1344 1561 c 1,71,-1
 1306 1355 l 1,72,73
 1290 1367 1290 1367 1266.5 1377 c 128,-1,74
 1243 1387 1243 1387 1214.5 1394.5 c 128,-1,75
 1186 1402 1186 1402 1154.5 1406 c 128,-1,76
 1123 1410 1123 1410 1093 1410 c 0,77,78
 1039 1410 1039 1410 993.5 1391.5 c 128,-1,79
 948 1373 948 1373 915 1339.5 c 128,-1,80
 882 1306 882 1306 863.5 1258.5 c 128,-1,81
 845 1211 845 1211 845 1153 c 0,82,83
 844 1069 844 1069 862.5 1010.5 c 128,-1,84
 881 952 881 952 914.5 914.5 c 128,-1,85
 948 877 948 877 994 860 c 128,-1,86
 1040 843 1040 843 1095 843 c 0,87,88
 1175 843 1175 843 1233 864 c 128,-1,89
 1291 885 1291 885 1320 906 c 1,90,-1
 1365 735 l 1,91,92
 1342 715 1342 715 1308 696.5 c 128,-1,93
 1274 678 1274 678 1232.5 663.5 c 128,-1,94
 1191 649 1191 649 1143.5 640 c 128,-1,95
 1096 631 1096 631 1046 631 c 0,56,57
EndSplineSet
EndChar

StartChar: guilsinglleft
Encoding: 8249 8249 104
Width: 1204
Flags: W
LayerCount: 2
Fore
SplineSet
218 755 m 1,0,-1
 882 1172 l 1,1,-1
 967 923 l 1,2,-1
 567 615 l 1,3,-1
 967 307 l 1,4,-1
 882 58 l 1,5,-1
 218 475 l 1,6,-1
 218 755 l 1,0,-1
EndSplineSet
EndChar

StartChar: registered
Encoding: 174 174 105
Width: 2083
Flags: W
LayerCount: 2
Fore
SplineSet
1041 243 m 256,0,1
 920 243 920 243 808 274.5 c 128,-1,2
 696 306 696 306 598.5 363 c 128,-1,3
 501 420 501 420 421.5 500 c 128,-1,4
 342 580 342 580 285.5 677.5 c 128,-1,5
 229 775 229 775 198 887.5 c 128,-1,6
 167 1000 167 1000 167 1122 c 0,7,8
 167 1243 167 1243 198 1355.5 c 128,-1,9
 229 1468 229 1468 285.5 1565 c 128,-1,10
 342 1662 342 1662 421.5 1742 c 128,-1,11
 501 1822 501 1822 598.5 1879 c 128,-1,12
 696 1936 696 1936 807.5 1967 c 128,-1,13
 919 1998 919 1998 1041 1998 c 0,14,15
 1162 1998 1162 1998 1274.5 1967 c 128,-1,16
 1387 1936 1387 1936 1484 1879 c 128,-1,17
 1581 1822 1581 1822 1660.5 1742 c 128,-1,18
 1740 1662 1740 1662 1797 1565 c 128,-1,19
 1854 1468 1854 1468 1885 1355.5 c 128,-1,20
 1916 1243 1916 1243 1916 1122 c 0,21,22
 1916 1000 1916 1000 1885 887.5 c 128,-1,23
 1854 775 1854 775 1797 677.5 c 128,-1,24
 1740 580 1740 580 1660.5 500 c 128,-1,25
 1581 420 1581 420 1484 363 c 128,-1,26
 1387 306 1387 306 1274.5 274.5 c 128,-1,27
 1162 243 1162 243 1041 243 c 256,0,1
1041 373 m 256,28,29
 1145 373 1145 373 1239.5 399.5 c 128,-1,30
 1334 426 1334 426 1415.5 475 c 128,-1,31
 1497 524 1497 524 1563 592.5 c 128,-1,32
 1629 661 1629 661 1675.5 744 c 128,-1,33
 1722 827 1722 827 1747.5 922.5 c 128,-1,34
 1773 1018 1773 1018 1773 1122 c 0,35,36
 1773 1225 1773 1225 1747.5 1320.5 c 128,-1,37
 1722 1416 1722 1416 1675.5 1499.5 c 128,-1,38
 1629 1583 1629 1583 1563 1651 c 128,-1,39
 1497 1719 1497 1719 1415.5 1768 c 128,-1,40
 1334 1817 1334 1817 1239.5 1843.5 c 128,-1,41
 1145 1870 1145 1870 1041 1870 c 256,42,43
 937 1870 937 1870 842.5 1843.5 c 128,-1,44
 748 1817 748 1817 666.5 1768 c 128,-1,45
 585 1719 585 1719 519 1651 c 128,-1,46
 453 1583 453 1583 406.5 1499.5 c 128,-1,47
 360 1416 360 1416 334.5 1320.5 c 128,-1,48
 309 1225 309 1225 309 1122 c 256,49,50
 309 1019 309 1019 334.5 923 c 128,-1,51
 360 827 360 827 406.5 744 c 128,-1,52
 453 661 453 661 519 592.5 c 128,-1,53
 585 524 585 524 666.5 475 c 128,-1,54
 748 426 748 426 842.5 399.5 c 128,-1,55
 937 373 937 373 1041 373 c 256,28,29
697 1609 m 1,56,-1
 793 1609 l 2,57,58
 824 1609 824 1609 851 1609.5 c 128,-1,59
 878 1610 878 1610 907.5 1611.5 c 128,-1,60
 937 1613 937 1613 972.5 1614 c 128,-1,61
 1008 1615 1008 1615 1057 1615 c 0,62,63
 1149 1615 1149 1615 1217.5 1594 c 128,-1,64
 1286 1573 1286 1573 1332 1536.5 c 128,-1,65
 1378 1500 1378 1500 1400.5 1449.5 c 128,-1,66
 1423 1399 1423 1399 1423 1339 c 0,67,68
 1423 1284 1423 1284 1413 1233 c 128,-1,69
 1403 1182 1403 1182 1380.5 1140 c 128,-1,70
 1358 1098 1358 1098 1321 1067 c 128,-1,71
 1284 1036 1284 1036 1229 1020 c 1,72,73
 1267 999 1267 999 1294 967 c 128,-1,74
 1321 935 1321 935 1342 898 c 128,-1,75
 1363 861 1363 861 1381.5 821.5 c 128,-1,76
 1400 782 1400 782 1421 746 c 0,77,78
 1434 723 1434 723 1447 702 c 128,-1,79
 1460 681 1460 681 1487 647 c 1,80,-1
 1233 647 l 1,81,82
 1217 664 1217 664 1207.5 685 c 128,-1,83
 1198 706 1198 706 1184 733 c 0,84,85
 1169 763 1169 763 1153.5 802 c 128,-1,86
 1138 841 1138 841 1118.5 879 c 128,-1,87
 1099 917 1099 917 1073.5 948.5 c 128,-1,88
 1048 980 1048 980 1012 995 c 1,89,90
 1007 995 1007 995 995.5 994.5 c 128,-1,91
 984 994 984 994 970 994 c 128,-1,92
 956 994 956 994 942.5 994 c 128,-1,93
 929 994 929 994 920 994 c 1,94,-1
 920 646 l 1,95,-1
 697 646 l 1,96,-1
 697 1609 l 1,56,-1
920 1157 m 1,97,98
 942 1152 942 1152 977.5 1151 c 128,-1,99
 1013 1150 1013 1150 1041 1150 c 0,100,101
 1116 1150 1116 1150 1157 1190 c 128,-1,102
 1198 1230 1198 1230 1198 1310 c 0,103,104
 1198 1378 1198 1378 1158 1414.5 c 128,-1,105
 1118 1451 1118 1451 1022 1450 c 0,106,107
 994 1450 994 1450 970.5 1449 c 128,-1,108
 947 1448 947 1448 920 1439 c 1,109,-1
 920 1157 l 1,97,98
EndSplineSet
EndChar

StartChar: macron
Encoding: 175 175 106
Width: 716
Flags: W
LayerCount: 2
Fore
SplineSet
50 1647 m 1,0,-1
 666 1647 l 1,1,-1
 666 1406 l 1,2,-1
 50 1406 l 1,3,-1
 50 1647 l 1,0,-1
EndSplineSet
EndChar

StartChar: degree
Encoding: 176 176 107
Width: 967
Flags: W
LayerCount: 2
Fore
SplineSet
483 909 m 0,0,1
 404 909 404 909 335.5 937.5 c 128,-1,2
 267 966 267 966 216.5 1016 c 128,-1,3
 166 1066 166 1066 137 1133.5 c 128,-1,4
 108 1201 108 1201 108 1278 c 0,5,6
 108 1356 108 1356 136.5 1423.5 c 128,-1,7
 165 1491 165 1491 215 1540.5 c 128,-1,8
 265 1590 265 1590 333.5 1618 c 128,-1,9
 402 1646 402 1646 483 1646 c 256,10,11
 564 1646 564 1646 632.5 1617.5 c 128,-1,12
 701 1589 701 1589 751.5 1539.5 c 128,-1,13
 802 1490 802 1490 830 1422.5 c 128,-1,14
 858 1355 858 1355 858 1278 c 0,15,16
 858 1199 858 1199 830.5 1131.5 c 128,-1,17
 803 1064 803 1064 753 1014.5 c 128,-1,18
 703 965 703 965 634 937 c 128,-1,19
 565 909 565 909 483 909 c 0,0,1
483 1106 m 0,20,21
 517 1106 517 1106 547.5 1118.5 c 128,-1,22
 578 1131 578 1131 600.5 1153.5 c 128,-1,23
 623 1176 623 1176 636 1207.5 c 128,-1,24
 649 1239 649 1239 649 1278 c 0,25,26
 649 1316 649 1316 635.5 1347.5 c 128,-1,27
 622 1379 622 1379 599.5 1401.5 c 128,-1,28
 577 1424 577 1424 546.5 1436.5 c 128,-1,29
 516 1449 516 1449 483 1449 c 0,30,31
 448 1449 448 1449 418 1437 c 128,-1,32
 388 1425 388 1425 366 1402.5 c 128,-1,33
 344 1380 344 1380 331 1348.5 c 128,-1,34
 318 1317 318 1317 318 1278 c 0,35,36
 318 1240 318 1240 331.5 1208 c 128,-1,37
 345 1176 345 1176 367.5 1153.5 c 128,-1,38
 390 1131 390 1131 420 1118.5 c 128,-1,39
 450 1106 450 1106 483 1106 c 0,20,21
EndSplineSet
EndChar

StartChar: plusminus
Encoding: 177 177 108
Width: 1393
Flags: W
LayerCount: 2
Fore
SplineSet
230 229 m 1,0,-1
 1150 229 l 1,1,-1
 1150 0 l 1,2,-1
 230 0 l 1,3,-1
 230 229 l 1,0,-1
558 444 m 1,4,-1
 564 647 l 1,5,-1
 404 642 l 1,6,-1
 187 642 l 1,7,-1
 187 909 l 1,8,-1
 404 909 l 1,9,-1
 564 904 l 1,10,-1
 558 1105 l 1,11,-1
 558 1307 l 1,12,-1
 834 1307 l 1,13,-1
 834 1105 l 1,14,-1
 828 904 l 1,15,-1
 984 909 l 1,16,-1
 1206 909 l 1,17,-1
 1206 642 l 1,18,-1
 984 642 l 1,19,-1
 828 647 l 1,20,-1
 834 444 l 1,21,-1
 834 248 l 1,22,-1
 558 248 l 1,23,-1
 558 444 l 1,4,-1
EndSplineSet
EndChar

StartChar: acute
Encoding: 180 180 109
Width: 690
Flags: W
LayerCount: 2
Fore
SplineSet
36 1395 m 1,0,1
 72 1431 72 1431 115.5 1480.5 c 128,-1,2
 159 1530 159 1530 205 1587 c 128,-1,3
 251 1644 251 1644 295 1704.5 c 128,-1,4
 339 1765 339 1765 375 1823 c 1,5,-1
 615 1636 l 1,6,7
 599 1598 599 1598 568.5 1557 c 128,-1,8
 538 1516 538 1516 500 1475.5 c 128,-1,9
 462 1435 462 1435 419.5 1397 c 128,-1,10
 377 1359 377 1359 337 1327.5 c 128,-1,11
 297 1296 297 1296 262.5 1273 c 128,-1,12
 228 1250 228 1250 206 1239 c 1,13,-1
 36 1395 l 1,0,1
EndSplineSet
EndChar

StartChar: paragraph
Encoding: 182 182 110
Width: 1380
Flags: W
LayerCount: 2
Fore
SplineSet
469 777 m 1,0,1
 374 777 374 777 294 804 c 128,-1,2
 214 831 214 831 156.5 888 c 128,-1,3
 99 945 99 945 67 1034 c 128,-1,4
 35 1123 35 1123 35 1248 c 0,5,6
 35 1357 35 1357 71 1443.5 c 128,-1,7
 107 1530 107 1530 181.5 1589 c 128,-1,8
 256 1648 256 1648 371 1679.5 c 128,-1,9
 486 1711 486 1711 644 1711 c 0,10,11
 698 1711 698 1711 771.5 1708 c 128,-1,12
 845 1705 845 1705 925 1701.5 c 128,-1,13
 1005 1698 1005 1698 1085 1695 c 128,-1,14
 1165 1692 1165 1692 1231 1691 c 1,15,-1
 1231 0 l 1,16,-1
 950 0 l 1,17,-1
 949 1498 l 1,18,-1
 749 1498 l 1,19,-1
 749 0 l 1,20,-1
 469 0 l 1,21,-1
 469 777 l 1,0,1
EndSplineSet
EndChar

StartChar: cedilla
Encoding: 184 184 112
Width: 522
Flags: W
LayerCount: 2
Fore
SplineSet
363 34 m 1,0,-1
 414 30 l 1,1,2
 431 15 431 15 443.5 -12.5 c 128,-1,3
 456 -40 456 -40 464.5 -74 c 128,-1,4
 473 -108 473 -108 476.5 -145 c 128,-1,5
 480 -182 480 -182 480 -216 c 0,6,7
 479 -281 479 -281 458 -327.5 c 128,-1,8
 437 -374 437 -374 401 -404.5 c 128,-1,9
 365 -435 365 -435 317.5 -449.5 c 128,-1,10
 270 -464 270 -464 216 -464 c 0,11,12
 193 -464 193 -464 164.5 -462 c 128,-1,13
 136 -460 136 -460 108.5 -456 c 128,-1,14
 81 -452 81 -452 59 -447 c 128,-1,15
 37 -442 37 -442 27 -436 c 1,16,-1
 49 -257 l 1,17,18
 62 -265 62 -265 81 -268 c 128,-1,19
 100 -271 100 -271 123 -271 c 0,20,21
 172 -271 172 -271 205.5 -233.5 c 128,-1,22
 239 -196 239 -196 241 -121 c 0,23,24
 242 -60 242 -60 231 -27 c 128,-1,25
 220 6 220 6 204 30 c 1,26,-1
 363 34 l 1,0,-1
EndSplineSet
EndChar

StartChar: multiply
Encoding: 215 215 115
Width: 1392
Flags: W
LayerCount: 2
Fore
SplineSet
146 381 m 1,0,-1
 542 774 l 1,1,-1
 146 1178 l 1,2,-1
 319 1349 l 1,3,-1
 697 933 l 1,4,-1
 1074 1349 l 1,5,-1
 1247 1178 l 1,6,-1
 851 777 l 1,7,-1
 1247 381 l 1,8,-1
 1074 208 l 1,9,-1
 697 611 l 1,10,-1
 319 208 l 1,11,-1
 146 381 l 1,0,-1
EndSplineSet
EndChar

StartChar: germandbls
Encoding: 223 223 116
Width: 1378
Flags: W
LayerCount: 2
Fore
SplineSet
165 900 m 1,0,-1
 30 900 l 1,1,-1
 30 1113 l 1,2,-1
 182 1150 l 1,3,4
 207 1265 207 1265 266 1346.5 c 128,-1,5
 325 1428 325 1428 408.5 1479.5 c 128,-1,6
 492 1531 492 1531 595.5 1555 c 128,-1,7
 699 1579 699 1579 814 1579 c 0,8,9
 923 1579 923 1579 1007.5 1555.5 c 128,-1,10
 1092 1532 1092 1532 1150.5 1490.5 c 128,-1,11
 1209 1449 1209 1449 1239.5 1393 c 128,-1,12
 1270 1337 1270 1337 1270 1271 c 0,13,14
 1270 1211 1270 1211 1252.5 1168 c 128,-1,15
 1235 1125 1235 1125 1209 1094 c 128,-1,16
 1183 1063 1183 1063 1153 1040 c 128,-1,17
 1123 1017 1123 1017 1097 996 c 128,-1,18
 1071 975 1071 975 1053.5 952.5 c 128,-1,19
 1036 930 1036 930 1036 900 c 0,20,21
 1036 868 1036 868 1059.5 838.5 c 128,-1,22
 1083 809 1083 809 1119 776 c 128,-1,23
 1155 743 1155 743 1196 704.5 c 128,-1,24
 1237 666 1237 666 1273 616 c 128,-1,25
 1309 566 1309 566 1332.5 502.5 c 128,-1,26
 1356 439 1356 439 1356 356 c 0,27,28
 1356 245 1356 245 1318 173 c 128,-1,29
 1280 101 1280 101 1218 59 c 128,-1,30
 1156 17 1156 17 1076.5 0.5 c 128,-1,31
 997 -16 997 -16 914 -16 c 0,32,33
 873 -16 873 -16 835 -13 c 128,-1,34
 797 -10 797 -10 765 -4.5 c 128,-1,35
 733 1 733 1 709.5 7.5 c 128,-1,36
 686 14 686 14 675 20 c 1,37,-1
 675 264 l 1,38,39
 682 259 682 259 697 253 c 128,-1,40
 712 247 712 247 732 241 c 128,-1,41
 752 235 752 235 775.5 231 c 128,-1,42
 799 227 799 227 823 227 c 0,43,44
 848 227 848 227 873.5 232.5 c 128,-1,45
 899 238 899 238 919.5 251.5 c 128,-1,46
 940 265 940 265 952.5 288.5 c 128,-1,47
 965 312 965 312 965 348 c 0,48,49
 965 396 965 396 946.5 434.5 c 128,-1,50
 928 473 928 473 900.5 507.5 c 128,-1,51
 873 542 873 542 840.5 576 c 128,-1,52
 808 610 808 610 780.5 648.5 c 128,-1,53
 753 687 753 687 734.5 733.5 c 128,-1,54
 716 780 716 780 716 841 c 0,55,56
 716 888 716 888 730 922 c 128,-1,57
 744 956 744 956 765.5 983.5 c 128,-1,58
 787 1011 787 1011 812 1035.5 c 128,-1,59
 837 1060 837 1060 858.5 1086 c 128,-1,60
 880 1112 880 1112 894 1143.5 c 128,-1,61
 908 1175 908 1175 908 1218 c 0,62,63
 908 1277 908 1277 871 1313 c 128,-1,64
 834 1349 834 1349 764 1349 c 0,65,66
 711 1349 711 1349 668.5 1329 c 128,-1,67
 626 1309 626 1309 596 1262.5 c 128,-1,68
 566 1216 566 1216 550 1140 c 128,-1,69
 534 1064 534 1064 534 953 c 2,70,-1
 534 0 l 1,71,-1
 165 0 l 1,72,-1
 165 900 l 1,0,-1
EndSplineSet
EndChar

StartChar: eth
Encoding: 240 240 117
Width: 1279
Flags: W
LayerCount: 2
Fore
SplineSet
58 558 m 256,0,1
 58 687 58 687 92.5 795.5 c 128,-1,2
 127 904 127 904 193.5 982.5 c 128,-1,3
 260 1061 260 1061 358 1105 c 128,-1,4
 456 1149 456 1149 584 1149 c 0,5,6
 647 1149 647 1149 698 1135 c 128,-1,7
 749 1121 749 1121 787 1099 c 1,8,9
 754 1190 754 1190 692 1267 c 128,-1,10
 630 1344 630 1344 550 1406 c 1,11,-1
 436 1247 l 1,12,-1
 270 1357 l 1,13,-1
 391 1517 l 1,14,15
 344 1546 344 1546 292.5 1571 c 128,-1,16
 241 1596 241 1596 186 1613 c 1,17,-1
 249 1806 l 1,18,19
 332 1783 332 1783 397.5 1757 c 128,-1,20
 463 1731 463 1731 526 1697 c 1,21,22
 547 1726 547 1726 569 1758.5 c 128,-1,23
 591 1791 591 1791 609 1817 c 0,24,25
 630 1848 630 1848 651 1878 c 1,26,-1
 819 1767 l 1,27,28
 799 1740 799 1740 779 1713 c 0,29,30
 762 1690 762 1690 740.5 1661 c 128,-1,31
 719 1632 719 1632 698 1605 c 1,32,33
 957 1436 957 1436 1088.5 1198 c 128,-1,34
 1220 960 1220 960 1220 672 c 0,35,36
 1220 491 1220 491 1172.5 359.5 c 128,-1,37
 1125 228 1125 228 1044.5 142 c 128,-1,38
 964 56 964 56 857 14.5 c 128,-1,39
 750 -27 750 -27 632 -27 c 0,40,41
 500 -27 500 -27 394 16 c 128,-1,42
 288 59 288 59 213 136.5 c 128,-1,43
 138 214 138 214 98 321.5 c 128,-1,44
 58 429 58 429 58 558 c 256,0,1
642 227 m 0,45,46
 684 227 684 227 722 250 c 128,-1,47
 760 273 760 273 789 319 c 128,-1,48
 818 365 818 365 835 433 c 128,-1,49
 852 501 852 501 852 590 c 0,50,51
 852 612 852 612 852 643.5 c 128,-1,52
 852 675 852 675 851.5 708.5 c 128,-1,53
 851 742 851 742 850 772.5 c 128,-1,54
 849 803 849 803 848 822 c 1,55,56
 820 858 820 858 774.5 882 c 128,-1,57
 729 906 729 906 651 906 c 0,58,59
 555 906 555 906 499.5 814.5 c 128,-1,60
 444 723 444 723 444 537 c 0,61,62
 444 457 444 457 458.5 398.5 c 128,-1,63
 473 340 473 340 499.5 302 c 128,-1,64
 526 264 526 264 562 245.5 c 128,-1,65
 598 227 598 227 642 227 c 0,45,46
EndSplineSet
EndChar

StartChar: endash
Encoding: 8211 8211 118
Width: 1692
Flags: W
LayerCount: 2
Fore
SplineSet
240 903 m 1,0,-1
 1452 903 l 1,1,-1
 1452 628 l 1,2,-1
 240 628 l 1,3,-1
 240 903 l 1,0,-1
EndSplineSet
EndChar

StartChar: emdash
Encoding: 8212 8212 119
Width: 2403
Flags: W
LayerCount: 2
Fore
SplineSet
240 903 m 1,0,-1
 2163 903 l 1,1,-1
 2163 628 l 1,2,-1
 240 628 l 1,3,-1
 240 903 l 1,0,-1
EndSplineSet
EndChar

StartChar: quoteleft
Encoding: 8216 8216 120
Width: 598
Flags: W
LayerCount: 2
Fore
SplineSet
293 919 m 1,0,1
 259 931 259 931 223 962.5 c 128,-1,2
 187 994 187 994 157.5 1041.5 c 128,-1,3
 128 1089 128 1089 109 1152 c 128,-1,4
 90 1215 90 1215 90 1290 c 0,5,6
 90 1394 90 1394 115 1473 c 128,-1,7
 140 1552 140 1552 174.5 1609 c 128,-1,8
 209 1666 209 1666 245 1701.5 c 128,-1,9
 281 1737 281 1737 304 1754 c 1,10,-1
 462 1660 l 1,11,-1
 462 1631 l 1,12,13
 449 1615 449 1615 437 1589 c 128,-1,14
 425 1563 425 1563 416 1530 c 128,-1,15
 407 1497 407 1497 402 1458.5 c 128,-1,16
 397 1420 397 1420 397 1380 c 0,17,18
 397 1333 397 1333 406.5 1293.5 c 128,-1,19
 416 1254 416 1254 430.5 1224 c 128,-1,20
 445 1194 445 1194 462 1174 c 128,-1,21
 479 1154 479 1154 494 1146 c 1,22,-1
 494 1068 l 1,23,-1
 293 919 l 1,24,-1
 293 919 l 1,0,1
EndSplineSet
EndChar

StartChar: quoteright
Encoding: 8217 8217 121
Width: 598
Flags: W
LayerCount: 2
Fore
SplineSet
123 1013 m 1,0,-1
 123 1042 l 1,1,2
 136 1058 136 1058 147.5 1084 c 128,-1,3
 159 1110 159 1110 168 1143 c 128,-1,4
 177 1176 177 1176 182 1214.5 c 128,-1,5
 187 1253 187 1253 187 1294 c 0,6,7
 187 1340 187 1340 177.5 1379.5 c 128,-1,8
 168 1419 168 1419 153.5 1449 c 128,-1,9
 139 1479 139 1479 122 1499 c 128,-1,10
 105 1519 105 1519 90 1527 c 1,11,-1
 90 1605 l 1,12,-1
 295 1754 l 1,13,14
 329 1742 329 1742 364.5 1711.5 c 128,-1,15
 400 1681 400 1681 429 1634 c 128,-1,16
 458 1587 458 1587 476 1525 c 128,-1,17
 494 1463 494 1463 494 1387 c 0,18,19
 494 1283 494 1283 468.5 1203.5 c 128,-1,20
 443 1124 443 1124 408 1066 c 128,-1,21
 373 1008 373 1008 336.5 971.5 c 128,-1,22
 300 935 300 935 277 919 c 1,23,-1
 123 1013 l 1,0,-1
EndSplineSet
EndChar

StartChar: dagger
Encoding: 8224 8224 126
Width: 1026
Flags: W
LayerCount: 2
Fore
SplineSet
368 1045 m 1,0,-1
 89 1045 l 1,1,-1
 90 1288 l 1,2,-1
 368 1287 l 1,3,-1
 369 1658 l 1,4,-1
 657 1658 l 1,5,-1
 658 1287 l 1,6,-1
 937 1288 l 1,7,-1
 937 1045 l 1,8,-1
 658 1045 l 1,9,-1
 643 200 l 1,10,-1
 385 200 l 1,11,-1
 368 1045 l 1,0,-1
EndSplineSet
EndChar

StartChar: bullet
Encoding: 8226 8226 127
Width: 895
Flags: W
LayerCount: 2
Fore
SplineSet
438 443 m 256,0,1
 377 443 377 443 325 464 c 128,-1,2
 273 485 273 485 235.5 522.5 c 128,-1,3
 198 560 198 560 177 611 c 128,-1,4
 156 662 156 662 156 722 c 256,5,6
 156 782 156 782 181 835.5 c 128,-1,7
 206 889 206 889 247.5 930 c 128,-1,8
 289 971 289 971 344 995 c 128,-1,9
 399 1019 399 1019 460 1019 c 256,10,11
 521 1019 521 1019 572.5 998.5 c 128,-1,12
 624 978 624 978 661 941 c 128,-1,13
 698 904 698 904 718.5 853 c 128,-1,14
 739 802 739 802 739 741 c 0,15,16
 739 682 739 682 715 628 c 128,-1,17
 691 574 691 574 650 533 c 128,-1,18
 609 492 609 492 554 467.5 c 128,-1,19
 499 443 499 443 438 443 c 256,0,1
EndSplineSet
EndChar

StartChar: logicalnot
Encoding: 172 172 130
Width: 1470
Flags: W
LayerCount: 2
Fore
SplineSet
240 852 m 1,0,-1
 1230 852 l 1,1,-1
 1230 301 l 1,2,-1
 961 301 l 1,3,-1
 961 608 l 1,4,-1
 240 608 l 1,5,-1
 240 852 l 1,0,-1
EndSplineSet
EndChar

StartChar: yen
Encoding: 165 165 131
Width: 1532
Flags: W
LayerCount: 2
Fore
SplineSet
242 460 m 1,0,-1
 597 460 l 1,1,-1
 597 644 l 1,2,-1
 242 644 l 1,3,-1
 242 851 l 1,4,-1
 533 851 l 1,5,-1
 109 1522 l 1,6,-1
 499 1522 l 1,7,-1
 703 1164 l 1,8,-1
 776 1002 l 1,9,-1
 849 1164 l 1,10,-1
 1059 1522 l 1,11,-1
 1444 1522 l 1,12,-1
 1020 851 l 1,13,-1
 1280 851 l 1,14,-1
 1280 644 l 1,15,-1
 935 644 l 1,16,-1
 935 460 l 1,17,-1
 1280 460 l 1,18,-1
 1280 253 l 1,19,-1
 935 253 l 1,20,-1
 935 0 l 1,21,-1
 597 0 l 1,22,-1
 597 253 l 1,23,-1
 242 253 l 1,24,-1
 242 460 l 1,0,-1
EndSplineSet
EndChar

StartChar: divide
Encoding: 247 247 132
Width: 1407
Flags: W
LayerCount: 2
Fore
SplineSet
720 1029 m 0,0,1
 675 1029 675 1029 637.5 1044.5 c 128,-1,2
 600 1060 600 1060 573 1087.5 c 128,-1,3
 546 1115 546 1115 531 1153 c 128,-1,4
 516 1191 516 1191 516 1235 c 256,5,6
 516 1279 516 1279 533.5 1319 c 128,-1,7
 551 1359 551 1359 581 1389.5 c 128,-1,8
 611 1420 611 1420 651.5 1438 c 128,-1,9
 692 1456 692 1456 739 1456 c 256,10,11
 786 1456 786 1456 823 1440.5 c 128,-1,12
 860 1425 860 1425 886 1398 c 128,-1,13
 912 1371 912 1371 926 1333.5 c 128,-1,14
 940 1296 940 1296 940 1251 c 0,15,16
 940 1207 940 1207 923 1166.5 c 128,-1,17
 906 1126 906 1126 876.5 1095.5 c 128,-1,18
 847 1065 847 1065 806.5 1047 c 128,-1,19
 766 1029 766 1029 720 1029 c 0,0,1
188 906 m 1,20,-1
 1220 906 l 1,21,-1
 1220 641 l 1,22,-1
 188 641 l 1,23,-1
 188 906 l 1,20,-1
514 307 m 256,24,25
 514 351 514 351 531.5 391 c 128,-1,26
 549 431 549 431 579 461.5 c 128,-1,27
 609 492 609 492 649.5 510 c 128,-1,28
 690 528 690 528 737 528 c 0,29,30
 783 528 783 528 820.5 512.5 c 128,-1,31
 858 497 858 497 884 469.5 c 128,-1,32
 910 442 910 442 923.5 404.5 c 128,-1,33
 937 367 937 367 937 323 c 256,34,35
 937 279 937 279 920 238.5 c 128,-1,36
 903 198 903 198 873.5 167.5 c 128,-1,37
 844 137 844 137 804 119 c 128,-1,38
 764 101 764 101 717 101 c 0,39,40
 672 101 672 101 634.5 116.5 c 128,-1,41
 597 132 597 132 570 159.5 c 128,-1,42
 543 187 543 187 528.5 225 c 128,-1,43
 514 263 514 263 514 307 c 256,24,25
EndSplineSet
EndChar

StartChar: daggerdbl
Encoding: 8225 8225 133
Width: 1031
Flags: W
LayerCount: 2
Fore
SplineSet
89 639 m 1,0,-1
 368 640 l 1,1,-1
 368 1045 l 1,2,-1
 89 1045 l 1,3,-1
 90 1288 l 1,4,-1
 368 1288 l 1,5,-1
 369 1658 l 1,6,-1
 658 1658 l 1,7,-1
 656 1288 l 1,8,-1
 941 1288 l 1,9,-1
 941 1045 l 1,10,-1
 656 1045 l 1,11,-1
 656 640 l 1,12,-1
 940 639 l 1,13,-1
 940 396 l 1,14,-1
 656 396 l 1,15,-1
 635 -356 l 1,16,-1
 386 -356 l 1,17,-1
 368 396 l 1,18,-1
 89 396 l 1,19,-1
 89 639 l 1,0,-1
EndSplineSet
EndChar

StartChar: cent
Encoding: 162 162 134
Width: 1173
Flags: W
LayerCount: 2
Fore
SplineSet
520 -5 m 1,0,1
 413 14 413 14 334 64 c 128,-1,2
 255 114 255 114 203 188 c 128,-1,3
 151 262 151 262 125.5 356.5 c 128,-1,4
 100 451 100 451 100 559 c 0,5,6
 100 669 100 669 127 767 c 128,-1,7
 154 865 154 865 209 942.5 c 128,-1,8
 264 1020 264 1020 348.5 1072.5 c 128,-1,9
 433 1125 433 1125 548 1145 c 1,10,-1
 553 1377 l 1,11,-1
 737 1377 l 1,12,-1
 732 1154 l 1,13,14
 780 1152 780 1152 821.5 1146.5 c 128,-1,15
 863 1141 863 1141 897 1133.5 c 128,-1,16
 931 1126 931 1126 955 1117 c 128,-1,17
 979 1108 979 1108 991 1099 c 1,18,-1
 950 825 l 1,19,20
 916 844 916 844 863 857.5 c 128,-1,21
 810 871 810 871 726 871 c 0,22,23
 681 871 681 871 636 857 c 128,-1,24
 591 843 591 843 554.5 809.5 c 128,-1,25
 518 776 518 776 494 721.5 c 128,-1,26
 470 667 470 667 469 586 c 0,27,28
 467 497 467 497 487 436 c 128,-1,29
 507 375 507 375 542 337 c 128,-1,30
 577 299 577 299 625 282 c 128,-1,31
 673 265 673 265 728 265 c 0,32,33
 802 265 802 265 864 277 c 128,-1,34
 926 289 926 289 962 306 c 1,35,-1
 1007 100 l 1,36,37
 986 79 986 79 954 60 c 128,-1,38
 922 41 922 41 882.5 26 c 128,-1,39
 843 11 843 11 797.5 1 c 128,-1,40
 752 -9 752 -9 704 -13 c 1,41,-1
 700 -216 l 1,42,-1
 515 -216 l 1,43,-1
 520 -5 l 1,44,-1
 520 -5 l 1,0,1
EndSplineSet
EndChar

StartChar: circumflex
Encoding: 710 710 135
Width: 886
Flags: W
LayerCount: 2
Fore
SplineSet
29 1359 m 1,0,-1
 332 1729 l 1,1,-1
 555 1729 l 1,2,-1
 857 1360 l 1,3,-1
 681 1248 l 1,4,-1
 444 1477 l 1,5,-1
 203 1248 l 1,6,-1
 29 1359 l 1,0,-1
EndSplineSet
EndChar

StartChar: caron
Encoding: 711 711 136
Width: 824
Flags: W
LayerCount: 2
Fore
SplineSet
29 1618 m 1,0,-1
 203 1729 l 1,1,-1
 444 1500 l 1,2,-1
 681 1729 l 1,3,-1
 857 1617 l 1,4,-1
 555 1248 l 1,5,-1
 332 1248 l 1,6,-1
 29 1618 l 1,0,-1
EndSplineSet
EndChar

StartChar: breve
Encoding: 728 728 137
Width: 818
Flags: W
LayerCount: 2
Fore
SplineSet
410 1294 m 0,0,1
 315 1294 315 1294 243 1326.5 c 128,-1,2
 171 1359 171 1359 122.5 1413 c 128,-1,3
 74 1467 74 1467 49.5 1538.5 c 128,-1,4
 25 1610 25 1610 26 1688 c 1,5,-1
 250 1688 l 1,6,7
 252 1674 252 1674 257 1648.5 c 128,-1,8
 262 1623 262 1623 278 1597.5 c 128,-1,9
 294 1572 294 1572 325 1553 c 128,-1,10
 356 1534 356 1534 410 1534 c 0,11,12
 462 1534 462 1534 493 1552.5 c 128,-1,13
 524 1571 524 1571 540.5 1596.5 c 128,-1,14
 557 1622 557 1622 562.5 1648 c 128,-1,15
 568 1674 568 1674 571 1688 c 1,16,-1
 792 1688 l 1,17,18
 793 1610 793 1610 767.5 1538.5 c 128,-1,19
 742 1467 742 1467 692.5 1413 c 128,-1,20
 643 1359 643 1359 571.5 1326.5 c 128,-1,21
 500 1294 500 1294 410 1294 c 0,0,1
EndSplineSet
EndChar

StartChar: ring
Encoding: 730 730 138
Width: 771
Flags: W
LayerCount: 2
Fore
SplineSet
382 1298 m 0,0,1
 297 1298 297 1298 230 1320 c 128,-1,2
 163 1342 163 1342 117 1382.5 c 128,-1,3
 71 1423 71 1423 47.5 1480.5 c 128,-1,4
 24 1538 24 1538 25 1610 c 0,5,6
 26 1691 26 1691 59 1747 c 128,-1,7
 92 1803 92 1803 143.5 1838 c 128,-1,8
 195 1873 195 1873 260.5 1888.5 c 128,-1,9
 326 1904 326 1904 392 1904 c 0,10,11
 474 1904 474 1904 540 1884.5 c 128,-1,12
 606 1865 606 1865 652 1827 c 128,-1,13
 698 1789 698 1789 722.5 1733 c 128,-1,14
 747 1677 747 1677 747 1604 c 0,15,16
 746 1523 746 1523 715.5 1465 c 128,-1,17
 685 1407 685 1407 634 1370 c 128,-1,18
 583 1333 583 1333 517.5 1315.5 c 128,-1,19
 452 1298 452 1298 382 1298 c 0,0,1
385 1465 m 0,20,21
 421 1465 421 1465 450.5 1471 c 128,-1,22
 480 1477 480 1477 501 1492.5 c 128,-1,23
 522 1508 522 1508 533.5 1534.5 c 128,-1,24
 545 1561 545 1561 545 1600 c 0,25,26
 545 1634 545 1634 533 1660.5 c 128,-1,27
 521 1687 521 1687 499.5 1705 c 128,-1,28
 478 1723 478 1723 448.5 1733 c 128,-1,29
 419 1743 419 1743 385 1743 c 0,30,31
 354 1743 354 1743 325.5 1736.5 c 128,-1,32
 297 1730 297 1730 275 1714.5 c 128,-1,33
 253 1699 253 1699 240 1672.5 c 128,-1,34
 227 1646 227 1646 227 1607 c 0,35,36
 227 1575 227 1575 238.5 1549 c 128,-1,37
 250 1523 250 1523 271 1504.5 c 128,-1,38
 292 1486 292 1486 321 1475.5 c 128,-1,39
 350 1465 350 1465 385 1465 c 0,20,21
EndSplineSet
EndChar

StartChar: tilde
Encoding: 732 732 139
Width: 927
Flags: W
LayerCount: 2
Fore
SplineSet
7 1467 m 1,0,1
 19 1510 19 1510 46 1552 c 128,-1,2
 73 1594 73 1594 112.5 1626 c 128,-1,3
 152 1658 152 1658 204 1678 c 128,-1,4
 256 1698 256 1698 318 1698 c 0,5,6
 367 1698 367 1698 401.5 1688.5 c 128,-1,7
 436 1679 436 1679 461.5 1665 c 128,-1,8
 487 1651 487 1651 506.5 1634 c 128,-1,9
 526 1617 526 1617 544.5 1603 c 128,-1,10
 563 1589 563 1589 583 1579.5 c 128,-1,11
 603 1570 603 1570 630 1570 c 256,12,13
 657 1570 657 1570 681.5 1579.5 c 128,-1,14
 706 1589 706 1589 727 1604 c 128,-1,15
 748 1619 748 1619 765.5 1637 c 128,-1,16
 783 1655 783 1655 796 1672 c 1,17,-1
 922 1539 l 1,18,19
 910 1495 910 1495 884 1453 c 128,-1,20
 858 1411 858 1411 819.5 1378 c 128,-1,21
 781 1345 781 1345 730.5 1324.5 c 128,-1,22
 680 1304 680 1304 619 1304 c 0,23,24
 574 1304 574 1304 541 1313.5 c 128,-1,25
 508 1323 508 1323 482.5 1338 c 128,-1,26
 457 1353 457 1353 436.5 1369.5 c 128,-1,27
 416 1386 416 1386 395.5 1401 c 128,-1,28
 375 1416 375 1416 352.5 1425.5 c 128,-1,29
 330 1435 330 1435 301 1435 c 0,30,31
 277 1435 277 1435 253.5 1426 c 128,-1,32
 230 1417 230 1417 209 1403 c 128,-1,33
 188 1389 188 1389 170 1371.5 c 128,-1,34
 152 1354 152 1354 139 1338 c 1,35,-1
 7 1467 l 1,0,1
EndSplineSet
EndChar

StartChar: hungarumlaut
Encoding: 733 733 140
Width: 1035
Flags: W
LayerCount: 2
Fore
SplineSet
19 1379 m 1,0,1
 36 1402 36 1402 64 1443 c 128,-1,2
 92 1484 92 1484 124.5 1533 c 128,-1,3
 157 1582 157 1582 191 1633 c 128,-1,4
 225 1684 225 1684 253 1727 c 128,-1,5
 281 1770 281 1770 300.5 1799.5 c 128,-1,6
 320 1829 320 1829 324 1835 c 1,7,-1
 537 1689 l 1,8,9
 520 1657 520 1657 492.5 1618 c 128,-1,10
 465 1579 465 1579 431.5 1537.5 c 128,-1,11
 398 1496 398 1496 360.5 1455.5 c 128,-1,12
 323 1415 323 1415 287 1379.5 c 128,-1,13
 251 1344 251 1344 218 1317 c 128,-1,14
 185 1290 185 1290 161 1276 c 1,15,-1
 19 1379 l 1,0,1
539 1379 m 1,16,17
 552 1397 552 1397 579 1435.5 c 128,-1,18
 606 1474 606 1474 639 1521.5 c 128,-1,19
 672 1569 672 1569 707 1620.5 c 128,-1,20
 742 1672 742 1672 772 1716.5 c 128,-1,21
 802 1761 802 1761 823 1791.5 c 128,-1,22
 844 1822 844 1822 849 1829 c 1,23,-1
 1063 1684 l 1,24,25
 1046 1653 1046 1653 1018 1614 c 128,-1,26
 990 1575 990 1575 955.5 1533.5 c 128,-1,27
 921 1492 921 1492 882.5 1451.5 c 128,-1,28
 844 1411 844 1411 807 1376 c 128,-1,29
 770 1341 770 1341 736.5 1314.5 c 128,-1,30
 703 1288 703 1288 678 1276 c 1,31,-1
 539 1379 l 1,16,17
EndSplineSet
EndChar

StartChar: ogonek
Encoding: 731 731 141
Width: 643
Flags: W
LayerCount: 2
Fore
SplineSet
414 9 m 1,0,-1
 545 28 l 1,1,2
 501 1 501 1 459 -29.5 c 128,-1,3
 417 -60 417 -60 384.5 -94.5 c 128,-1,4
 352 -129 352 -129 333 -167.5 c 128,-1,5
 314 -206 314 -206 318 -249 c 0,6,7
 321 -287 321 -287 352 -303 c 128,-1,8
 383 -319 383 -319 434 -319 c 0,9,10
 465 -319 465 -319 498 -315 c 128,-1,11
 531 -311 531 -311 560 -305 c 1,12,-1
 563 -450 l 1,13,14
 521 -482 521 -482 458 -500 c 128,-1,15
 395 -518 395 -518 324 -518 c 0,16,17
 276 -518 276 -518 230 -508 c 128,-1,18
 184 -498 184 -498 147 -476 c 128,-1,19
 110 -454 110 -454 86.5 -421 c 128,-1,20
 63 -388 63 -388 60 -343 c 0,21,22
 55 -280 55 -280 75.5 -228 c 128,-1,23
 96 -176 96 -176 129.5 -135 c 128,-1,24
 163 -94 163 -94 204.5 -63 c 128,-1,25
 246 -32 246 -32 284 -11 c 1,26,-1
 414 9 l 1,0,-1
EndSplineSet
EndChar

StartChar: twosuperior
Encoding: 178 178 143
Width: 1194
Flags: W
LayerCount: 2
Fore
SplineSet
147 851 m 1,0,1
 185 871 185 871 237.5 903.5 c 128,-1,2
 290 936 290 936 347 977.5 c 128,-1,3
 404 1019 404 1019 460 1068 c 128,-1,4
 516 1117 516 1117 560 1168 c 128,-1,5
 604 1219 604 1219 631.5 1271 c 128,-1,6
 659 1323 659 1323 659 1372 c 0,7,8
 659 1444 659 1444 618 1479 c 128,-1,9
 577 1514 577 1514 504 1514 c 0,10,11
 427 1514 427 1514 361 1473.5 c 128,-1,12
 295 1433 295 1433 241 1362 c 1,13,-1
 115 1535 l 1,14,15
 138 1569 138 1569 181.5 1606.5 c 128,-1,16
 225 1644 225 1644 285 1675 c 128,-1,17
 345 1706 345 1706 420.5 1726 c 128,-1,18
 496 1746 496 1746 584 1746 c 0,19,20
 696 1746 696 1746 774 1717 c 128,-1,21
 852 1688 852 1688 900 1642 c 128,-1,22
 948 1596 948 1596 969.5 1540 c 128,-1,23
 991 1484 991 1484 991 1430 c 0,24,25
 991 1352 991 1352 961.5 1282.5 c 128,-1,26
 932 1213 932 1213 878.5 1149.5 c 128,-1,27
 825 1086 825 1086 749.5 1028.5 c 128,-1,28
 674 971 674 971 583 918 c 1,29,-1
 1043 943 l 1,30,-1
 1043 689 l 1,31,-1
 187 689 l 1,32,-1
 147 851 l 1,0,1
EndSplineSet
EndChar

StartChar: onesuperior
Encoding: 185 185 144
Width: 1026
Flags: W
LayerCount: 2
Fore
SplineSet
387 1379 m 1,0,1
 345 1365 345 1365 299.5 1354 c 128,-1,2
 254 1343 254 1343 204 1335 c 1,3,-1
 164 1529 l 1,4,5
 194 1538 194 1538 231 1552 c 128,-1,6
 268 1566 268 1566 306 1583.5 c 128,-1,7
 344 1601 344 1601 381.5 1619.5 c 128,-1,8
 419 1638 419 1638 451.5 1655.5 c 128,-1,9
 484 1673 484 1673 508 1688 c 128,-1,10
 532 1703 532 1703 544 1713 c 1,11,-1
 712 1688 l 1,12,-1
 712 679 l 1,13,-1
 387 679 l 1,14,-1
 387 1379 l 1,0,1
EndSplineSet
EndChar

StartChar: fraction
Encoding: 8260 8260 145
Width: 1026
Flags: W
LayerCount: 2
Fore
SplineSet
643 1530 m 1,0,-1
 922 1530 l 1,1,-1
 380 0 l 1,2,-1
 104 0 l 1,3,-1
 643 1530 l 1,0,-1
EndSplineSet
EndChar

StartChar: onequarter
Encoding: 188 188 146
Width: 2542
Flags: W
LayerCount: 2
Fore
SplineSet
1813 1190 m 1,0,-1
 1881 1190 l 1,1,-1
 2109 1089 l 1,2,-1
 1735 476 l 1,3,-1
 1693 401 l 1,4,-1
 1955 401 l 1,5,-1
 1981 672 l 1,6,-1
 2235 672 l 1,7,-1
 2235 401 l 1,8,-1
 2391 401 l 1,9,-1
 2391 189 l 1,10,-1
 2235 189 l 1,11,-1
 2235 -77 l 1,12,-1
 1952 -77 l 1,13,-1
 1952 189 l 1,14,-1
 1398 189 l 1,15,-1
 1346 283 l 1,16,-1
 1813 1190 l 1,0,-1
1285 1530 m 1,17,-1
 1564 1530 l 1,18,-1
 1022 0 l 1,19,-1
 746 0 l 1,20,-1
 1285 1530 l 1,17,-1
424 1379 m 1,21,22
 382 1365 382 1365 336.5 1354 c 128,-1,23
 291 1343 291 1343 241 1335 c 1,24,-1
 201 1529 l 1,25,26
 231 1538 231 1538 268 1552 c 128,-1,27
 305 1566 305 1566 343 1583.5 c 128,-1,28
 381 1601 381 1601 418.5 1619.5 c 128,-1,29
 456 1638 456 1638 488.5 1655.5 c 128,-1,30
 521 1673 521 1673 545 1688 c 128,-1,31
 569 1703 569 1703 581 1713 c 1,32,-1
 749 1688 l 1,33,-1
 749 679 l 1,34,-1
 424 679 l 1,35,-1
 424 1379 l 1,21,22
EndSplineSet
Ligature2: "'frac' Diagonal Fractions in Latin lookup 10 subtable" one slash four
EndChar

StartChar: threequarters
Encoding: 190 190 147
Width: 2542
Flags: W
LayerCount: 2
Fore
SplineSet
1813 1190 m 1,0,-1
 1881 1190 l 1,1,-1
 2109 1089 l 1,2,-1
 1735 476 l 1,3,-1
 1693 401 l 1,4,-1
 1955 401 l 1,5,-1
 1981 672 l 1,6,-1
 2235 672 l 1,7,-1
 2235 401 l 1,8,-1
 2391 401 l 1,9,-1
 2391 189 l 1,10,-1
 2235 189 l 1,11,-1
 2235 -77 l 1,12,-1
 1952 -77 l 1,13,-1
 1952 189 l 1,14,-1
 1398 189 l 1,15,-1
 1346 283 l 1,16,-1
 1813 1190 l 1,0,-1
105 854 m 1,17,18
 130 848 130 848 156 841.5 c 128,-1,19
 182 835 182 835 214.5 830 c 128,-1,20
 247 825 247 825 287.5 821 c 128,-1,21
 328 817 328 817 381 817 c 0,22,23
 441 817 441 817 484 827.5 c 128,-1,24
 527 838 527 838 554 856.5 c 128,-1,25
 581 875 581 875 594 901 c 128,-1,26
 607 927 607 927 607 957 c 0,27,28
 607 975 607 975 600 993.5 c 128,-1,29
 593 1012 593 1012 576.5 1027.5 c 128,-1,30
 560 1043 560 1043 532 1056 c 128,-1,31
 504 1069 504 1069 461 1077 c 1,32,-1
 288 1048 l 1,33,-1
 270 1254 l 1,34,35
 319 1259 319 1259 358.5 1265.5 c 128,-1,36
 398 1272 398 1272 431 1281 c 1,37,38
 491 1300 491 1300 529 1335 c 128,-1,39
 567 1370 567 1370 566 1417 c 0,40,41
 566 1461 566 1461 528.5 1484.5 c 128,-1,42
 491 1508 491 1508 407 1508 c 0,43,44
 381 1508 381 1508 348 1503.5 c 128,-1,45
 315 1499 315 1499 279 1489 c 128,-1,46
 243 1479 243 1479 206.5 1463.5 c 128,-1,47
 170 1448 170 1448 138 1427 c 1,48,-1
 70 1613 l 1,49,50
 96 1635 96 1635 140 1655.5 c 128,-1,51
 184 1676 184 1676 236.5 1692 c 128,-1,52
 289 1708 289 1708 346 1717.5 c 128,-1,53
 403 1727 403 1727 456 1727 c 0,54,55
 560 1727 560 1727 634.5 1706 c 128,-1,56
 709 1685 709 1685 757 1650 c 128,-1,57
 805 1615 805 1615 828 1568.5 c 128,-1,58
 851 1522 851 1522 851 1470 c 0,59,60
 851 1390 851 1390 811.5 1324 c 128,-1,61
 772 1258 772 1258 673 1205 c 1,62,63
 729 1197 729 1197 772.5 1175.5 c 128,-1,64
 816 1154 816 1154 846 1121.5 c 128,-1,65
 876 1089 876 1089 892 1047.5 c 128,-1,66
 908 1006 908 1006 908 958 c 0,67,68
 908 882 908 882 879 815.5 c 128,-1,69
 850 749 850 749 790 700 c 128,-1,70
 730 651 730 651 638 623 c 128,-1,71
 546 595 546 595 420 595 c 0,72,73
 363 595 363 595 317 600 c 128,-1,74
 271 605 271 605 233 612.5 c 128,-1,75
 195 620 195 620 164 629.5 c 128,-1,76
 133 639 133 639 107 647 c 1,77,-1
 105 854 l 1,17,18
1285 1530 m 1,78,-1
 1564 1530 l 1,79,-1
 1022 0 l 1,80,-1
 746 0 l 1,81,-1
 1285 1530 l 1,78,-1
EndSplineSet
Ligature2: "'frac' Diagonal Fractions in Latin lookup 10 subtable" three slash four
EndChar

StartChar: threesuperior
Encoding: 179 179 148
Width: 1194
Flags: W
LayerCount: 2
Fore
SplineSet
232 854 m 1,0,1
 257 848 257 848 283 841.5 c 128,-1,2
 309 835 309 835 341.5 830 c 128,-1,3
 374 825 374 825 414.5 821 c 128,-1,4
 455 817 455 817 508 817 c 0,5,6
 568 817 568 817 611 827.5 c 128,-1,7
 654 838 654 838 681 856.5 c 128,-1,8
 708 875 708 875 721 901 c 128,-1,9
 734 927 734 927 734 957 c 0,10,11
 734 975 734 975 727 993.5 c 128,-1,12
 720 1012 720 1012 703.5 1027.5 c 128,-1,13
 687 1043 687 1043 659 1056 c 128,-1,14
 631 1069 631 1069 588 1077 c 1,15,-1
 415 1048 l 1,16,-1
 397 1254 l 1,17,18
 446 1259 446 1259 485.5 1265.5 c 128,-1,19
 525 1272 525 1272 558 1281 c 1,20,21
 618 1300 618 1300 656 1335 c 128,-1,22
 694 1370 694 1370 693 1417 c 0,23,24
 693 1461 693 1461 655.5 1484.5 c 128,-1,25
 618 1508 618 1508 534 1508 c 0,26,27
 508 1508 508 1508 475 1503.5 c 128,-1,28
 442 1499 442 1499 406 1489 c 128,-1,29
 370 1479 370 1479 333.5 1463.5 c 128,-1,30
 297 1448 297 1448 265 1427 c 1,31,-1
 197 1613 l 1,32,33
 223 1635 223 1635 267 1655.5 c 128,-1,34
 311 1676 311 1676 363.5 1692 c 128,-1,35
 416 1708 416 1708 473 1717.5 c 128,-1,36
 530 1727 530 1727 583 1727 c 0,37,38
 687 1727 687 1727 761.5 1706 c 128,-1,39
 836 1685 836 1685 884 1650 c 128,-1,40
 932 1615 932 1615 955 1568.5 c 128,-1,41
 978 1522 978 1522 978 1470 c 0,42,43
 978 1390 978 1390 938.5 1324 c 128,-1,44
 899 1258 899 1258 800 1205 c 1,45,46
 856 1197 856 1197 899.5 1175.5 c 128,-1,47
 943 1154 943 1154 973 1121.5 c 128,-1,48
 1003 1089 1003 1089 1019 1047.5 c 128,-1,49
 1035 1006 1035 1006 1035 958 c 0,50,51
 1035 882 1035 882 1006 815.5 c 128,-1,52
 977 749 977 749 917 700 c 128,-1,53
 857 651 857 651 765 623 c 128,-1,54
 673 595 673 595 547 595 c 0,55,56
 490 595 490 595 444 600 c 128,-1,57
 398 605 398 605 360 612.5 c 128,-1,58
 322 620 322 620 291 629.5 c 128,-1,59
 260 639 260 639 234 647 c 1,60,-1
 232 854 l 1,0,1
EndSplineSet
EndChar

StartChar: grave.cap
Encoding: 65537 -1 149
Width: 668
Flags: W
LayerCount: 2
Fore
SplineSet
403 1548 m 1,0,1
 382 1554 382 1554 353.5 1572 c 128,-1,2
 325 1590 325 1590 292.5 1616 c 128,-1,3
 260 1642 260 1642 225.5 1673.5 c 128,-1,4
 191 1705 191 1705 159 1738.5 c 128,-1,5
 127 1772 127 1772 99.5 1806 c 128,-1,6
 72 1840 72 1840 52 1870 c 1,7,-1
 310 2000 l 1,8,9
 316 1981 316 1981 335.5 1952.5 c 128,-1,10
 355 1924 355 1924 381 1891.5 c 128,-1,11
 407 1859 407 1859 436.5 1825.5 c 128,-1,12
 466 1792 466 1792 493 1762.5 c 128,-1,13
 520 1733 520 1733 541.5 1711 c 128,-1,14
 563 1689 563 1689 573 1679 c 1,15,-1
 403 1548 l 1,16,-1
 403 1548 l 1,0,1
EndSplineSet
EndChar

StartChar: dieresis.cap
Encoding: 65538 -1 150
Width: 1027
Flags: W
LayerCount: 2
Fore
SplineSet
778 1614 m 0,0,1
 736 1614 736 1614 701 1627 c 128,-1,2
 666 1640 666 1640 641 1664 c 128,-1,3
 616 1688 616 1688 602.5 1721.5 c 128,-1,4
 589 1755 589 1755 589 1796 c 256,5,6
 589 1837 589 1837 605 1873 c 128,-1,7
 621 1909 621 1909 649 1935.5 c 128,-1,8
 677 1962 677 1962 714.5 1977.5 c 128,-1,9
 752 1993 752 1993 795 1993 c 0,10,11
 883 1993 883 1993 932 1943.5 c 128,-1,12
 981 1894 981 1894 981 1812 c 0,13,14
 981 1771 981 1771 965.5 1735 c 128,-1,15
 950 1699 950 1699 922.5 1672 c 128,-1,16
 895 1645 895 1645 858 1629.5 c 128,-1,17
 821 1614 821 1614 778 1614 c 0,0,1
239 1614 m 0,18,19
 197 1614 197 1614 162 1627 c 128,-1,20
 127 1640 127 1640 102 1664 c 128,-1,21
 77 1688 77 1688 63.5 1721.5 c 128,-1,22
 50 1755 50 1755 50 1796 c 256,23,24
 50 1837 50 1837 66 1873 c 128,-1,25
 82 1909 82 1909 110 1935.5 c 128,-1,26
 138 1962 138 1962 175.5 1977.5 c 128,-1,27
 213 1993 213 1993 255 1993 c 0,28,29
 343 1993 343 1993 392.5 1943.5 c 128,-1,30
 442 1894 442 1894 442 1812 c 0,31,32
 442 1771 442 1771 426.5 1735 c 128,-1,33
 411 1699 411 1699 383.5 1672 c 128,-1,34
 356 1645 356 1645 319 1629.5 c 128,-1,35
 282 1614 282 1614 239 1614 c 0,18,19
EndSplineSet
EndChar

StartChar: commaaccent
Encoding: 63171 63171 151
Width: 432
Flags: W
LayerCount: 2
Fore
SplineSet
259 -84 m 1,0,1
 272 -88 272 -88 289.5 -102.5 c 128,-1,2
 307 -117 307 -117 323 -141.5 c 128,-1,3
 339 -166 339 -166 349.5 -199.5 c 128,-1,4
 360 -233 360 -233 360 -273 c 0,5,6
 360 -333 360 -333 344 -383 c 128,-1,7
 328 -433 328 -433 306.5 -470 c 128,-1,8
 285 -507 285 -507 262 -530 c 128,-1,9
 239 -553 239 -553 225 -560 c 1,10,-1
 66 -515 l 1,11,-1
 66 -489 l 1,12,13
 77 -469 77 -469 83 -436.5 c 128,-1,14
 89 -404 89 -404 89 -350 c 0,15,16
 89 -331 89 -331 84 -311.5 c 128,-1,17
 79 -292 79 -292 71.5 -275.5 c 128,-1,18
 64 -259 64 -259 54.5 -247 c 128,-1,19
 45 -235 45 -235 36 -229 c 1,20,-1
 36 -179 l 1,21,-1
 259 -84 l 1,0,1
EndSplineSet
EndChar

StartChar: circumflex.cap
Encoding: 65539 -1 152
Width: 882
Flags: W
LayerCount: 2
Fore
SplineSet
41 1688 m 1,0,-1
 324 1999 l 1,1,-1
 557 1999 l 1,2,-1
 841 1689 l 1,3,-1
 664 1576 l 1,4,-1
 441 1770 l 1,5,-1
 218 1576 l 1,6,-1
 41 1688 l 1,0,-1
EndSplineSet
EndChar

StartChar: caron.cap
Encoding: 65540 -1 153
Width: 759
Flags: W
LayerCount: 2
Fore
SplineSet
41 1887 m 1,0,-1
 215 2000 l 1,1,-1
 438 1832 l 1,2,-1
 662 2000 l 1,3,-1
 835 1887 l 1,4,-1
 554 1593 l 1,5,-1
 322 1593 l 1,6,-1
 41 1887 l 1,0,-1
EndSplineSet
EndChar

StartChar: breve.cap
Encoding: 65541 -1 154
Width: 818
Flags: W
LayerCount: 2
Fore
SplineSet
410 1621 m 0,0,1
 313 1621 313 1621 240.5 1652 c 128,-1,2
 168 1683 168 1683 120 1735 c 128,-1,3
 72 1787 72 1787 48.5 1856 c 128,-1,4
 25 1925 25 1925 26 2000 c 1,5,-1
 247 2000 l 1,6,7
 249 1987 249 1987 255 1963.5 c 128,-1,8
 261 1940 261 1940 277.5 1916.5 c 128,-1,9
 294 1893 294 1893 325.5 1875.5 c 128,-1,10
 357 1858 357 1858 410 1858 c 0,11,12
 462 1858 462 1858 493.5 1875.5 c 128,-1,13
 525 1893 525 1893 542 1916.5 c 128,-1,14
 559 1940 559 1940 565.5 1963.5 c 128,-1,15
 572 1987 572 1987 575 2000 c 1,16,-1
 791 2000 l 1,17,18
 792 1925 792 1925 767.5 1856 c 128,-1,19
 743 1787 743 1787 694.5 1735 c 128,-1,20
 646 1683 646 1683 574.5 1652 c 128,-1,21
 503 1621 503 1621 410 1621 c 0,0,1
EndSplineSet
EndChar

StartChar: ring.cap
Encoding: 65542 -1 155
Width: 771
Flags: W
LayerCount: 2
Fore
SplineSet
382 1399 m 0,0,1
 297 1399 297 1399 230 1420.5 c 128,-1,2
 163 1442 163 1442 117 1482.5 c 128,-1,3
 71 1523 71 1523 47 1580 c 128,-1,4
 23 1637 23 1637 25 1709 c 1,5,6
 26 1790 26 1790 59 1845.5 c 128,-1,7
 92 1901 92 1901 143.5 1935.5 c 128,-1,8
 195 1970 195 1970 260.5 1985 c 128,-1,9
 326 2000 326 2000 392 2000 c 0,10,11
 474 2000 474 2000 540 1981 c 128,-1,12
 606 1962 606 1962 652 1924.5 c 128,-1,13
 698 1887 698 1887 722.5 1831.5 c 128,-1,14
 747 1776 747 1776 747 1703 c 0,15,16
 746 1622 746 1622 715.5 1564.5 c 128,-1,17
 685 1507 685 1507 634 1470 c 128,-1,18
 583 1433 583 1433 517.5 1416 c 128,-1,19
 452 1399 452 1399 382 1399 c 0,0,1
385 1567 m 0,20,21
 421 1567 421 1567 450.5 1572.5 c 128,-1,22
 480 1578 480 1578 501 1593 c 128,-1,23
 522 1608 522 1608 533.5 1634 c 128,-1,24
 545 1660 545 1660 545 1699 c 0,25,26
 545 1766 545 1766 499.5 1802 c 128,-1,27
 454 1838 454 1838 385 1839 c 0,28,29
 354 1839 354 1839 325.5 1833 c 128,-1,30
 297 1827 297 1827 275 1812 c 128,-1,31
 253 1797 253 1797 240 1771 c 128,-1,32
 227 1745 227 1745 227 1706 c 0,33,34
 227 1674 227 1674 238.5 1648.5 c 128,-1,35
 250 1623 250 1623 271 1605 c 128,-1,36
 292 1587 292 1587 321 1577 c 128,-1,37
 350 1567 350 1567 385 1567 c 0,20,21
EndSplineSet
EndChar

StartChar: tilde.cap
Encoding: 65543 -1 156
Width: 927
Flags: W
LayerCount: 2
Fore
SplineSet
14 1760 m 1,0,1
 26 1804 26 1804 53 1845.5 c 128,-1,2
 80 1887 80 1887 119 1919.5 c 128,-1,3
 158 1952 158 1952 209 1971.5 c 128,-1,4
 260 1991 260 1991 322 1991 c 0,5,6
 369 1991 369 1991 403 1981.5 c 128,-1,7
 437 1972 437 1972 462 1958 c 128,-1,8
 487 1944 487 1944 505.5 1927 c 128,-1,9
 524 1910 524 1910 542 1896 c 128,-1,10
 560 1882 560 1882 579.5 1872.5 c 128,-1,11
 599 1863 599 1863 626 1863 c 0,12,13
 652 1863 652 1863 676 1872.5 c 128,-1,14
 700 1882 700 1882 721 1897 c 128,-1,15
 742 1912 742 1912 759 1930.5 c 128,-1,16
 776 1949 776 1949 789 1966 c 1,17,-1
 915 1833 l 1,18,19
 903 1789 903 1789 877.5 1746.5 c 128,-1,20
 852 1704 852 1704 813.5 1671 c 128,-1,21
 775 1638 775 1638 725 1618 c 128,-1,22
 675 1598 675 1598 615 1598 c 0,23,24
 571 1598 571 1598 539 1607.5 c 128,-1,25
 507 1617 507 1617 482 1631.5 c 128,-1,26
 457 1646 457 1646 437 1663 c 128,-1,27
 417 1680 417 1680 397.5 1694.5 c 128,-1,28
 378 1709 378 1709 356 1718.5 c 128,-1,29
 334 1728 334 1728 305 1728 c 0,30,31
 281 1728 281 1728 258 1719 c 128,-1,32
 235 1710 235 1710 214.5 1696 c 128,-1,33
 194 1682 194 1682 176.5 1665 c 128,-1,34
 159 1648 159 1648 146 1631 c 1,35,-1
 14 1760 l 1,0,1
EndSplineSet
EndChar

StartChar: hungarumlaut.cap
Encoding: 65544 -1 157
Width: 962
Flags: W
LayerCount: 2
Fore
SplineSet
38 1686 m 1,0,1
 48 1695 48 1695 66 1717 c 128,-1,2
 84 1739 84 1739 105.5 1767.5 c 128,-1,3
 127 1796 127 1796 150.5 1829 c 128,-1,4
 174 1862 174 1862 195 1893.5 c 128,-1,5
 216 1925 216 1925 232.5 1953 c 128,-1,6
 249 1981 249 1981 257 2000 c 1,7,-1
 513 1882 l 1,8,9
 483 1836 483 1836 442 1784 c 128,-1,10
 401 1732 401 1732 359 1686 c 128,-1,11
 317 1640 317 1640 279 1606 c 128,-1,12
 241 1572 241 1572 216 1561 c 1,13,-1
 38 1686 l 1,0,1
555 1686 m 1,14,15
 565 1695 565 1695 583 1717 c 128,-1,16
 601 1739 601 1739 623 1767 c 128,-1,17
 645 1795 645 1795 669 1827.5 c 128,-1,18
 693 1860 693 1860 714.5 1891.5 c 128,-1,19
 736 1923 736 1923 753.5 1951 c 128,-1,20
 771 1979 771 1979 780 1998 c 1,21,-1
 1033 1880 l 1,22,23
 1004 1836 1004 1836 963 1784.5 c 128,-1,24
 922 1733 922 1733 880 1687 c 128,-1,25
 838 1641 838 1641 799 1606.5 c 128,-1,26
 760 1572 760 1572 735 1561 c 1,27,-1
 555 1686 l 1,14,15
EndSplineSet
EndChar

StartChar: percent
Encoding: 37 37 158
Width: 2269
Flags: W
LayerCount: 2
Fore
SplineSet
515 592 m 1,0,1
 407 592 407 592 328 628 c 128,-1,2
 249 664 249 664 197.5 727.5 c 128,-1,3
 146 791 146 791 121 876 c 128,-1,4
 96 961 96 961 96 1059 c 0,5,6
 96 1173 96 1173 133.5 1260.5 c 128,-1,7
 171 1348 171 1348 234 1408 c 128,-1,8
 297 1468 297 1468 379 1499.5 c 128,-1,9
 461 1531 461 1531 550 1531 c 0,10,11
 660 1532 660 1532 739 1495.5 c 128,-1,12
 818 1459 818 1459 869 1396 c 128,-1,13
 920 1333 920 1333 944.5 1247.5 c 128,-1,14
 969 1162 969 1162 969 1065 c 0,15,16
 969 951 969 951 931 863.5 c 128,-1,17
 893 776 893 776 830 716 c 128,-1,18
 767 656 767 656 685 624.5 c 128,-1,19
 603 593 603 593 515 592 c 1,0,1
1277 1530 m 1,20,-1
 1557 1530 l 1,21,-1
 996 0 l 1,22,-1
 718 0 l 1,23,-1
 1277 1530 l 1,20,-1
530 822 m 0,24,25
 607 822 607 822 648 884.5 c 128,-1,26
 689 947 689 947 689 1057 c 0,27,28
 689 1112 689 1112 678.5 1157.5 c 128,-1,29
 668 1203 668 1203 648 1235.5 c 128,-1,30
 628 1268 628 1268 599.5 1285.5 c 128,-1,31
 571 1303 571 1303 534 1303 c 0,32,33
 457 1303 457 1303 416 1240.5 c 128,-1,34
 375 1178 375 1178 375 1068 c 0,35,36
 375 1013 375 1013 385.5 967.5 c 128,-1,37
 396 922 396 922 416 890 c 128,-1,38
 436 858 436 858 464.5 840 c 128,-1,39
 493 822 493 822 530 822 c 0,24,25
1300 464 m 0,40,41
 1300 578 1300 578 1338 665.5 c 128,-1,42
 1376 753 1376 753 1439 813 c 128,-1,43
 1502 873 1502 873 1584 904.5 c 128,-1,44
 1666 936 1666 936 1755 936 c 0,45,46
 1864 937 1864 937 1943.5 900.5 c 128,-1,47
 2023 864 2023 864 2074 801 c 128,-1,48
 2125 738 2125 738 2149.5 652.5 c 128,-1,49
 2174 567 2174 567 2174 470 c 0,50,51
 2174 356 2174 356 2136 268 c 128,-1,52
 2098 180 2098 180 2035 120 c 128,-1,53
 1972 60 1972 60 1890 29 c 128,-1,54
 1808 -2 1808 -2 1719 -3 c 1,55,56
 1611 -3 1611 -3 1532 33.5 c 128,-1,57
 1453 70 1453 70 1401.5 133 c 128,-1,58
 1350 196 1350 196 1325 281 c 128,-1,59
 1300 366 1300 366 1300 464 c 0,40,41
1580 474 m 0,60,61
 1580 418 1580 418 1590.5 373 c 128,-1,62
 1601 328 1601 328 1620.5 295.5 c 128,-1,63
 1640 263 1640 263 1668.5 245.5 c 128,-1,64
 1697 228 1697 228 1734 228 c 0,65,66
 1812 228 1812 228 1852.5 290 c 128,-1,67
 1893 352 1893 352 1893 462 c 0,68,69
 1893 517 1893 517 1882.5 562.5 c 128,-1,70
 1872 608 1872 608 1852.5 640.5 c 128,-1,71
 1833 673 1833 673 1804 690.5 c 128,-1,72
 1775 708 1775 708 1738 708 c 0,73,74
 1661 708 1661 708 1620.5 646 c 128,-1,75
 1580 584 1580 584 1580 474 c 0,60,61
EndSplineSet
Ligature2: "'frac' Diagonal Fractions in Latin lookup 10 subtable" zero slash zero
EndChar

StartChar: oslash
Encoding: 248 248 159
Width: 1276
Flags: W
LayerCount: 2
Fore
SplineSet
372 29 m 1,0,1
 286 63 286 63 226 121 c 128,-1,2
 166 179 166 179 128.5 253 c 128,-1,3
 91 327 91 327 74.5 414 c 128,-1,4
 58 501 58 501 59 594 c 1,5,6
 62 731 62 731 106.5 836 c 128,-1,7
 151 941 151 941 229 1012 c 128,-1,8
 307 1083 307 1083 414 1119.5 c 128,-1,9
 521 1156 521 1156 649 1156 c 0,10,11
 683 1156 683 1156 714 1153.5 c 128,-1,12
 745 1151 745 1151 774 1146 c 1,13,-1
 859 1382 l 1,14,-1
 992 1354 l 1,15,-1
 904 1111 l 1,16,17
 990 1076 990 1076 1050.5 1018.5 c 128,-1,18
 1111 961 1111 961 1148.5 887 c 128,-1,19
 1186 813 1186 813 1202 726 c 128,-1,20
 1218 639 1218 639 1217 546 c 0,21,22
 1215 409 1215 409 1170.5 304 c 128,-1,23
 1126 199 1126 199 1048 128 c 128,-1,24
 970 57 970 57 862.5 20.5 c 128,-1,25
 755 -16 755 -16 628 -16 c 0,26,27
 593 -16 593 -16 561 -13.5 c 128,-1,28
 529 -11 529 -11 500 -6 c 1,29,-1
 418 -233 l 1,30,-1
 287 -207 l 1,31,-1
 372 29 l 1,0,1
685 898 m 1,32,33
 675 900 675 900 665.5 901.5 c 128,-1,34
 656 903 656 903 645 903 c 0,35,36
 588 903 588 903 547 881 c 128,-1,37
 506 859 506 859 480 818 c 128,-1,38
 454 777 454 777 442 717 c 128,-1,39
 430 657 430 657 430 582 c 0,40,41
 430 513 430 513 442.5 448.5 c 128,-1,42
 455 384 455 384 482 334 c 1,43,-1
 685 898 l 1,32,33
589 241 m 1,44,45
 610 235 610 235 633 235 c 0,46,47
 744 235 744 235 795 319.5 c 128,-1,48
 846 404 846 404 846 564 c 0,49,50
 846 631 846 631 834 695 c 128,-1,51
 822 759 822 759 794 807 c 1,52,-1
 589 241 l 1,44,45
EndSplineSet
EndChar

StartChar: aogonek
Encoding: 261 261 160
Width: 1188
Flags: W
LayerCount: 2
Fore
SplineSet
55 331 m 0,0,1
 55 434 55 434 110 510.5 c 128,-1,2
 165 587 165 587 262 630 c 1,3,4
 313 651 313 651 369 665 c 128,-1,5
 425 679 425 679 482.5 686.5 c 128,-1,6
 540 694 540 694 596.5 697 c 128,-1,7
 653 700 653 700 706 700 c 1,8,-1
 706 756 l 2,9,10
 706 791 706 791 696.5 816 c 128,-1,11
 687 841 687 841 664.5 857.5 c 128,-1,12
 642 874 642 874 605 882 c 128,-1,13
 568 890 568 890 512 890 c 0,14,15
 465 890 465 890 416.5 881.5 c 128,-1,16
 368 873 368 873 324.5 860.5 c 128,-1,17
 281 848 281 848 246.5 834 c 128,-1,18
 212 820 212 820 194 809 c 1,19,-1
 112 1035 l 1,20,21
 128 1046 128 1046 173 1067 c 128,-1,22
 218 1088 218 1088 284 1108.5 c 128,-1,23
 350 1129 350 1129 433.5 1144.5 c 128,-1,24
 517 1160 517 1160 611 1160 c 0,25,26
 731 1160 731 1160 817.5 1139.5 c 128,-1,27
 904 1119 904 1119 960.5 1068 c 128,-1,28
 1017 1017 1017 1017 1044 931 c 128,-1,29
 1071 845 1071 845 1071 714 c 2,30,-1
 1071 -16 l 1,31,-1
 1014 -16 l 1,32,33
 981 -36 981 -36 951.5 -57 c 128,-1,34
 922 -78 922 -78 901 -102 c 128,-1,35
 880 -126 880 -126 868.5 -153.5 c 128,-1,36
 857 -181 857 -181 859 -212 c 0,37,38
 862 -261 862 -261 896 -280.5 c 128,-1,39
 930 -300 930 -300 984 -300 c 0,40,41
 1010 -300 1010 -300 1038 -294.5 c 128,-1,42
 1066 -289 1066 -289 1095 -280 c 1,43,-1
 1095 -449 l 1,44,45
 1044 -481 1044 -481 983 -498.5 c 128,-1,46
 922 -516 922 -516 839 -516 c 0,47,48
 785 -516 785 -516 735 -502 c 128,-1,49
 685 -488 685 -488 647 -461.5 c 128,-1,50
 609 -435 609 -435 585 -396.5 c 128,-1,51
 561 -358 561 -358 560 -309 c 0,52,53
 558 -257 558 -257 576 -212 c 128,-1,54
 594 -167 594 -167 624.5 -129.5 c 128,-1,55
 655 -92 655 -92 694.5 -62.5 c 128,-1,56
 734 -33 734 -33 775 -10 c 1,57,58
 752 -2 752 -2 739.5 19 c 128,-1,59
 727 40 727 40 727 88 c 2,60,-1
 727 96 l 1,61,62
 704 75 704 75 669.5 55 c 128,-1,63
 635 35 635 35 593.5 19 c 128,-1,64
 552 3 552 3 505 -6.5 c 128,-1,65
 458 -16 458 -16 410 -16 c 0,66,67
 331 -16 331 -16 266 6.5 c 128,-1,68
 201 29 201 29 154 73 c 128,-1,69
 107 117 107 117 81 181.5 c 128,-1,70
 55 246 55 246 55 331 c 0,0,1
415 353 m 0,71,72
 415 316 415 316 427 290 c 128,-1,73
 439 264 439 264 459.5 247.5 c 128,-1,74
 480 231 480 231 506 223 c 128,-1,75
 532 215 532 215 559 215 c 0,76,77
 581 215 581 215 604.5 219.5 c 128,-1,78
 628 224 628 224 648 231.5 c 128,-1,79
 668 239 668 239 683.5 248 c 128,-1,80
 699 257 699 257 706 266 c 1,81,-1
 706 520 l 1,82,83
 683 520 683 520 656.5 517.5 c 128,-1,84
 630 515 630 515 603.5 510.5 c 128,-1,85
 577 506 577 506 554 500 c 128,-1,86
 531 494 531 494 516 487 c 0,87,88
 498 479 498 479 480 469 c 128,-1,89
 462 459 462 459 447.5 443 c 128,-1,90
 433 427 433 427 424 405 c 128,-1,91
 415 383 415 383 415 353 c 0,71,72
EndSplineSet
EndChar

StartChar: Thorn
Encoding: 222 222 161
Width: 1336
Flags: W
LayerCount: 2
Fore
SplineSet
150 1522 m 1,0,-1
 529 1522 l 1,1,-1
 529 1283 l 1,2,3
 584 1286 584 1286 645.5 1290.5 c 128,-1,4
 707 1295 707 1295 770 1295 c 0,5,6
 895 1295 895 1295 994 1263.5 c 128,-1,7
 1093 1232 1093 1232 1162 1169.5 c 128,-1,8
 1231 1107 1231 1107 1267.5 1014 c 128,-1,9
 1304 921 1304 921 1304 798 c 0,10,11
 1304 668 1304 668 1268.5 565 c 128,-1,12
 1233 462 1233 462 1162.5 390 c 128,-1,13
 1092 318 1092 318 987 279.5 c 128,-1,14
 882 241 882 241 743 241 c 0,15,16
 669 241 669 241 615 245 c 128,-1,17
 561 249 561 249 529 252 c 1,18,-1
 529 0 l 1,19,-1
 150 0 l 1,20,-1
 150 1522 l 1,0,-1
529 522 m 1,21,22
 567 514 567 514 603.5 512.5 c 128,-1,23
 640 511 640 511 672 511 c 0,24,25
 728 511 728 511 777.5 522.5 c 128,-1,26
 827 534 827 534 863.5 565.5 c 128,-1,27
 900 597 900 597 921.5 652.5 c 128,-1,28
 943 708 943 708 943 795 c 0,29,30
 943 909 943 909 875.5 970 c 128,-1,31
 808 1031 808 1031 671 1027 c 0,32,33
 638 1026 638 1026 600 1022 c 128,-1,34
 562 1018 562 1018 529 1009 c 1,35,-1
 529 522 l 1,21,22
EndSplineSet
EndChar

StartChar: ordfeminine
Encoding: 170 170 162
Width: 1070
Flags: W
LayerCount: 2
Fore
SplineSet
407 664 m 0,0,1
 338 664 338 664 282.5 684 c 128,-1,2
 227 704 227 704 188.5 741 c 128,-1,3
 150 778 150 778 129.5 830 c 128,-1,4
 109 882 109 882 109 946 c 0,5,6
 109 996 109 996 124.5 1038 c 128,-1,7
 140 1080 140 1080 166.5 1114 c 128,-1,8
 193 1148 193 1148 229 1173 c 128,-1,9
 265 1198 265 1198 307 1214 c 0,10,11
 388 1244 388 1244 479.5 1257 c 128,-1,12
 571 1270 571 1270 662 1270 c 1,13,-1
 662 1308 l 2,14,15
 662 1342 662 1342 653.5 1363.5 c 128,-1,16
 645 1385 645 1385 625.5 1397.5 c 128,-1,17
 606 1410 606 1410 574.5 1415 c 128,-1,18
 543 1420 543 1420 497 1420 c 0,19,20
 462 1420 462 1420 416.5 1412.5 c 128,-1,21
 371 1405 371 1405 327 1394 c 128,-1,22
 283 1383 283 1383 246.5 1370 c 128,-1,23
 210 1357 210 1357 193 1345 c 1,24,-1
 136 1518 l 1,25,26
 150 1531 150 1531 193.5 1550 c 128,-1,27
 237 1569 237 1569 295.5 1586 c 128,-1,28
 354 1603 354 1603 420.5 1615.5 c 128,-1,29
 487 1628 487 1628 547 1628 c 0,30,31
 651 1628 651 1628 728 1611.5 c 128,-1,32
 805 1595 805 1595 856 1557.5 c 128,-1,33
 907 1520 907 1520 932.5 1459.5 c 128,-1,34
 958 1399 958 1399 958 1311 c 2,35,-1
 958 671 l 1,36,-1
 794 671 l 2,37,38
 765 671 765 671 743 671.5 c 128,-1,39
 721 672 721 672 705.5 678.5 c 128,-1,40
 690 685 690 685 682 700.5 c 128,-1,41
 674 716 674 716 674 747 c 2,42,-1
 674 760 l 1,43,44
 661 746 661 746 634.5 729.5 c 128,-1,45
 608 713 608 713 572.5 698.5 c 128,-1,46
 537 684 537 684 494.5 674 c 128,-1,47
 452 664 452 664 407 664 c 0,0,1
516 866 m 0,48,49
 572 866 572 866 610.5 881 c 128,-1,50
 649 896 649 896 662 906 c 1,51,-1
 662 1124 l 1,52,53
 602 1124 602 1124 553.5 1118 c 128,-1,54
 505 1112 505 1112 466 1089 c 0,55,56
 444 1075 444 1075 431 1060 c 128,-1,57
 418 1045 418 1045 411 1029.5 c 128,-1,58
 404 1014 404 1014 401.5 998.5 c 128,-1,59
 399 983 399 983 399 967 c 0,60,61
 399 944 399 944 408.5 925.5 c 128,-1,62
 418 907 418 907 434 893.5 c 128,-1,63
 450 880 450 880 471 873 c 128,-1,64
 492 866 492 866 516 866 c 0,48,49
EndSplineSet
EndChar

StartChar: ordmasculine
Encoding: 186 186 163
Width: 1068
Flags: W
LayerCount: 2
Fore
SplineSet
527 664 m 0,0,1
 414 664 414 664 327 699.5 c 128,-1,2
 240 735 240 735 181 800 c 128,-1,3
 122 865 122 865 92 956.5 c 128,-1,4
 62 1048 62 1048 63 1160 c 0,5,6
 65 1288 65 1288 109 1377.5 c 128,-1,7
 153 1467 153 1467 222.5 1523 c 128,-1,8
 292 1579 292 1579 378 1604.5 c 128,-1,9
 464 1630 464 1630 550 1630 c 0,10,11
 659 1630 659 1630 742.5 1594 c 128,-1,12
 826 1558 826 1558 882.5 1492.5 c 128,-1,13
 939 1427 939 1427 967 1337 c 128,-1,14
 995 1247 995 1247 994 1139 c 0,15,16
 992 1011 992 1011 951.5 921 c 128,-1,17
 911 831 911 831 846 774 c 128,-1,18
 781 717 781 717 697.5 690.5 c 128,-1,19
 614 664 614 664 527 664 c 0,0,1
539 882 m 0,20,21
 615 883 615 883 654 943 c 128,-1,22
 693 1003 693 1003 693 1137 c 0,23,24
 693 1201 693 1201 683.5 1252 c 128,-1,25
 674 1303 674 1303 654.5 1339 c 128,-1,26
 635 1375 635 1375 606 1393.5 c 128,-1,27
 577 1412 577 1412 539 1411 c 0,28,29
 499 1410 499 1410 466.5 1396.5 c 128,-1,30
 434 1383 434 1383 411.5 1353 c 128,-1,31
 389 1323 389 1323 376.5 1275.5 c 128,-1,32
 364 1228 364 1228 364 1160 c 0,33,34
 364 1097 364 1097 375 1045.5 c 128,-1,35
 386 994 386 994 408 957.5 c 128,-1,36
 430 921 430 921 463 901 c 128,-1,37
 496 881 496 881 539 882 c 0,20,21
EndSplineSet
EndChar

StartChar: section
Encoding: 167 167 164
Width: 1358
Flags: W
LayerCount: 2
Fore
SplineSet
292 162 m 1,0,1
 311 147 311 147 343 130 c 128,-1,2
 375 113 375 113 418.5 98 c 128,-1,3
 462 83 462 83 516 73.5 c 128,-1,4
 570 64 570 64 633 64 c 0,5,6
 672 64 672 64 707.5 70.5 c 128,-1,7
 743 77 743 77 770 90.5 c 128,-1,8
 797 104 797 104 813.5 125 c 128,-1,9
 830 146 830 146 830 177 c 256,10,11
 830 208 830 208 801 232.5 c 128,-1,12
 772 257 772 257 724.5 278 c 128,-1,13
 677 299 677 299 616.5 320.5 c 128,-1,14
 556 342 556 342 493 368 c 128,-1,15
 430 394 430 394 369.5 427.5 c 128,-1,16
 309 461 309 461 261.5 507 c 128,-1,17
 214 553 214 553 185 613 c 128,-1,18
 156 673 156 673 156 753 c 0,19,20
 156 847 156 847 207 924.5 c 128,-1,21
 258 1002 258 1002 341 1063 c 1,22,23
 286 1111 286 1111 252.5 1174.5 c 128,-1,24
 219 1238 219 1238 219 1326 c 0,25,26
 219 1417 219 1417 260.5 1482.5 c 128,-1,27
 302 1548 302 1548 369.5 1590.5 c 128,-1,28
 437 1633 437 1633 522.5 1653 c 128,-1,29
 608 1673 608 1673 697 1673 c 0,30,31
 769 1673 769 1673 828.5 1666.5 c 128,-1,32
 888 1660 888 1660 935 1649.5 c 128,-1,33
 982 1639 982 1639 1016.5 1626 c 128,-1,34
 1051 1613 1051 1613 1074 1600 c 1,35,-1
 1025 1338 l 1,36,37
 1009 1350 1009 1350 984 1364 c 128,-1,38
 959 1378 959 1378 922.5 1391 c 128,-1,39
 886 1404 886 1404 837.5 1412 c 128,-1,40
 789 1420 789 1420 728 1420 c 0,41,42
 692 1420 692 1420 658.5 1414 c 128,-1,43
 625 1408 625 1408 599.5 1395.5 c 128,-1,44
 574 1383 574 1383 558.5 1363 c 128,-1,45
 543 1343 543 1343 543 1313 c 0,46,47
 543 1280 543 1280 571.5 1253.5 c 128,-1,48
 600 1227 600 1227 647 1203 c 128,-1,49
 694 1179 694 1179 754 1154.5 c 128,-1,50
 814 1130 814 1130 876.5 1101 c 128,-1,51
 939 1072 939 1072 999 1036 c 128,-1,52
 1059 1000 1059 1000 1106 952.5 c 128,-1,53
 1153 905 1153 905 1181.5 844 c 128,-1,54
 1210 783 1210 783 1210 704 c 0,55,56
 1210 616 1210 616 1171.5 542.5 c 128,-1,57
 1133 469 1133 469 1067 409 c 1,58,59
 1107 365 1107 365 1130.5 309 c 128,-1,60
 1154 253 1154 253 1154 178 c 0,61,62
 1154 80 1154 80 1111 9.5 c 128,-1,63
 1068 -61 1068 -61 998.5 -106 c 128,-1,64
 929 -151 929 -151 841 -172 c 128,-1,65
 753 -193 753 -193 663 -193 c 0,66,67
 591 -193 591 -193 525.5 -184.5 c 128,-1,68
 460 -176 460 -176 405 -162.5 c 128,-1,69
 350 -149 350 -149 308.5 -132.5 c 128,-1,70
 267 -116 267 -116 243 -100 c 1,71,-1
 292 162 l 1,0,1
453 827 m 0,72,73
 453 786 453 786 472 754.5 c 128,-1,74
 491 723 491 723 523.5 698 c 128,-1,75
 556 673 556 673 599 652.5 c 128,-1,76
 642 632 642 632 691 612.5 c 128,-1,77
 740 593 740 593 792 573 c 128,-1,78
 844 553 844 553 894 529 c 1,79,80
 906 557 906 557 913.5 583.5 c 128,-1,81
 921 610 921 610 921 633 c 0,82,83
 921 696 921 696 883.5 740.5 c 128,-1,84
 846 785 846 785 786 821 c 128,-1,85
 726 857 726 857 651.5 889 c 128,-1,86
 577 921 577 921 504 958 c 1,87,88
 483 926 483 926 468 892.5 c 128,-1,89
 453 859 453 859 453 827 c 0,72,73
EndSplineSet
EndChar

StartChar: acute.cap
Encoding: 65545 -1 165
Width: 668
Flags: W
LayerCount: 2
Fore
SplineSet
97 1679 m 1,0,1
 107 1689 107 1689 128.5 1711 c 128,-1,2
 150 1733 150 1733 177.5 1762.5 c 128,-1,3
 205 1792 205 1792 234.5 1825.5 c 128,-1,4
 264 1859 264 1859 290 1891.5 c 128,-1,5
 316 1924 316 1924 335 1952.5 c 128,-1,6
 354 1981 354 1981 361 2000 c 1,7,-1
 618 1870 l 1,8,9
 597 1839 597 1839 569.5 1805.5 c 128,-1,10
 542 1772 542 1772 510.5 1738.5 c 128,-1,11
 479 1705 479 1705 445.5 1673.5 c 128,-1,12
 412 1642 412 1642 380 1616.5 c 128,-1,13
 348 1591 348 1591 319 1573 c 128,-1,14
 290 1555 290 1555 268 1548 c 1,15,-1
 97 1679 l 1,0,1
EndSplineSet
EndChar

StartChar: AE
Encoding: 198 198 166
Width: 1916
Flags: W
LayerCount: 2
Fore
SplineSet
586 1522 m 1,0,-1
 1793 1522 l 1,1,-1
 1793 1232 l 1,2,-1
 1218 1232 l 1,3,-1
 1218 919 l 1,4,-1
 1659 919 l 1,5,-1
 1659 640 l 1,6,-1
 1218 640 l 1,7,-1
 1218 300 l 1,8,-1
 1854 300 l 1,9,-1
 1854 0 l 1,10,-1
 839 0 l 1,11,-1
 839 340 l 1,12,-1
 412 340 l 1,13,-1
 260 0 l 1,14,-1
 -144 0 l 1,15,-1
 586 1522 l 1,0,-1
839 598 m 1,16,-1
 839 1291 l 1,17,-1
 528 598 l 1,18,-1
 839 598 l 1,16,-1
EndSplineSet
EndChar

StartChar: dollar
Encoding: 36 36 167
Width: 1362
Flags: W
LayerCount: 2
Fore
SplineSet
200 368 m 1,0,1
 226 353 226 353 269 336 c 128,-1,2
 312 319 312 319 363.5 305 c 128,-1,3
 415 291 415 291 471 282 c 128,-1,4
 527 273 527 273 578 273 c 0,5,6
 683 273 683 273 744 304 c 128,-1,7
 805 335 805 335 805 405 c 0,8,9
 805 445 805 445 782.5 476 c 128,-1,10
 760 507 760 507 717 535 c 128,-1,11
 674 563 674 563 612 592 c 128,-1,12
 550 621 550 621 471 659 c 1,13,14
 383 700 383 700 321.5 751.5 c 128,-1,15
 260 803 260 803 221 862 c 128,-1,16
 182 921 182 921 164 987 c 128,-1,17
 146 1053 146 1053 146 1124 c 0,18,19
 146 1216 146 1216 179 1287.5 c 128,-1,20
 212 1359 212 1359 270 1410 c 128,-1,21
 328 1461 328 1461 408 1491 c 128,-1,22
 488 1521 488 1521 582 1532 c 1,23,-1
 591 1763 l 1,24,-1
 793 1763 l 1,25,-1
 785 1534 l 1,26,27
 852 1529 852 1529 905 1519.5 c 128,-1,28
 958 1510 958 1510 998.5 1498 c 128,-1,29
 1039 1486 1039 1486 1067.5 1473.5 c 128,-1,30
 1096 1461 1096 1461 1114 1451 c 1,31,-1
 1057 1164 l 1,32,33
 1034 1182 1034 1182 999.5 1198 c 128,-1,34
 965 1214 965 1214 923.5 1226.5 c 128,-1,35
 882 1239 882 1239 834.5 1246 c 128,-1,36
 787 1253 787 1253 738 1253 c 0,37,38
 692 1253 692 1253 654 1245 c 128,-1,39
 616 1237 616 1237 588.5 1220.5 c 128,-1,40
 561 1204 561 1204 546 1180 c 128,-1,41
 531 1156 531 1156 531 1124 c 0,42,43
 531 1090 531 1090 544 1063 c 128,-1,44
 557 1036 557 1036 586 1011 c 128,-1,45
 615 986 615 986 663 960 c 128,-1,46
 711 934 711 934 781 903 c 0,47,48
 976 817 976 817 1079.5 704 c 128,-1,49
 1183 591 1183 591 1183 443 c 0,50,51
 1183 240 1183 240 1066 125 c 128,-1,52
 949 10 949 10 732 -11 c 1,53,-1
 725 -225 l 1,54,-1
 522 -225 l 1,55,-1
 529 -12 l 1,56,57
 461 -7 461 -7 401 3 c 128,-1,58
 341 13 341 13 292 25.5 c 128,-1,59
 243 38 243 38 207.5 51.5 c 128,-1,60
 172 65 172 65 154 77 c 1,61,-1
 200 368 l 1,0,1
EndSplineSet
EndChar

StartChar: Oslash
Encoding: 216 216 168
Width: 1586
Flags: W
LayerCount: 2
Fore
SplineSet
457 47 m 1,0,1
 365 90 365 90 294.5 159 c 128,-1,2
 224 228 224 228 176.5 320 c 128,-1,3
 129 412 129 412 105 525 c 128,-1,4
 81 638 81 638 84 769 c 0,5,6
 88 971 88 971 143.5 1115 c 128,-1,7
 199 1259 199 1259 295.5 1351.5 c 128,-1,8
 392 1444 392 1444 525 1488.5 c 128,-1,9
 658 1533 658 1533 816 1538 c 0,10,11
 862 1539 862 1539 905 1535.5 c 128,-1,12
 948 1532 948 1532 989 1524 c 1,13,-1
 1091 1808 l 1,14,-1
 1226 1779 l 1,15,-1
 1119 1484 l 1,16,17
 1211 1444 1211 1444 1283 1376 c 128,-1,18
 1355 1308 1355 1308 1404 1216.5 c 128,-1,19
 1453 1125 1453 1125 1477.5 1010.5 c 128,-1,20
 1502 896 1502 896 1500 763 c 0,21,22
 1496 561 1496 561 1442.5 415.5 c 128,-1,23
 1389 270 1389 270 1295 175 c 128,-1,24
 1201 80 1201 80 1071.5 33.5 c 128,-1,25
 942 -13 942 -13 786 -16 c 1,26,27
 679 -17 679 -17 584 4 c 1,28,-1
 498 -233 l 1,29,-1
 366 -207 l 1,30,-1
 457 47 l 1,0,1
886 1239 m 1,31,32
 868 1244 868 1244 848.5 1246.5 c 128,-1,33
 829 1249 829 1249 809 1249 c 0,34,35
 739 1249 739 1249 677.5 1225 c 128,-1,36
 616 1201 616 1201 570 1144 c 128,-1,37
 524 1087 524 1087 497.5 993 c 128,-1,38
 471 899 471 899 471 758 c 0,39,40
 471 633 471 633 496 534 c 128,-1,41
 521 435 521 435 573 369 c 1,42,-1
 886 1239 l 1,31,32
685 284 m 1,43,44
 709 275 709 275 736 270 c 128,-1,45
 763 265 763 265 793 265 c 0,46,47
 867 265 867 265 926.5 293 c 128,-1,48
 986 321 986 321 1027.5 381.5 c 128,-1,49
 1069 442 1069 442 1091.5 539 c 128,-1,50
 1114 636 1114 636 1114 774 c 0,51,52
 1114 904 1114 904 1087 1004 c 128,-1,53
 1060 1104 1060 1104 1004 1165 c 1,54,-1
 685 284 l 1,43,44
EndSplineSet
EndChar

StartChar: Lslash
Encoding: 321 321 169
Width: 1166
Flags: W
LayerCount: 2
Fore
SplineSet
153 598 m 1,0,-1
 70 568 l 1,1,-1
 -3 760 l 1,2,-1
 153 817 l 1,3,-1
 153 1522 l 1,4,-1
 541 1522 l 1,5,-1
 541 960 l 1,6,-1
 791 1053 l 1,7,-1
 864 859 l 1,8,-1
 541 740 l 1,9,-1
 541 280 l 1,10,-1
 1040 280 l 1,11,-1
 1040 0 l 1,12,-1
 153 0 l 1,13,-1
 153 598 l 1,0,-1
EndSplineSet
EndChar

StartChar: Euro
Encoding: 8364 8364 170
Width: 1434
Flags: W
LayerCount: 2
Fore
SplineSet
66 676 m 1,0,-1
 244 676 l 1,1,2
 243 687 243 687 243 698 c 128,-1,3
 243 709 243 709 243 720 c 0,4,5
 243 752 243 752 244.5 783 c 128,-1,6
 246 814 246 814 248 844 c 1,7,-1
 97 844 l 1,8,-1
 97 1048 l 1,9,-1
 286 1048 l 1,10,11
 320 1166 320 1166 381 1255.5 c 128,-1,12
 442 1345 442 1345 525.5 1406.5 c 128,-1,13
 609 1468 609 1468 714 1500.5 c 128,-1,14
 819 1533 819 1533 942 1538 c 0,15,16
 1027 1541 1027 1541 1087 1534.5 c 128,-1,17
 1147 1528 1147 1528 1191.5 1517.5 c 128,-1,18
 1236 1507 1236 1507 1269.5 1495.5 c 128,-1,19
 1303 1484 1303 1484 1335 1477 c 1,20,-1
 1282 1194 l 1,21,22
 1256 1210 1256 1210 1229.5 1222.5 c 128,-1,23
 1203 1235 1203 1235 1169.5 1243.5 c 128,-1,24
 1136 1252 1136 1252 1093 1257 c 128,-1,25
 1050 1262 1050 1262 991 1262 c 0,26,27
 880 1262 880 1262 795.5 1211.5 c 128,-1,28
 711 1161 711 1161 666 1048 c 1,29,-1
 1149 1048 l 1,30,-1
 1149 844 l 1,31,-1
 626 844 l 1,32,33
 625 832 625 832 625 820 c 128,-1,34
 625 808 625 808 625 795 c 0,35,36
 625 763 625 763 626 734 c 128,-1,37
 627 705 627 705 629 676 c 1,38,-1
 1103 676 l 1,39,-1
 1103 472 l 1,40,-1
 665 472 l 1,41,42
 683 418 683 418 711.5 375 c 128,-1,43
 740 332 740 332 780 302.5 c 128,-1,44
 820 273 820 273 873 257 c 128,-1,45
 926 241 926 241 995 241 c 0,46,47
 1042 241 1042 241 1087.5 247 c 128,-1,48
 1133 253 1133 253 1173 263.5 c 128,-1,49
 1213 274 1213 274 1246 288 c 128,-1,50
 1279 302 1279 302 1303 318 c 1,51,-1
 1363 44 l 1,52,53
 1331 40 1331 40 1300.5 28 c 128,-1,54
 1270 16 1270 16 1224.5 3.5 c 128,-1,55
 1179 -9 1179 -9 1111 -18.5 c 128,-1,56
 1043 -28 1043 -28 938 -28 c 0,57,58
 798 -28 798 -28 686.5 5.5 c 128,-1,59
 575 39 575 39 491 103 c 128,-1,60
 407 167 407 167 351.5 260 c 128,-1,61
 296 353 296 353 269 472 c 1,62,-1
 66 472 l 1,63,-1
 66 676 l 1,0,-1
EndSplineSet
EndChar

StartChar: mu
Encoding: 181 181 171
Width: 1360
Flags: W
LayerCount: 2
Fore
SplineSet
129 1140 m 1,0,-1
 495 1140 l 1,1,-1
 495 489 l 2,2,3
 495 427 495 427 504.5 385.5 c 128,-1,4
 514 344 514 344 535 318 c 128,-1,5
 556 292 556 292 588.5 281 c 128,-1,6
 621 270 621 270 668 270 c 0,7,8
 685 270 685 270 705.5 273.5 c 128,-1,9
 726 277 726 277 746.5 284 c 128,-1,10
 767 291 767 291 786 301.5 c 128,-1,11
 805 312 805 312 820 326 c 1,12,-1
 820 1140 l 1,13,-1
 1186 1140 l 1,14,-1
 1186 311 l 2,15,16
 1186 288 1186 288 1190.5 273 c 128,-1,17
 1195 258 1195 258 1202 249.5 c 128,-1,18
 1209 241 1209 241 1217.5 238 c 128,-1,19
 1226 235 1226 235 1234 235 c 0,20,21
 1244 235 1244 235 1267 240 c 128,-1,22
 1290 245 1290 245 1318 262 c 1,23,-1
 1349 87 l 1,24,25
 1344 79 1344 79 1322.5 61.5 c 128,-1,26
 1301 44 1301 44 1265.5 26.5 c 128,-1,27
 1230 9 1230 9 1181 -4.5 c 128,-1,28
 1132 -18 1132 -18 1071 -18 c 0,29,30
 996 -18 996 -18 947.5 15 c 128,-1,31
 899 48 899 48 892 120 c 1,32,33
 879 97 879 97 858.5 73 c 128,-1,34
 838 49 838 49 808 29.5 c 128,-1,35
 778 10 778 10 736.5 -3 c 128,-1,36
 695 -16 695 -16 641 -16 c 0,37,38
 572 -16 572 -16 520 -2.5 c 128,-1,39
 468 11 468 11 430 45 c 1,40,-1
 460 -371 l 1,41,-1
 129 -371 l 1,42,-1
 129 1140 l 1,0,-1
EndSplineSet
EndChar

StartChar: eogonek
Encoding: 281 281 172
Width: 1164
Flags: W
LayerCount: 2
Fore
SplineSet
64 575 m 0,0,1
 64 699 64 699 102 805.5 c 128,-1,2
 140 912 140 912 212 990 c 128,-1,3
 284 1068 284 1068 389 1112 c 128,-1,4
 494 1156 494 1156 629 1156 c 0,5,6
 719 1156 719 1156 804 1135 c 128,-1,7
 889 1114 889 1114 955 1061.5 c 128,-1,8
 1021 1009 1021 1009 1061 919.5 c 128,-1,9
 1101 830 1101 830 1102 694 c 0,10,11
 1102 631 1102 631 1099 578 c 128,-1,12
 1096 525 1096 525 1091 488 c 1,13,-1
 427 488 l 1,14,15
 434 423 434 423 456.5 377 c 128,-1,16
 479 331 479 331 515 302 c 128,-1,17
 551 273 551 273 600 259.5 c 128,-1,18
 649 246 649 246 711 246 c 0,19,20
 751 246 751 246 795.5 251 c 128,-1,21
 840 256 840 256 881.5 264 c 128,-1,22
 923 272 923 272 957.5 283 c 128,-1,23
 992 294 992 294 1013 305 c 1,24,-1
 1069 106 l 1,25,26
 1038 81 1038 81 992 59 c 1,27,28
 957 29 957 29 926 -1.5 c 128,-1,29
 895 -32 895 -32 871.5 -65 c 128,-1,30
 848 -98 848 -98 835 -134 c 128,-1,31
 822 -170 822 -170 823 -209 c 0,32,33
 824 -233 824 -233 835 -250.5 c 128,-1,34
 846 -268 846 -268 864 -279 c 128,-1,35
 882 -290 882 -290 905 -295 c 128,-1,36
 928 -300 928 -300 955 -300 c 0,37,38
 981 -300 981 -300 1009 -294.5 c 128,-1,39
 1037 -289 1037 -289 1066 -280 c 1,40,-1
 1066 -449 l 1,41,42
 1015 -481 1015 -481 951.5 -498.5 c 128,-1,43
 888 -516 888 -516 810 -516 c 0,44,45
 756 -516 756 -516 706 -501.5 c 128,-1,46
 656 -487 656 -487 618 -459.5 c 128,-1,47
 580 -432 580 -432 556 -393 c 128,-1,48
 532 -354 532 -354 531 -305 c 1,49,50
 529 -257 529 -257 542.5 -214.5 c 128,-1,51
 556 -172 556 -172 580 -134.5 c 128,-1,52
 604 -97 604 -97 637 -66.5 c 128,-1,53
 670 -36 670 -36 706 -12 c 1,54,55
 686 -14 686 -14 666 -15 c 128,-1,56
 646 -16 646 -16 625 -16 c 0,57,58
 489 -16 489 -16 384.5 24.5 c 128,-1,59
 280 65 280 65 208.5 141 c 128,-1,60
 137 217 137 217 100.5 326.5 c 128,-1,61
 64 436 64 436 64 575 c 0,0,1
767 668 m 1,62,63
 774 792 774 792 740.5 850 c 128,-1,64
 707 908 707 908 621 908 c 0,65,66
 580 908 580 908 547.5 895.5 c 128,-1,67
 515 883 515 883 490.5 855 c 128,-1,68
 466 827 466 827 450.5 781 c 128,-1,69
 435 735 435 735 428 668 c 1,70,-1
 767 668 l 1,62,63
EndSplineSet
EndChar

StartChar: thorn
Encoding: 254 254 173
Width: 1315
Flags: W
LayerCount: 2
Fore
SplineSet
493 -169 m 1,0,-1
 493 -507 l 1,1,-1
 123 -507 l 1,2,-1
 123 1661 l 1,3,-1
 489 1661 l 1,4,-1
 489 1247 l 1,5,-1
 481 1040 l 1,6,7
 502 1059 502 1059 531 1079.5 c 128,-1,8
 560 1100 560 1100 599 1117 c 128,-1,9
 638 1134 638 1134 688.5 1145 c 128,-1,10
 739 1156 739 1156 802 1156 c 0,11,12
 893 1156 893 1156 975.5 1123 c 128,-1,13
 1058 1090 1058 1090 1120 1022.5 c 128,-1,14
 1182 955 1182 955 1219 853 c 128,-1,15
 1256 751 1256 751 1256 612 c 0,16,17
 1256 468 1256 468 1213 350.5 c 128,-1,18
 1170 233 1170 233 1090.5 150.5 c 128,-1,19
 1011 68 1011 68 899.5 23 c 128,-1,20
 788 -22 788 -22 651 -22 c 0,21,22
 569 -22 569 -22 488 -13 c 1,23,-1
 493 -169 l 1,0,-1
489 259 m 1,24,25
 506 241 506 241 545.5 232.5 c 128,-1,26
 585 224 585 224 646 224 c 0,27,28
 694 224 694 224 735.5 248.5 c 128,-1,29
 777 273 777 273 807.5 319.5 c 128,-1,30
 838 366 838 366 855.5 434 c 128,-1,31
 873 502 873 502 873 590 c 0,32,33
 873 676 873 676 859 733 c 128,-1,34
 845 790 845 790 819 823.5 c 128,-1,35
 793 857 793 857 757 871 c 128,-1,36
 721 885 721 885 678 885 c 0,37,38
 618 885 618 885 567.5 865.5 c 128,-1,39
 517 846 517 846 489 824 c 1,40,-1
 489 259 l 1,24,25
EndSplineSet
EndChar

StartChar: lslash
Encoding: 322 322 174
Width: 686
Flags: W
LayerCount: 2
Fore
SplineSet
160 692 m 1,0,-1
 19 641 l 1,1,-1
 19 864 l 1,2,-1
 160 917 l 1,3,-1
 160 1661 l 1,4,-1
 526 1661 l 1,5,-1
 526 1057 l 1,6,-1
 702 1124 l 1,7,-1
 702 891 l 1,8,-1
 526 826 l 1,9,-1
 526 0 l 1,10,-1
 160 0 l 1,11,-1
 160 692 l 1,0,-1
EndSplineSet
EndChar

StartChar: oe
Encoding: 339 339 175
Width: 1916
Flags: W
LayerCount: 2
Fore
SplineSet
59 594 m 0,0,1
 61 731 61 731 104.5 836 c 128,-1,2
 148 941 148 941 224.5 1012 c 128,-1,3
 301 1083 301 1083 406.5 1119.5 c 128,-1,4
 512 1156 512 1156 638 1156 c 0,5,6
 765 1156 765 1156 857 1123 c 128,-1,7
 949 1090 949 1090 1013 1031 c 1,8,9
 1082 1091 1082 1091 1174.5 1123.5 c 128,-1,10
 1267 1156 1267 1156 1382 1156 c 0,11,12
 1442 1156 1442 1156 1500 1147.5 c 128,-1,13
 1558 1139 1558 1139 1610 1118.5 c 128,-1,14
 1662 1098 1662 1098 1706.5 1064.5 c 128,-1,15
 1751 1031 1751 1031 1783 980.5 c 128,-1,16
 1815 930 1815 930 1833 861 c 128,-1,17
 1851 792 1851 792 1851 701 c 0,18,19
 1851 638 1851 638 1848 581.5 c 128,-1,20
 1845 525 1845 525 1840 488 c 1,21,-1
 1183 488 l 1,22,23
 1190 423 1190 423 1211.5 377 c 128,-1,24
 1233 331 1233 331 1268 302 c 128,-1,25
 1303 273 1303 273 1351.5 259.5 c 128,-1,26
 1400 246 1400 246 1460 246 c 0,27,28
 1500 246 1500 246 1544.5 251 c 128,-1,29
 1589 256 1589 256 1630.5 264 c 128,-1,30
 1672 272 1672 272 1706.5 283 c 128,-1,31
 1741 294 1741 294 1762 305 c 1,32,-1
 1818 106 l 1,33,34
 1790 83 1790 83 1745 61 c 128,-1,35
 1700 39 1700 39 1642.5 22 c 128,-1,36
 1585 5 1585 5 1517 -5.5 c 128,-1,37
 1449 -16 1449 -16 1374 -16 c 0,38,39
 1254 -16 1254 -16 1160.5 15.5 c 128,-1,40
 1067 47 1067 47 999 107 c 1,41,42
 926 46 926 46 829.5 15 c 128,-1,43
 733 -16 733 -16 617 -16 c 0,44,45
 460 -16 460 -16 352.5 33.5 c 128,-1,46
 245 83 245 83 179 167 c 128,-1,47
 113 251 113 251 85 361.5 c 128,-1,48
 57 472 57 472 59 594 c 0,0,1
1520 668 m 1,49,50
 1527 793 1527 793 1493.5 850.5 c 128,-1,51
 1460 908 1460 908 1374 908 c 0,52,53
 1334 908 1334 908 1302 895.5 c 128,-1,54
 1270 883 1270 883 1246 855 c 128,-1,55
 1222 827 1222 827 1206.5 781 c 128,-1,56
 1191 735 1191 735 1184 668 c 1,57,-1
 1520 668 l 1,49,50
625 235 m 0,58,59
 681 235 681 235 719 256.5 c 128,-1,60
 757 278 757 278 780 319.5 c 128,-1,61
 803 361 803 361 813 422.5 c 128,-1,62
 823 484 823 484 823 564 c 0,63,64
 823 627 823 627 813.5 687.5 c 128,-1,65
 804 748 804 748 781.5 796 c 128,-1,66
 759 844 759 844 722.5 873.5 c 128,-1,67
 686 903 686 903 631 903 c 0,68,69
 577 903 577 903 540.5 881 c 128,-1,70
 504 859 504 859 481.5 818 c 128,-1,71
 459 777 459 777 449.5 717 c 128,-1,72
 440 657 440 657 440 582 c 0,73,74
 440 517 440 517 449.5 454.5 c 128,-1,75
 459 392 459 392 480.5 343.5 c 128,-1,76
 502 295 502 295 537.5 265 c 128,-1,77
 573 235 573 235 625 235 c 0,58,59
EndSplineSet
EndChar

StartChar: OE
Encoding: 338 338 177
Width: 2113
Flags: W
LayerCount: 2
Fore
SplineSet
769 -16 m 0,0,1
 602 -16 602 -16 473 42.5 c 128,-1,2
 344 101 344 101 256 205.5 c 128,-1,3
 168 310 168 310 124 454 c 128,-1,4
 80 598 80 598 83 769 c 0,5,6
 87 957 87 957 142.5 1101 c 128,-1,7
 198 1245 198 1245 293.5 1342 c 128,-1,8
 389 1439 389 1439 518.5 1488.5 c 128,-1,9
 648 1538 648 1538 799 1538 c 0,10,11
 871 1538 871 1538 931.5 1525.5 c 128,-1,12
 992 1513 992 1513 1037 1485 c 1,13,-1
 1037 1522 l 1,14,-1
 1990 1522 l 1,15,-1
 1990 1232 l 1,16,-1
 1415 1232 l 1,17,-1
 1415 919 l 1,18,-1
 1844 919 l 1,19,-1
 1844 640 l 1,20,-1
 1415 640 l 1,21,-1
 1415 300 l 1,22,-1
 2051 300 l 1,23,-1
 2051 0 l 1,24,-1
 1037 0 l 1,25,-1
 1037 45 l 1,26,27
 987 13 987 13 917 -1.5 c 128,-1,28
 847 -16 847 -16 769 -16 c 0,0,1
793 265 m 0,29,30
 878 265 878 265 938.5 287.5 c 128,-1,31
 999 310 999 310 1037 368 c 1,32,-1
 1037 1143 l 1,33,34
 1003 1188 1003 1188 949.5 1218.5 c 128,-1,35
 896 1249 896 1249 817 1249 c 0,36,37
 779 1249 779 1249 738 1242 c 128,-1,38
 697 1235 697 1235 658 1216 c 128,-1,39
 619 1197 619 1197 584 1163 c 128,-1,40
 549 1129 549 1129 523 1074.5 c 128,-1,41
 497 1020 497 1020 481.5 942 c 128,-1,42
 466 864 466 864 466 758 c 0,43,44
 466 516 466 516 552 390.5 c 128,-1,45
 638 265 638 265 793 265 c 0,29,30
EndSplineSet
EndChar

StartChar: hbar
Encoding: 295 295 191
Width: 1314
Flags: W
LayerCount: 2
Fore
SplineSet
125 1297 m 1,0,-1
 -4 1297 l 1,1,-1
 -4 1497 l 1,2,-1
 125 1497 l 1,3,-1
 125 1661 l 1,4,-1
 490 1661 l 1,5,-1
 490 1497 l 1,6,-1
 703 1497 l 1,7,-1
 703 1297 l 1,8,-1
 490 1297 l 1,9,-1
 490 1233 l 1,10,-1
 473 1021 l 1,11,12
 502 1045 502 1045 541 1069 c 128,-1,13
 580 1093 580 1093 624 1112.5 c 128,-1,14
 668 1132 668 1132 715.5 1144 c 128,-1,15
 763 1156 763 1156 809 1158 c 0,16,17
 902 1161 902 1161 973.5 1138.5 c 128,-1,18
 1045 1116 1045 1116 1093.5 1063.5 c 128,-1,19
 1142 1011 1142 1011 1167 925.5 c 128,-1,20
 1192 840 1192 840 1192 715 c 2,21,-1
 1192 0 l 1,22,-1
 826 0 l 1,23,-1
 826 637 l 2,24,25
 826 703 826 703 817.5 745.5 c 128,-1,26
 809 788 809 788 791 812.5 c 128,-1,27
 773 837 773 837 745.5 846.5 c 128,-1,28
 718 856 718 856 681 855 c 0,29,30
 664 855 664 855 640 851 c 128,-1,31
 616 847 616 847 589.5 837.5 c 128,-1,32
 563 828 563 828 537 813.5 c 128,-1,33
 511 799 511 799 490 778 c 1,34,-1
 490 0 l 1,35,-1
 125 0 l 1,36,-1
 125 1297 l 1,0,-1
EndSplineSet
EndChar

StartChar: trademark
Encoding: 8482 8482 192
Width: 2218
Flags: W
LayerCount: 2
Fore
SplineSet
994 1543 m 1,0,-1
 1376 1543 l 1,1,-1
 1473 1228 l 1,2,-1
 1507 1085 l 1,3,-1
 1535 1228 l 1,4,-1
 1628 1543 l 1,5,-1
 2000 1543 l 1,6,-1
 2074 767 l 1,7,-1
 1836 767 l 1,8,-1
 1801 1223 l 1,9,-1
 1795 1346 l 1,10,-1
 1743 1175 l 1,11,-1
 1598 767 l 1,12,-1
 1426 767 l 1,13,-1
 1267 1175 l 1,14,-1
 1208 1347 l 1,15,-1
 1205 1223 l 1,16,-1
 1193 767 l 1,17,-1
 950 767 l 1,18,-1
 994 1543 l 1,0,-1
371 1333 m 1,19,-1
 126 1332 l 1,20,-1
 126 1543 l 1,21,-1
 863 1543 l 1,22,-1
 863 1332 l 1,23,-1
 610 1333 l 1,24,-1
 610 767 l 1,25,-1
 371 767 l 1,26,-1
 371 1333 l 1,19,-1
EndSplineSet
EndChar

StartChar: perthousand
Encoding: 8240 8240 193
Width: 3230
Flags: W
LayerCount: 2
Fore
SplineSet
2260 464 m 0,0,1
 2260 578 2260 578 2298 665.5 c 128,-1,2
 2336 753 2336 753 2399 813 c 128,-1,3
 2462 873 2462 873 2544 904.5 c 128,-1,4
 2626 936 2626 936 2715 936 c 0,5,6
 2824 937 2824 937 2903.5 900.5 c 128,-1,7
 2983 864 2983 864 3034 801 c 128,-1,8
 3085 738 3085 738 3109.5 652.5 c 128,-1,9
 3134 567 3134 567 3134 470 c 0,10,11
 3134 356 3134 356 3096 268 c 128,-1,12
 3058 180 3058 180 2995 120 c 128,-1,13
 2932 60 2932 60 2850 29 c 128,-1,14
 2768 -2 2768 -2 2679 -3 c 1,15,16
 2571 -3 2571 -3 2492 33.5 c 128,-1,17
 2413 70 2413 70 2361.5 133 c 128,-1,18
 2310 196 2310 196 2285 281 c 128,-1,19
 2260 366 2260 366 2260 464 c 0,0,1
2540 474 m 0,20,21
 2540 418 2540 418 2550.5 373 c 128,-1,22
 2561 328 2561 328 2581 295.5 c 128,-1,23
 2601 263 2601 263 2629.5 245.5 c 128,-1,24
 2658 228 2658 228 2695 228 c 0,25,26
 2772 228 2772 228 2812.5 290 c 128,-1,27
 2853 352 2853 352 2853 462 c 0,28,29
 2853 517 2853 517 2842.5 562.5 c 128,-1,30
 2832 608 2832 608 2812.5 640.5 c 128,-1,31
 2793 673 2793 673 2764.5 690.5 c 128,-1,32
 2736 708 2736 708 2699 708 c 0,33,34
 2622 708 2622 708 2581 646 c 128,-1,35
 2540 584 2540 584 2540 474 c 0,20,21
515 592 m 1,36,37
 407 592 407 592 328 628 c 128,-1,38
 249 664 249 664 197.5 727.5 c 128,-1,39
 146 791 146 791 121 876 c 128,-1,40
 96 961 96 961 96 1059 c 0,41,42
 96 1173 96 1173 133.5 1260.5 c 128,-1,43
 171 1348 171 1348 234 1408 c 128,-1,44
 297 1468 297 1468 379 1499.5 c 128,-1,45
 461 1531 461 1531 550 1531 c 0,46,47
 660 1532 660 1532 739 1495.5 c 128,-1,48
 818 1459 818 1459 869 1396 c 128,-1,49
 920 1333 920 1333 944.5 1247.5 c 128,-1,50
 969 1162 969 1162 969 1065 c 0,51,52
 969 951 969 951 931 863.5 c 128,-1,53
 893 776 893 776 830 716 c 128,-1,54
 767 656 767 656 685 624.5 c 128,-1,55
 603 593 603 593 515 592 c 1,36,37
1277 1530 m 1,56,-1
 1557 1530 l 1,57,-1
 996 0 l 1,58,-1
 718 0 l 1,59,-1
 1277 1530 l 1,56,-1
530 822 m 0,60,61
 607 822 607 822 648 884.5 c 128,-1,62
 689 947 689 947 689 1057 c 0,63,64
 689 1112 689 1112 678.5 1157.5 c 128,-1,65
 668 1203 668 1203 648 1235.5 c 128,-1,66
 628 1268 628 1268 599.5 1285.5 c 128,-1,67
 571 1303 571 1303 534 1303 c 0,68,69
 457 1303 457 1303 416 1240.5 c 128,-1,70
 375 1178 375 1178 375 1068 c 0,71,72
 375 1013 375 1013 385.5 967.5 c 128,-1,73
 396 922 396 922 416 890 c 128,-1,74
 436 858 436 858 464.5 840 c 128,-1,75
 493 822 493 822 530 822 c 0,60,61
1300 464 m 0,76,77
 1300 578 1300 578 1338 665.5 c 128,-1,78
 1376 753 1376 753 1439 813 c 128,-1,79
 1502 873 1502 873 1584 904.5 c 128,-1,80
 1666 936 1666 936 1755 936 c 0,81,82
 1864 937 1864 937 1943.5 900.5 c 128,-1,83
 2023 864 2023 864 2074 801 c 128,-1,84
 2125 738 2125 738 2149.5 652.5 c 128,-1,85
 2174 567 2174 567 2174 470 c 0,86,87
 2174 356 2174 356 2136 268 c 128,-1,88
 2098 180 2098 180 2035 120 c 128,-1,89
 1972 60 1972 60 1890 29 c 128,-1,90
 1808 -2 1808 -2 1719 -3 c 1,91,92
 1611 -3 1611 -3 1532 33.5 c 128,-1,93
 1453 70 1453 70 1401.5 133 c 128,-1,94
 1350 196 1350 196 1325 281 c 128,-1,95
 1300 366 1300 366 1300 464 c 0,76,77
1580 474 m 0,96,97
 1580 418 1580 418 1590.5 373 c 128,-1,98
 1601 328 1601 328 1620.5 295.5 c 128,-1,99
 1640 263 1640 263 1668.5 245.5 c 128,-1,100
 1697 228 1697 228 1734 228 c 0,101,102
 1812 228 1812 228 1852.5 290 c 128,-1,103
 1893 352 1893 352 1893 462 c 0,104,105
 1893 517 1893 517 1882.5 562.5 c 128,-1,106
 1872 608 1872 608 1852.5 640.5 c 128,-1,107
 1833 673 1833 673 1804 690.5 c 128,-1,108
 1775 708 1775 708 1738 708 c 0,109,110
 1661 708 1661 708 1620.5 646 c 128,-1,111
 1580 584 1580 584 1580 474 c 0,96,97
EndSplineSet
Ligature2: "'frac' Diagonal Fractions in Latin lookup 10 subtable" zero slash zero zero
EndChar

StartChar: Eth
Encoding: 208 208 194
Width: 1538
Flags: W
LayerCount: 2
Fore
SplineSet
153 677 m 1,0,-1
 40 677 l 1,1,-1
 40 911 l 1,2,-1
 153 911 l 1,3,-1
 153 1522 l 1,4,-1
 330 1522 l 2,5,6
 359 1522 359 1522 394.5 1524.5 c 128,-1,7
 430 1527 430 1527 475 1530 c 128,-1,8
 520 1533 520 1533 577 1535.5 c 128,-1,9
 634 1538 634 1538 706 1538 c 0,10,11
 899 1538 899 1538 1039.5 1488.5 c 128,-1,12
 1180 1439 1180 1439 1271.5 1344 c 128,-1,13
 1363 1249 1363 1249 1407 1111.5 c 128,-1,14
 1451 974 1451 974 1451 799 c 0,15,16
 1451 604 1451 604 1399 452 c 128,-1,17
 1347 300 1347 300 1248.5 195.5 c 128,-1,18
 1150 91 1150 91 1007 37 c 128,-1,19
 864 -17 864 -17 682 -16 c 0,20,21
 618 -16 618 -16 566.5 -13.5 c 128,-1,22
 515 -11 515 -11 473 -8 c 128,-1,23
 431 -5 431 -5 396.5 -2.5 c 128,-1,24
 362 0 362 0 333 0 c 2,25,-1
 153 0 l 1,26,-1
 153 677 l 1,0,-1
532 283 m 1,27,28
 562 275 562 275 608.5 271.5 c 128,-1,29
 655 268 655 268 706 268 c 0,30,31
 787 269 787 269 852 297.5 c 128,-1,32
 917 326 917 326 962 386.5 c 128,-1,33
 1007 447 1007 447 1031.5 541 c 128,-1,34
 1056 635 1056 635 1056 766 c 0,35,36
 1056 904 1056 904 1034 998.5 c 128,-1,37
 1012 1093 1012 1093 967 1151 c 128,-1,38
 922 1209 922 1209 852.5 1234 c 128,-1,39
 783 1259 783 1259 688 1259 c 0,40,41
 668 1259 668 1259 646.5 1258 c 128,-1,42
 625 1257 625 1257 604 1255 c 128,-1,43
 583 1253 583 1253 564.5 1251 c 128,-1,44
 546 1249 546 1249 532 1247 c 1,45,-1
 532 911 l 1,46,-1
 829 911 l 1,47,-1
 829 677 l 1,48,-1
 532 677 l 1,49,-1
 532 283 l 1,27,28
EndSplineSet
EndChar

StartChar: florin
Encoding: 402 402 195
Width: 1169
Flags: W
LayerCount: 2
Fore
SplineSet
337 896 m 1,0,-1
 178 896 l 1,1,-1
 196 1106 l 1,2,-1
 357 1140 l 1,3,-1
 366 1235 l 2,4,5
 378 1364 378 1364 428 1450.5 c 128,-1,6
 478 1537 478 1537 551 1589 c 128,-1,7
 624 1641 624 1641 712.5 1662.5 c 128,-1,8
 801 1684 801 1684 891 1684 c 0,9,10
 925 1684 925 1684 958 1681.5 c 128,-1,11
 991 1679 991 1679 1018.5 1675.5 c 128,-1,12
 1046 1672 1046 1672 1066 1668 c 128,-1,13
 1086 1664 1086 1664 1095 1661 c 1,14,-1
 1073 1399 l 1,15,16
 1056 1411 1056 1411 1017 1418 c 128,-1,17
 978 1425 978 1425 921 1425 c 0,18,19
 844 1425 844 1425 795 1371 c 128,-1,20
 746 1317 746 1317 735 1205 c 1,21,-1
 728 1140 l 1,22,-1
 988 1140 l 1,23,-1
 968 896 l 1,24,-1
 708 896 l 1,25,-1
 597 -356 l 1,26,-1
 227 -356 l 1,27,-1
 337 896 l 1,0,-1
EndSplineSet
EndChar

StartChar: Delta
Encoding: 8710 8710 197
Width: 1578
Flags: W
LayerCount: 2
Fore
SplineSet
745 1508 m 1,0,-1
 784 1508 l 1,1,-1
 1521 27 l 1,2,-1
 1505 0 l 1,3,-1
 69 0 l 1,4,-1
 55 22 l 1,5,-1
 745 1508 l 1,0,-1
1055 286 m 1,6,-1
 760 901 l 1,7,-1
 484 286 l 1,8,-1
 1055 286 l 1,6,-1
EndSplineSet
EndChar

StartChar: lessequal
Encoding: 8804 8804 198
Width: 1368
Flags: W
LayerCount: 2
Fore
SplineSet
164 887 m 1,0,-1
 1133 1307 l 1,1,-1
 1133 1008 l 1,2,-1
 571 800 l 1,3,-1
 1133 599 l 1,4,-1
 1133 309 l 1,5,-1
 164 725 l 1,6,-1
 164 887 l 1,0,-1
164 231 m 1,7,-1
 1133 231 l 1,8,-1
 1133 -2 l 1,9,-1
 164 -2 l 1,10,-1
 164 231 l 1,7,-1
EndSplineSet
EndChar

StartChar: notequal
Encoding: 8800 8800 200
Width: 1421
Flags: W
LayerCount: 2
Fore
SplineSet
526 537 m 1,0,-1
 531 551 l 1,1,-1
 691 1031 l 1,2,-1
 698 1045 l 1,3,-1
 794 1343 l 1,4,-1
 1005 1343 l 1,5,-1
 900 1044 l 1,6,-1
 893 1031 l 1,7,-1
 736 550 l 1,8,-1
 730 535 l 1,9,-1
 613 181 l 1,10,-1
 405 181 l 1,11,-1
 526 537 l 1,0,-1
249 1153 m 1,12,-1
 1173 1153 l 1,13,-1
 1173 906 l 1,14,-1
 249 906 l 1,15,-1
 249 1153 l 1,12,-1
249 645 m 1,16,-1
 1173 645 l 1,17,-1
 1173 397 l 1,18,-1
 249 397 l 1,19,-1
 249 645 l 1,16,-1
EndSplineSet
EndChar

StartChar: lozenge
Encoding: 9674 9674 201
Width: 1331
Flags: W
LayerCount: 2
Fore
SplineSet
50 767 m 1,0,-1
 50 780 l 1,1,-1
 663 1548 l 1,2,-1
 666 1548 l 1,3,-1
 1278 780 l 1,4,-1
 1278 767 l 1,5,-1
 666 -1 l 1,6,-1
 662 -1 l 1,7,-1
 50 767 l 1,0,-1
665 409 m 1,8,-1
 941 773 l 1,9,-1
 941 776 l 1,10,-1
 665 1120 l 1,11,-1
 663 1120 l 1,12,-1
 387 776 l 1,13,-1
 387 770 l 1,14,-1
 663 409 l 1,15,-1
 665 409 l 1,8,-1
EndSplineSet
EndChar

StartChar: Omega
Encoding: 8486 8486 202
Width: 1782
Flags: W
LayerCount: 2
Fore
SplineSet
135 248 m 1,0,-1
 439 248 l 1,1,2
 383 293 383 293 329.5 357.5 c 128,-1,3
 276 422 276 422 235 500 c 128,-1,4
 194 578 194 578 169.5 667.5 c 128,-1,5
 145 757 145 757 147 853 c 0,6,7
 149 978 149 978 178.5 1077.5 c 128,-1,8
 208 1177 208 1177 259.5 1254 c 128,-1,9
 311 1331 311 1331 381 1386 c 128,-1,10
 451 1441 451 1441 533.5 1476.5 c 128,-1,11
 616 1512 616 1512 708.5 1528.5 c 128,-1,12
 801 1545 801 1545 897 1545 c 0,13,14
 1059 1545 1059 1545 1194.5 1504.5 c 128,-1,15
 1330 1464 1330 1464 1427 1379.5 c 128,-1,16
 1524 1295 1524 1295 1577 1163.5 c 128,-1,17
 1630 1032 1630 1032 1628 850 c 0,18,19
 1627 757 1627 757 1604 668.5 c 128,-1,20
 1581 580 1581 580 1542 502.5 c 128,-1,21
 1503 425 1503 425 1451 360 c 128,-1,22
 1399 295 1399 295 1339 248 c 1,23,-1
 1653 248 l 1,24,-1
 1653 0 l 1,25,-1
 1018 0 l 1,26,-1
 1018 210 l 1,27,28
 1053 230 1053 230 1094 280 c 128,-1,29
 1135 330 1135 330 1170 408 c 128,-1,30
 1205 486 1205 486 1228 589.5 c 128,-1,31
 1251 693 1251 693 1251 819 c 0,32,33
 1251 943 1251 943 1222.5 1032 c 128,-1,34
 1194 1121 1194 1121 1145 1177.5 c 128,-1,35
 1096 1234 1096 1234 1032 1260.5 c 128,-1,36
 968 1287 968 1287 897 1287 c 0,37,38
 820 1287 820 1287 752.5 1261 c 128,-1,39
 685 1235 685 1235 634.5 1178.5 c 128,-1,40
 584 1122 584 1122 554.5 1033.5 c 128,-1,41
 525 945 525 945 525 820 c 0,42,43
 525 694 525 694 551.5 590 c 128,-1,44
 578 486 578 486 618 408.5 c 128,-1,45
 658 331 658 331 703.5 280.5 c 128,-1,46
 749 230 749 230 787 210 c 1,47,-1
 787 0 l 1,48,-1
 135 0 l 1,49,-1
 135 248 l 1,0,-1
EndSplineSet
EndChar

StartChar: radical
Encoding: 8730 8730 203
Width: 1602
Flags: W
LayerCount: 2
Fore
SplineSet
78 575 m 1,0,-1
 360 716 l 1,1,-1
 616 716 l 1,2,-1
 834 72 l 1,3,-1
 1320 1870 l 1,4,-1
 1681 1870 l 1,5,-1
 993 -354 l 1,6,-1
 681 -354 l 1,7,-1
 368 383 l 1,8,-1
 202 300 l 1,9,-1
 78 575 l 1,0,-1
EndSplineSet
EndChar

StartChar: summation
Encoding: 8721 8721 204
Width: 1452
Flags: W
LayerCount: 2
Fore
SplineSet
671 683 m 1,0,-1
 124 1442 l 1,1,-1
 154 1522 l 1,2,-1
 1250 1522 l 1,3,-1
 1250 1248 l 1,4,-1
 638 1248 l 1,5,-1
 1033 689 l 1,6,-1
 640 92 l 1,7,-1
 1306 92 l 1,8,-1
 1306 -170 l 1,9,-1
 150 -170 l 1,10,-1
 124 -100 l 1,11,-1
 671 683 l 1,0,-1
EndSplineSet
EndChar

StartChar: integral
Encoding: 8747 8747 205
Width: 1042
Flags: W
LayerCount: 2
Fore
SplineSet
172 -176 m 1,0,1
 181 -191 181 -191 203.5 -208.5 c 128,-1,2
 226 -226 226 -226 255.5 -241.5 c 128,-1,3
 285 -257 285 -257 318 -267.5 c 128,-1,4
 351 -278 351 -278 383 -278 c 0,5,6
 441 -278 441 -278 479 -259 c 128,-1,7
 517 -240 517 -240 539 -206.5 c 128,-1,8
 561 -173 561 -173 569.5 -127 c 128,-1,9
 578 -81 578 -81 577 -26 c 0,10,11
 575 72 575 72 543.5 170 c 128,-1,12
 512 268 512 268 465.5 367.5 c 128,-1,13
 419 467 419 467 365 567 c 128,-1,14
 311 667 311 667 264.5 769 c 128,-1,15
 218 871 218 871 186.5 974 c 128,-1,16
 155 1077 155 1077 154 1182 c 1,17,18
 152 1286 152 1286 180.5 1377.5 c 128,-1,19
 209 1469 209 1469 271.5 1537 c 128,-1,20
 334 1605 334 1605 431 1644.5 c 128,-1,21
 528 1684 528 1684 663 1684 c 0,22,23
 715 1684 715 1684 765 1674 c 128,-1,24
 815 1664 815 1664 858.5 1646 c 128,-1,25
 902 1628 902 1628 935.5 1603 c 128,-1,26
 969 1578 969 1578 987 1547 c 1,27,-1
 857 1366 l 1,28,29
 851 1378 851 1378 835 1392.5 c 128,-1,30
 819 1407 819 1407 796 1420 c 128,-1,31
 773 1433 773 1433 743.5 1442 c 128,-1,32
 714 1451 714 1451 681 1451 c 0,33,34
 574 1451 574 1451 521.5 1384.5 c 128,-1,35
 469 1318 469 1318 471 1197 c 0,36,37
 472 1100 472 1100 503.5 1002.5 c 128,-1,38
 535 905 535 905 581.5 807 c 128,-1,39
 628 709 628 709 682 610 c 128,-1,40
 736 511 736 511 782.5 410 c 128,-1,41
 829 309 829 309 861 205.5 c 128,-1,42
 893 102 893 102 895 -4 c 0,43,44
 896 -67 896 -67 884.5 -129.5 c 128,-1,45
 873 -192 873 -192 848 -249 c 128,-1,46
 823 -306 823 -306 783.5 -355.5 c 128,-1,47
 744 -405 744 -405 688.5 -441 c 128,-1,48
 633 -477 633 -477 562 -497.5 c 128,-1,49
 491 -518 491 -518 402 -518 c 0,50,51
 357 -518 357 -518 306 -508 c 128,-1,52
 255 -498 255 -498 208.5 -480.5 c 128,-1,53
 162 -463 162 -463 125 -439 c 128,-1,54
 88 -415 88 -415 70 -387 c 1,55,-1
 172 -176 l 1,56,-1
 172 -176 l 1,0,1
EndSplineSet
EndChar

StartChar: pi
Encoding: 960 960 206
Width: 1556
Flags: W
LayerCount: 2
Fore
SplineSet
112 126 m 1,0,1
 125 129 125 129 149.5 140 c 128,-1,2
 174 151 174 151 198 170 c 0,3,4
 237 201 237 201 262.5 237 c 128,-1,5
 288 273 288 273 304 313 c 128,-1,6
 320 353 320 353 328.5 396.5 c 128,-1,7
 337 440 337 440 342 487 c 2,8,-1
 386 854 l 1,9,-1
 317 854 l 2,10,11
 277 854 277 854 248 847 c 128,-1,12
 219 840 219 840 197 828.5 c 128,-1,13
 175 817 175 817 158.5 802.5 c 128,-1,14
 142 788 142 788 127 774 c 1,15,-1
 2 867 l 1,16,17
 3 880 3 880 6 900 c 128,-1,18
 9 920 9 920 15.5 941.5 c 128,-1,19
 22 963 22 963 31.5 985.5 c 128,-1,20
 41 1008 41 1008 55 1028 c 1,21,22
 75 1053 75 1053 99.5 1073.5 c 128,-1,23
 124 1094 124 1094 158.5 1109 c 128,-1,24
 193 1124 193 1124 240 1132 c 128,-1,25
 287 1140 287 1140 352 1140 c 2,26,-1
 1225 1140 l 2,27,28
 1256 1140 1256 1140 1278 1144 c 128,-1,29
 1300 1148 1300 1148 1316 1157 c 128,-1,30
 1332 1166 1332 1166 1342 1180.5 c 128,-1,31
 1352 1195 1352 1195 1359 1215 c 1,32,-1
 1555 1215 l 1,33,34
 1552 1118 1552 1118 1532 1049.5 c 128,-1,35
 1512 981 1512 981 1472 937.5 c 128,-1,36
 1432 894 1432 894 1371 874 c 128,-1,37
 1310 854 1310 854 1225 854 c 2,38,-1
 1205 854 l 1,39,-1
 1189 346 l 2,40,41
 1186 281 1186 281 1204 253.5 c 128,-1,42
 1222 226 1222 226 1251 226 c 0,43,44
 1278 226 1278 226 1302.5 238.5 c 128,-1,45
 1327 251 1327 251 1348.5 270 c 128,-1,46
 1370 289 1370 289 1388.5 310.5 c 128,-1,47
 1407 332 1407 332 1423 349 c 1,48,-1
 1534 219 l 1,49,50
 1513 176 1513 176 1473.5 133 c 128,-1,51
 1434 90 1434 90 1378.5 55 c 128,-1,52
 1323 20 1323 20 1252.5 -2 c 128,-1,53
 1182 -24 1182 -24 1100 -24 c 0,54,55
 971 -24 971 -24 912.5 55 c 128,-1,56
 854 134 854 134 869 282 c 2,57,-1
 925 854 l 1,58,-1
 682 854 l 1,59,-1
 659 403 l 2,60,61
 654 322 654 322 643.5 267 c 128,-1,62
 633 212 633 212 615 172.5 c 128,-1,63
 597 133 597 133 571.5 104 c 128,-1,64
 546 75 546 75 512 45 c 1,65,66
 480 20 480 20 430.5 -0.5 c 128,-1,67
 381 -21 381 -21 312 -24 c 1,68,-1
 112 126 l 1,69,-1
 112 126 l 1,0,1
EndSplineSet
EndChar

StartChar: product
Encoding: 8719 8719 207
Width: 1668
Flags: W
LayerCount: 2
Fore
SplineSet
273 1250 m 1,0,-1
 49 1251 l 1,1,-1
 49 1522 l 1,2,-1
 1618 1522 l 1,3,-1
 1618 1251 l 1,4,-1
 1388 1250 l 1,5,-1
 1388 -172 l 1,6,-1
 1016 -172 l 1,7,-1
 1016 1249 l 1,8,-1
 645 1249 l 1,9,-1
 645 -172 l 1,10,-1
 273 -172 l 1,11,-1
 273 1250 l 1,0,-1
EndSplineSet
EndChar

StartChar: partialdiff
Encoding: 8706 8706 208
Width: 1379
Flags: W
LayerCount: 2
Fore
SplineSet
87 520 m 1,0,1
 85 628 85 628 108.5 712.5 c 128,-1,2
 132 797 132 797 174 861.5 c 128,-1,3
 216 926 216 926 274 971 c 128,-1,4
 332 1016 332 1016 400 1044 c 128,-1,5
 468 1072 468 1072 542.5 1085 c 128,-1,6
 617 1098 617 1098 693 1098 c 0,7,8
 774 1098 774 1098 829 1083 c 128,-1,9
 884 1068 884 1068 928 1045 c 1,10,11
 910 1141 910 1141 872 1219 c 128,-1,12
 834 1297 834 1297 777 1352.5 c 128,-1,13
 720 1408 720 1408 643.5 1438.5 c 128,-1,14
 567 1469 567 1469 473 1469 c 0,15,16
 439 1469 439 1469 403 1463.5 c 128,-1,17
 367 1458 367 1458 332 1447.5 c 128,-1,18
 297 1437 297 1437 264.5 1423 c 128,-1,19
 232 1409 232 1409 207 1391 c 1,20,-1
 90 1588 l 1,21,22
 179 1657 179 1657 291.5 1694 c 128,-1,23
 404 1731 404 1731 519 1731 c 0,24,25
 655 1731 655 1731 766 1695 c 128,-1,26
 877 1659 877 1659 963.5 1595 c 128,-1,27
 1050 1531 1050 1531 1113.5 1443 c 128,-1,28
 1177 1355 1177 1355 1218.5 1251.5 c 128,-1,29
 1260 1148 1260 1148 1280 1032.5 c 128,-1,30
 1300 917 1300 917 1300 799 c 0,31,32
 1300 596 1300 596 1259.5 441 c 128,-1,33
 1219 286 1219 286 1137 181.5 c 128,-1,34
 1055 77 1055 77 930.5 23.5 c 128,-1,35
 806 -30 806 -30 638 -30 c 0,36,37
 527 -30 527 -30 427.5 13 c 128,-1,38
 328 56 328 56 253 130.5 c 128,-1,39
 178 205 178 205 133 305 c 128,-1,40
 88 405 88 405 87 520 c 1,0,1
454 532 m 0,41,42
 455 465 455 465 468 406.5 c 128,-1,43
 481 348 481 348 509.5 305 c 128,-1,44
 538 262 538 262 585 237.5 c 128,-1,45
 632 213 632 213 703 213 c 0,46,47
 756 213 756 213 794 237.5 c 128,-1,48
 832 262 832 262 858.5 301 c 128,-1,49
 885 340 885 340 901.5 389.5 c 128,-1,50
 918 439 918 439 926.5 489 c 128,-1,51
 935 539 935 539 938 585 c 128,-1,52
 941 631 941 631 941 663 c 0,53,54
 941 700 941 700 941 734 c 128,-1,55
 941 768 941 768 942 799 c 1,56,57
 890 837 890 837 835 856.5 c 128,-1,58
 780 876 780 876 708 876 c 0,59,60
 447 876 447 876 454 532 c 0,41,42
EndSplineSet
EndChar

StartChar: infinity
Encoding: 8734 8734 209
Width: 2051
Flags: W
LayerCount: 2
Fore
SplineSet
575 154 m 0,0,1
 442 152 442 152 344 190 c 128,-1,2
 246 228 246 228 182 293 c 128,-1,3
 118 358 118 358 86.5 444 c 128,-1,4
 55 530 55 530 55 623 c 0,5,6
 55 718 55 718 90 801.5 c 128,-1,7
 125 885 125 885 190.5 947.5 c 128,-1,8
 256 1010 256 1010 350 1045.5 c 128,-1,9
 444 1081 444 1081 562 1081 c 0,10,11
 655 1081 655 1081 729.5 1063 c 128,-1,12
 804 1045 804 1045 863.5 1013.5 c 128,-1,13
 923 982 923 982 969 940 c 128,-1,14
 1015 898 1015 898 1053 849 c 1,15,16
 1093 895 1093 895 1140.5 936 c 128,-1,17
 1188 977 1188 977 1242.5 1008 c 128,-1,18
 1297 1039 1297 1039 1359 1057.5 c 128,-1,19
 1421 1076 1421 1076 1490 1076 c 0,20,21
 1623 1077 1623 1077 1718.5 1039.5 c 128,-1,22
 1814 1002 1814 1002 1876 938.5 c 128,-1,23
 1938 875 1938 875 1967.5 790.5 c 128,-1,24
 1997 706 1997 706 1997 613 c 0,25,26
 1997 517 1997 517 1962 432.5 c 128,-1,27
 1927 348 1927 348 1861.5 284.5 c 128,-1,28
 1796 221 1796 221 1702 184.5 c 128,-1,29
 1608 148 1608 148 1489 148 c 0,30,31
 1394 148 1394 148 1319.5 165.5 c 128,-1,32
 1245 183 1245 183 1186 213.5 c 128,-1,33
 1127 244 1127 244 1081.5 285.5 c 128,-1,34
 1036 327 1036 327 1000 375 c 1,35,36
 961 330 961 330 915.5 290 c 128,-1,37
 870 250 870 250 817 220 c 128,-1,38
 764 190 764 190 703.5 172.5 c 128,-1,39
 643 155 643 155 575 154 c 0,0,1
1176 668 m 1,40,41
 1203 618 1203 618 1237 570 c 128,-1,42
 1271 522 1271 522 1310.5 484 c 128,-1,43
 1350 446 1350 446 1395 422.5 c 128,-1,44
 1440 399 1440 399 1490 399 c 0,45,46
 1535 399 1535 399 1571.5 414.5 c 128,-1,47
 1608 430 1608 430 1634.5 459.5 c 128,-1,48
 1661 489 1661 489 1675.5 530.5 c 128,-1,49
 1690 572 1690 572 1690 624 c 0,50,51
 1690 667 1690 667 1675.5 704.5 c 128,-1,52
 1661 742 1661 742 1631 770 c 128,-1,53
 1601 798 1601 798 1556 814 c 128,-1,54
 1511 830 1511 830 1450 830 c 0,55,56
 1382 830 1382 830 1313.5 792 c 128,-1,57
 1245 754 1245 754 1176 668 c 1,40,41
360 615 m 0,58,59
 360 572 360 572 374.5 532.5 c 128,-1,60
 389 493 389 493 418 463 c 128,-1,61
 447 433 447 433 492 415.5 c 128,-1,62
 537 398 537 398 597 398 c 0,63,64
 665 398 665 398 735 435.5 c 128,-1,65
 805 473 805 473 876 559 c 1,66,67
 849 609 849 609 814 657 c 128,-1,68
 779 705 779 705 738 742.5 c 128,-1,69
 697 780 697 780 651 803 c 128,-1,70
 605 826 605 826 556 826 c 0,71,72
 513 826 513 826 477 811.5 c 128,-1,73
 441 797 441 797 415 769.5 c 128,-1,74
 389 742 389 742 374.5 703 c 128,-1,75
 360 664 360 664 360 615 c 0,58,59
EndSplineSet
EndChar

StartChar: dotaccent.cap
Encoding: 65546 -1 221
Width: 522
Flags: W
LayerCount: 2
Fore
SplineSet
254 1613 m 0,0,1
 166 1613 166 1613 114.5 1661 c 128,-1,2
 63 1709 63 1709 63 1793 c 0,3,4
 63 1835 63 1835 79 1870.5 c 128,-1,5
 95 1906 95 1906 122.5 1932 c 128,-1,6
 150 1958 150 1958 188 1972.5 c 128,-1,7
 226 1987 226 1987 270 1987 c 0,8,9
 361 1987 361 1987 410 1940 c 128,-1,10
 459 1893 459 1893 459 1808 c 0,11,12
 459 1766 459 1766 443.5 1730.5 c 128,-1,13
 428 1695 428 1695 401 1669 c 128,-1,14
 374 1643 374 1643 336.5 1628 c 128,-1,15
 299 1613 299 1613 254 1613 c 0,0,1
EndSplineSet
EndChar

StartChar: Eogonek
Encoding: 280 280 222
Width: 1226
Flags: W
LayerCount: 2
Fore
SplineSet
150 1522 m 1,0,-1
 1104 1522 l 1,1,-1
 1104 1232 l 1,2,-1
 528 1232 l 1,3,-1
 528 916 l 1,4,-1
 969 916 l 1,5,-1
 969 637 l 1,6,-1
 528 637 l 1,7,-1
 528 300 l 1,8,-1
 1165 300 l 1,9,-1
 1165 0 l 1,10,-1
 1110 0 l 1,11,12
 1074 -20 1074 -20 1041.5 -43 c 128,-1,13
 1009 -66 1009 -66 985 -92.5 c 128,-1,14
 961 -119 961 -119 948 -148.5 c 128,-1,15
 935 -178 935 -178 937 -212 c 0,16,17
 940 -261 940 -261 974 -280.5 c 128,-1,18
 1008 -300 1008 -300 1062 -300 c 0,19,20
 1088 -300 1088 -300 1116 -294.5 c 128,-1,21
 1144 -289 1144 -289 1172 -280 c 1,22,-1
 1172 -449 l 1,23,24
 1122 -481 1122 -481 1061 -498.5 c 128,-1,25
 1000 -516 1000 -516 917 -516 c 0,26,27
 863 -516 863 -516 813 -502 c 128,-1,28
 763 -488 763 -488 725 -461.5 c 128,-1,29
 687 -435 687 -435 663 -396.5 c 128,-1,30
 639 -358 639 -358 638 -309 c 0,31,32
 636 -254 636 -254 655.5 -207 c 128,-1,33
 675 -160 675 -160 708.5 -121.5 c 128,-1,34
 742 -83 742 -83 785 -52.5 c 128,-1,35
 828 -22 828 -22 872 0 c 1,36,-1
 150 0 l 1,37,-1
 150 1522 l 1,0,-1
EndSplineSet
EndChar

StartChar: macron.cap
Encoding: 65547 -1 224
Width: 716
Flags: W
LayerCount: 2
Fore
SplineSet
50 1927 m 1,0,-1
 666 1927 l 1,1,-1
 666 1689 l 1,2,-1
 50 1689 l 1,3,-1
 50 1927 l 1,0,-1
EndSplineSet
EndChar

StartChar: gcommaaccent
Encoding: 291 291 261
Width: 1284
Flags: W
LayerCount: 2
Fore
SplineSet
640 1272 m 1,0,1
 600 1275 600 1275 560.5 1294.5 c 128,-1,2
 521 1314 521 1314 489 1349 c 128,-1,3
 457 1384 457 1384 437 1435 c 128,-1,4
 417 1486 417 1486 417 1551 c 0,5,6
 417 1615 417 1615 436 1669.5 c 128,-1,7
 455 1724 455 1724 483 1765 c 128,-1,8
 511 1806 511 1806 544 1833 c 128,-1,9
 577 1860 577 1860 605 1869 c 1,10,-1
 747 1818 l 1,11,-1
 747 1796 l 1,12,13
 738 1783 738 1783 730.5 1770 c 128,-1,14
 723 1757 723 1757 717.5 1739.5 c 128,-1,15
 712 1722 712 1722 709 1698.5 c 128,-1,16
 706 1675 706 1675 706 1642 c 0,17,18
 706 1616 706 1616 712.5 1588.5 c 128,-1,19
 719 1561 719 1561 730.5 1538.5 c 128,-1,20
 742 1516 742 1516 758.5 1500 c 128,-1,21
 775 1484 775 1484 795 1480 c 1,22,-1
 795 1404 l 1,23,-1
 640 1272 l 1,0,1
56 -170 m 0,24,25
 56 -95 56 -95 97.5 -39.5 c 128,-1,26
 139 16 139 16 219 50 c 1,27,28
 173 75 173 75 151 119.5 c 128,-1,29
 129 164 129 164 129 226 c 0,30,31
 129 257 129 257 139.5 290 c 128,-1,32
 150 323 150 323 171 354.5 c 128,-1,33
 192 386 192 386 224 414.5 c 128,-1,34
 256 443 256 443 299 466 c 1,35,36
 192 511 192 511 137.5 590.5 c 128,-1,37
 83 670 83 670 83 781 c 0,38,39
 83 969 83 969 213.5 1062 c 128,-1,40
 344 1155 344 1155 598 1156 c 0,41,42
 825 1156 825 1156 959 1075 c 1,43,44
 988 1101 988 1101 1038 1121 c 128,-1,45
 1088 1141 1088 1141 1151 1141 c 2,46,-1
 1284 1141 l 1,47,-1
 1284 891 l 1,48,-1
 1102 891 l 1,49,50
 1116 841 1116 841 1116 787 c 0,51,52
 1116 701 1116 701 1083.5 632 c 128,-1,53
 1051 563 1051 563 986.5 515 c 128,-1,54
 922 467 922 467 824.5 441 c 128,-1,55
 727 415 727 415 597 415 c 0,56,57
 534 415 534 415 479 421 c 1,58,59
 462 405 462 405 454.5 384 c 128,-1,60
 447 363 447 363 447 345 c 0,61,62
 447 304 447 304 479.5 284.5 c 128,-1,63
 512 265 512 265 585 265 c 2,64,-1
 813 265 l 2,65,66
 941 265 941 265 1024.5 237 c 128,-1,67
 1108 209 1108 209 1157 162.5 c 128,-1,68
 1206 116 1206 116 1225.5 54 c 128,-1,69
 1245 -8 1245 -8 1245 -75 c 0,70,71
 1245 -149 1245 -149 1220.5 -210.5 c 128,-1,72
 1196 -272 1196 -272 1153 -321 c 128,-1,73
 1110 -370 1110 -370 1051 -407 c 128,-1,74
 992 -444 992 -444 922 -468.5 c 128,-1,75
 852 -493 852 -493 774.5 -505 c 128,-1,76
 697 -517 697 -517 618 -516 c 0,77,78
 480 -515 480 -515 374.5 -489.5 c 128,-1,79
 269 -464 269 -464 198.5 -419 c 128,-1,80
 128 -374 128 -374 92 -310.5 c 128,-1,81
 56 -247 56 -247 56 -170 c 0,24,25
601 625 m 0,82,83
 640 625 640 625 672.5 633 c 128,-1,84
 705 641 705 641 728.5 659 c 128,-1,85
 752 677 752 677 765 707 c 128,-1,86
 778 737 778 737 778 781 c 0,87,88
 778 945 778 945 605 945 c 0,89,90
 566 945 566 945 533 937 c 128,-1,91
 500 929 500 929 476.5 910.5 c 128,-1,92
 453 892 453 892 440 860.5 c 128,-1,93
 427 829 427 829 427 782 c 0,94,95
 427 709 427 709 470 667 c 128,-1,96
 513 625 513 625 601 625 c 0,82,83
397 -105 m 0,97,98
 397 -143 397 -143 408 -179 c 128,-1,99
 419 -215 419 -215 446.5 -243 c 128,-1,100
 474 -271 474 -271 520.5 -288.5 c 128,-1,101
 567 -306 567 -306 638 -306 c 0,102,103
 689 -306 689 -306 735.5 -298 c 128,-1,104
 782 -290 782 -290 817 -271.5 c 128,-1,105
 852 -253 852 -253 872.5 -222 c 128,-1,106
 893 -191 893 -191 893 -145 c 0,107,108
 893 -111 893 -111 885.5 -86 c 128,-1,109
 878 -61 878 -61 854.5 -44 c 128,-1,110
 831 -27 831 -27 788 -18.5 c 128,-1,111
 745 -10 745 -10 674 -10 c 2,112,-1
 448 -10 l 2,113,114
 442 -10 442 -10 436.5 -9.5 c 128,-1,115
 431 -9 431 -9 425 -8 c 1,116,117
 413 -25 413 -25 405 -48 c 128,-1,118
 397 -71 397 -71 397 -105 c 0,97,98
EndSplineSet
EndChar

StartChar: caronvertical
Encoding: 65548 -1 281
Width: 440
Flags: W
LayerCount: 2
Fore
SplineSet
104 1028 m 1,0,-1
 96 1062 l 1,1,2
 107 1108 107 1108 114 1181 c 128,-1,3
 121 1254 121 1254 121 1348 c 0,4,5
 121 1423 121 1423 104 1480.5 c 128,-1,6
 87 1538 87 1538 60 1568 c 1,7,-1
 71 1635 l 1,8,-1
 321 1721 l 1,9,10
 363 1685 363 1685 383.5 1614.5 c 128,-1,11
 404 1544 404 1544 404 1435 c 0,12,13
 404 1358 404 1358 390 1288 c 128,-1,14
 376 1218 376 1218 354.5 1159.5 c 128,-1,15
 333 1101 333 1101 307.5 1057 c 128,-1,16
 282 1013 282 1013 259 988 c 1,17,-1
 104 1028 l 1,0,-1
EndSplineSet
EndChar

StartChar: iogonek
Encoding: 303 303 282
Width: 634
Flags: W
LayerCount: 2
Fore
SplineSet
319 1282 m 0,0,1
 275 1282 275 1282 237.5 1296 c 128,-1,2
 200 1310 200 1310 173 1335.5 c 128,-1,3
 146 1361 146 1361 130.5 1395.5 c 128,-1,4
 115 1430 115 1430 115 1472 c 256,5,6
 115 1514 115 1514 133 1550.5 c 128,-1,7
 151 1587 151 1587 181 1615 c 128,-1,8
 211 1643 211 1643 251 1659 c 128,-1,9
 291 1675 291 1675 335 1675 c 0,10,11
 380 1675 380 1675 417.5 1661.5 c 128,-1,12
 455 1648 455 1648 481.5 1623 c 128,-1,13
 508 1598 508 1598 522.5 1563.5 c 128,-1,14
 537 1529 537 1529 537 1487 c 256,15,16
 537 1445 537 1445 519.5 1408 c 128,-1,17
 502 1371 502 1371 472.5 1343 c 128,-1,18
 443 1315 443 1315 403.5 1298.5 c 128,-1,19
 364 1282 364 1282 319 1282 c 0,0,1
134 1139 m 1,20,-1
 500 1139 l 1,21,-1
 500 0 l 1,22,-1
 452 0 l 1,23,24
 416 -20 416 -20 384.5 -42.5 c 128,-1,25
 353 -65 353 -65 330 -90.5 c 128,-1,26
 307 -116 307 -116 295 -145.5 c 128,-1,27
 283 -175 283 -175 286 -209 c 1,28,29
 288 -258 288 -258 324.5 -279 c 128,-1,30
 361 -300 361 -300 414 -300 c 0,31,32
 440 -300 440 -300 468 -294.5 c 128,-1,33
 496 -289 496 -289 524 -280 c 1,34,-1
 524 -449 l 1,35,36
 474 -481 474 -481 413 -498.5 c 128,-1,37
 352 -516 352 -516 269 -516 c 0,38,39
 215 -516 215 -516 164.5 -502 c 128,-1,40
 114 -488 114 -488 75 -461.5 c 128,-1,41
 36 -435 36 -435 12 -396.5 c 128,-1,42
 -12 -358 -12 -358 -13 -309 c 0,43,44
 -15 -254 -15 -254 5 -207 c 128,-1,45
 25 -160 25 -160 58 -121.5 c 128,-1,46
 91 -83 91 -83 132 -52.5 c 128,-1,47
 173 -22 173 -22 213 0 c 1,48,-1
 134 0 l 1,49,-1
 134 1139 l 1,20,-1
EndSplineSet
EndChar

StartChar: Iogonek
Encoding: 302 302 283
Width: 674
Flags: W
LayerCount: 2
Fore
SplineSet
148 1522 m 1,0,-1
 528 1522 l 1,1,-1
 528 0 l 1,2,-1
 462 0 l 1,3,4
 426 -20 426 -20 394.5 -42.5 c 128,-1,5
 363 -65 363 -65 340 -90.5 c 128,-1,6
 317 -116 317 -116 305 -145.5 c 128,-1,7
 293 -175 293 -175 296 -209 c 1,8,9
 298 -258 298 -258 334.5 -279 c 128,-1,10
 371 -300 371 -300 424 -300 c 0,11,12
 450 -300 450 -300 478 -294.5 c 128,-1,13
 506 -289 506 -289 534 -280 c 1,14,-1
 534 -449 l 1,15,16
 484 -481 484 -481 423 -498.5 c 128,-1,17
 362 -516 362 -516 279 -516 c 0,18,19
 225 -516 225 -516 174.5 -502 c 128,-1,20
 124 -488 124 -488 85 -461.5 c 128,-1,21
 46 -435 46 -435 22 -396.5 c 128,-1,22
 -2 -358 -2 -358 -3 -309 c 0,23,24
 -5 -254 -5 -254 15 -207 c 128,-1,25
 35 -160 35 -160 68 -121.5 c 128,-1,26
 101 -83 101 -83 142 -52.5 c 128,-1,27
 183 -22 183 -22 223 0 c 1,28,-1
 148 0 l 1,29,-1
 148 1522 l 1,0,-1
EndSplineSet
EndChar

StartChar: uogonek
Encoding: 371 371 284
Width: 1297
Flags: W
LayerCount: 2
Fore
SplineSet
122 1140 m 1,0,-1
 488 1140 l 1,1,-1
 488 478 l 2,2,3
 488 411 488 411 497.5 368.5 c 128,-1,4
 507 326 507 326 525.5 302 c 128,-1,5
 544 278 544 278 572.5 269 c 128,-1,6
 601 260 601 260 640 260 c 0,7,8
 666 260 666 260 691.5 265.5 c 128,-1,9
 717 271 717 271 738.5 279 c 128,-1,10
 760 287 760 287 777.5 297 c 128,-1,11
 795 307 795 307 805 316 c 1,12,-1
 804 1140 l 1,13,-1
 1170 1140 l 1,14,-1
 1170 -16 l 1,15,-1
 1115 -16 l 1,16,17
 1082 -36 1082 -36 1052.5 -57 c 128,-1,18
 1023 -78 1023 -78 1002 -102 c 128,-1,19
 981 -126 981 -126 970 -153.5 c 128,-1,20
 959 -181 959 -181 961 -212 c 0,21,22
 963 -261 963 -261 998 -280.5 c 128,-1,23
 1033 -300 1033 -300 1086 -300 c 0,24,25
 1112 -300 1112 -300 1139.5 -294.5 c 128,-1,26
 1167 -289 1167 -289 1196 -280 c 1,27,-1
 1196 -449 l 1,28,29
 1146 -481 1146 -481 1085 -498.5 c 128,-1,30
 1024 -516 1024 -516 941 -516 c 0,31,32
 887 -516 887 -516 837 -502 c 128,-1,33
 787 -488 787 -488 749 -461.5 c 128,-1,34
 711 -435 711 -435 687 -396.5 c 128,-1,35
 663 -358 663 -358 662 -309 c 0,36,37
 660 -258 660 -258 677 -213.5 c 128,-1,38
 694 -169 694 -169 724 -132 c 128,-1,39
 754 -95 754 -95 792.5 -65 c 128,-1,40
 831 -35 831 -35 872 -12 c 1,41,42
 855 -8 855 -8 846.5 4 c 128,-1,43
 838 16 838 16 838 42 c 2,44,-1
 838 90 l 1,45,46
 808 67 808 67 767.5 47.5 c 128,-1,47
 727 28 727 28 682.5 14 c 128,-1,48
 638 0 638 0 592.5 -8 c 128,-1,49
 547 -16 547 -16 507 -16 c 0,50,51
 382 -16 382 -16 306.5 20.5 c 128,-1,52
 231 57 231 57 190 122.5 c 128,-1,53
 149 188 149 188 135.5 277.5 c 128,-1,54
 122 367 122 367 122 474 c 2,55,-1
 122 1140 l 1,0,-1
EndSplineSet
EndChar

